<svg width="326" height="145" viewBox="0 0 326 145" fill="none" xmlns="http://www.w3.org/2000/svg">
<path d="M43.8821 66.5084C46.3142 67.2124 47.5303 68.0765 47.5303 69.1005C47.5303 72.6207 47.6263 75.7889 47.8183 78.6051C48.0743 81.3572 48.3944 84.7174 48.7784 88.6856C49.3544 93.8699 49.6424 97.9341 49.6424 100.878C49.6424 107.279 48.7464 113.775 46.9543 120.367C45.1622 126.96 41.93 132.592 37.2578 137.264C32.5855 142.001 26.2172 144.369 18.1527 144.369C15.8486 144.369 13.2244 144.113 10.2803 143.601C7.20812 143.025 4.77599 141.904 2.98389 140.24C1.12779 138.64 0.19974 136.08 0.19974 132.56C0.19974 129.168 0.967781 126.512 2.50386 124.592C3.97594 122.735 5.96005 121.807 8.45619 121.807C8.7762 121.807 9.38424 121.871 10.2803 121.999C13.4165 122.575 16.2006 122.831 18.6327 122.767C25.4811 122.767 30.7614 120.975 34.4736 117.391C38.1858 113.807 40.0419 108.943 40.0419 102.798C39.9779 99.9822 39.4019 97.6781 38.3138 95.886C37.2257 94.0299 35.5617 91.9498 33.3215 89.6457C30.8894 87.1495 29.0333 84.8454 27.7532 82.7333C26.5372 80.5572 25.9291 77.741 25.9291 74.2848C25.9291 71.7887 26.9212 69.6766 28.9053 67.9485C30.9534 66.2204 33.3215 65.3563 36.0097 65.3563C38.8898 65.3563 41.514 65.7404 43.8821 66.5084ZM63.1454 91.8538C62.1213 81.2932 61.0653 69.7406 59.9772 57.1959C58.9532 44.5872 58.3771 36.3628 58.2491 32.5226C58.1851 30.0264 59.1772 27.9143 61.2253 26.1862C63.2734 24.3941 65.6415 23.4981 68.3297 23.4981C71.2098 23.4981 73.866 23.8821 76.2981 24.6501C78.7302 25.4182 79.9143 26.3142 79.8503 27.3383L72.7459 91.7578H86.2827V113.359H82.5385C78.6342 113.359 75.4021 112.943 72.8419 112.111C70.3458 111.279 68.2977 109.711 66.6976 107.407C65.1615 105.102 64.1695 101.806 63.7214 97.5181L63.1454 91.8538ZM124.379 128.144C125.468 129.232 126.012 130.448 126.012 131.792C126.012 133.136 125.468 134.32 124.379 135.344L119.291 140.432C118.203 141.52 117.019 142.065 115.739 142.065C114.459 142.065 113.275 141.52 112.187 140.432L107.099 135.344L102.01 140.432C100.922 141.52 99.7381 142.065 98.4581 142.065C97.178 142.065 95.9939 141.52 94.9059 140.432L89.8176 135.344C88.7935 134.32 88.2815 133.136 88.2815 131.792C88.2815 130.448 88.7935 129.232 89.8176 128.144L94.9059 123.055C95.9299 122.031 97.114 121.519 98.4581 121.519C99.8021 121.519 100.986 122.031 102.01 123.055L107.099 128.144L112.187 123.055C113.339 122.031 114.523 121.519 115.739 121.519C117.083 121.519 118.267 122.031 119.291 123.055L124.379 128.144ZM118.139 85.4214C118.587 89.6457 122.043 91.7578 128.508 91.7578V113.359C124.603 113.359 121.275 112.911 118.523 112.015C115.771 111.055 113.531 109.263 111.803 106.639C109.115 109.135 105.594 110.895 101.242 111.919C96.89 112.879 91.5137 113.359 85.1133 113.359V91.7578L97.306 91.8538C100.378 91.8538 102.682 91.6938 104.218 91.3738C105.818 91.0537 106.971 90.4457 107.675 89.5497C108.379 88.5896 108.731 87.1495 108.731 85.2294C108.731 84.1414 108.603 82.7333 108.347 81.0052C108.091 79.2771 107.771 77.389 107.387 75.3409L106.907 72.9408C106.459 71.1487 106.234 69.7406 106.234 68.7165C106.234 67.6285 106.587 66.7964 107.291 66.2204C107.995 65.6444 109.243 65.3563 111.035 65.3563C112.379 65.3563 113.403 65.7084 114.107 66.4124C114.875 67.0524 115.419 67.9165 115.739 69.0045C116.059 70.0286 116.379 71.5007 116.699 73.4208L116.987 75.3409C117.563 78.7331 117.947 81.8052 118.139 84.5574V85.4214ZM196.498 113.359C183.953 113.359 173.105 110.863 163.952 105.871C152.688 110.863 140.495 113.359 127.374 113.359V91.7578H130.447L145.135 91.8538H148.688C146.767 89.1016 145.231 85.9015 144.079 82.2533V82.0613C140.879 83.8533 138.063 85.7414 135.631 87.7256C132.623 82.8613 131.119 78.4451 131.119 74.4768C131.119 70.1886 132.687 66.5404 135.823 63.5322C139.023 60.4601 143.311 58.156 148.688 56.6199C154.064 55.0838 159.984 54.3157 166.449 54.3157C171.249 54.3157 175.665 55.2118 179.697 57.0039C183.729 58.732 186.93 61.1961 189.298 64.3963C191.666 67.5965 192.85 71.2447 192.85 75.3409C192.85 77.837 192.146 80.5252 190.738 83.4053C189.33 86.2215 187.314 89.0056 184.689 91.7578H192.274H196.498V113.359ZM153.68 77.933C155.28 81.3252 157.104 83.9814 159.152 85.9015C161.264 87.8216 163.728 89.2296 166.545 90.1257C168.401 89.6777 170.321 88.9736 172.305 88.0136C173.905 87.1175 175.249 86.1255 176.337 85.0374C177.169 84.1414 177.873 83.0533 178.449 81.7732C178.705 81.1332 178.833 80.7172 178.833 80.5252C178.833 80.1411 178.801 79.8531 178.737 79.6611C178.481 78.8931 177.777 78.189 176.625 77.549C175.473 77.101 174.161 76.717 172.689 76.3969C171.793 76.2689 170.225 76.1089 167.985 75.9169H166.064L163.376 76.0129C161.712 76.1409 160.016 76.3649 158.288 76.685C156.688 77.005 155.152 77.421 153.68 77.933ZM246.399 84.5574C246.399 89.3576 249.855 91.7578 256.768 91.7578V113.359C252.863 113.359 249.535 112.911 246.783 112.015C244.031 111.119 241.791 109.359 240.063 106.735C238.335 108.975 236.287 110.639 233.918 111.727C231.614 112.815 229.15 113.359 226.526 113.359C223.71 113.359 221.054 112.783 218.558 111.631C216.125 110.479 213.981 108.783 212.125 106.543C210.461 109.231 208.221 111.055 205.405 112.015C202.653 112.911 199.293 113.359 195.324 113.359V91.7578C202.237 91.7578 205.693 89.3576 205.693 84.5574V83.5973C205.693 73.8688 207.485 66.5724 211.069 61.7081C214.717 56.7799 219.71 54.3157 226.046 54.3157C232.382 54.3157 237.343 56.7799 240.927 61.7081C244.575 66.5724 246.399 73.8688 246.399 83.5973V84.5574ZM226.046 91.7578C229.95 91.7578 232.702 90.9257 234.302 89.2616C235.967 87.5976 236.799 85.7094 236.799 83.5973C236.799 81.5492 235.935 79.7571 234.206 78.221C232.542 76.685 229.822 75.9169 226.046 75.9169C222.014 75.9169 219.198 76.685 217.598 78.221C215.997 79.6931 215.197 81.4852 215.197 83.5973C215.197 85.7094 216.029 87.5976 217.694 89.2616C219.358 90.9257 222.142 91.7578 226.046 91.7578ZM277.188 91.7578C277.188 90.3497 276.675 87.1175 275.651 82.0613C274.691 76.941 273.635 71.5327 272.483 65.8364C270.691 57.1959 269.251 50.1235 268.163 44.6192C267.139 39.0509 266.595 35.0187 266.531 32.5226C266.467 30.0264 267.459 27.9143 269.507 26.1862C271.555 24.3941 273.923 23.4981 276.611 23.4981C279.492 23.4981 282.116 23.8821 284.484 24.6501C286.916 25.4182 288.132 26.3142 288.132 27.3383C288.132 32.0745 287.876 43.9152 287.364 62.8602C286.98 79.6291 286.788 89.2616 286.788 91.7578C286.788 97.7101 286.052 102.254 284.58 105.391C283.172 108.527 281.092 110.639 278.34 111.727C275.651 112.815 272.067 113.359 267.587 113.359H255.586V91.7578H277.188ZM311.624 108.463C311.496 109.935 311.016 111.119 310.184 112.015C309.416 112.911 308.328 113.359 306.92 113.359C305.512 113.359 304.36 113.007 303.464 112.303C302.632 111.535 302.152 110.447 302.024 109.039C301.192 101.87 300.168 88.9416 298.951 70.2526C297.735 51.5636 296.999 38.9869 296.743 32.5226C296.679 30.0264 297.671 27.9143 299.719 26.1862C301.768 24.3941 304.136 23.4981 306.824 23.4981C309.704 23.4981 312.36 23.8821 314.792 24.6501C317.224 25.4182 318.408 26.3142 318.344 27.3383L311.624 108.463Z" fill="#C1DC01"/>
<path d="M45.2044 59.1495C47.6365 59.8535 48.8526 60.7175 48.8526 61.7416C48.8526 65.2618 48.9486 68.43 49.1406 71.2461C49.3966 73.9983 49.7166 77.3584 50.1006 81.3267C50.6767 86.5109 50.9647 90.5752 50.9647 93.5193C50.9647 99.9197 50.0686 106.416 48.2765 113.008C46.4844 119.601 43.2523 125.233 38.58 129.905C33.9078 134.642 27.5394 137.01 19.475 137.01C17.1709 137.01 14.5467 136.754 11.6026 136.242C8.53039 135.666 6.09825 134.546 4.30616 132.881C2.45006 131.281 1.52201 128.721 1.52201 125.201C1.52201 121.809 2.29005 119.153 3.82613 117.233C5.29821 115.377 7.28232 114.448 9.77845 114.448C10.0985 114.448 10.7065 114.512 11.6026 114.64C14.7387 115.217 17.5229 115.473 19.955 115.409C26.8034 115.409 32.0837 113.616 35.7959 110.032C39.5081 106.448 41.3642 101.584 41.3642 95.4394C41.3002 92.6233 40.7241 90.3191 39.6361 88.5271C38.548 86.671 36.8839 84.5908 34.6438 82.2867C32.2117 79.7906 30.3556 77.4865 29.0755 75.3743C27.8594 73.1982 27.2514 70.3821 27.2514 66.9259C27.2514 64.4297 28.2435 62.3176 30.2276 60.5895C32.2757 58.8614 34.6438 57.9974 37.3319 57.9974C40.2121 57.9974 42.8362 58.3814 45.2044 59.1495ZM64.4677 84.4948C63.4436 73.9343 62.3876 62.3816 61.2995 49.837C60.2754 37.2283 59.6994 29.0038 59.5714 25.1636C59.5074 22.6675 60.4995 20.5554 62.5476 18.8273C64.5957 17.0352 66.9638 16.1391 69.6519 16.1391C72.5321 16.1391 75.1882 16.5231 77.6204 17.2912C80.0525 18.0592 81.2366 18.9553 81.1726 19.9793L74.0682 84.3988H87.6049V106H83.8607C79.9565 106 76.7243 105.584 74.1642 104.752C71.6681 103.92 69.6199 102.352 68.0199 100.048C66.4838 97.7436 65.4917 94.4474 65.0437 90.1591L64.4677 84.4948ZM125.702 120.785C126.79 121.873 127.334 123.089 127.334 124.433C127.334 125.777 126.79 126.961 125.702 127.985L120.613 133.073C119.525 134.162 118.341 134.706 117.061 134.706C115.781 134.706 114.597 134.162 113.509 133.073L108.421 127.985L103.333 133.073C102.244 134.162 101.06 134.706 99.7803 134.706C98.5003 134.706 97.3162 134.162 96.2281 133.073L91.1399 127.985C90.1158 126.961 89.6038 125.777 89.6038 124.433C89.6038 123.089 90.1158 121.873 91.1399 120.785L96.2281 115.697C97.2522 114.672 98.4363 114.16 99.7803 114.16C101.124 114.16 102.308 114.672 103.333 115.697L108.421 120.785L113.509 115.697C114.661 114.672 115.845 114.16 117.061 114.16C118.405 114.16 119.589 114.672 120.613 115.697L125.702 120.785ZM119.461 78.0625C119.909 82.2867 123.366 84.3988 129.83 84.3988V106C125.926 106 122.598 105.552 119.845 104.656C117.093 103.696 114.853 101.904 113.125 99.2796C110.437 101.776 106.917 103.536 102.564 104.56C98.2123 105.52 92.836 106 86.4356 106V84.3988L98.6283 84.4948C101.7 84.4948 104.005 84.3348 105.541 84.0148C107.141 83.6948 108.293 83.0868 108.997 82.1907C109.701 81.2307 110.053 79.7906 110.053 77.8705C110.053 76.7824 109.925 75.3743 109.669 73.6462C109.413 71.9182 109.093 70.03 108.709 67.9819L108.229 65.5818C107.781 63.7897 107.557 62.3816 107.557 61.3576C107.557 60.2695 107.909 59.4375 108.613 58.8614C109.317 58.2854 110.565 57.9974 112.357 57.9974C113.701 57.9974 114.725 58.3494 115.429 59.0535C116.197 59.6935 116.741 60.5575 117.061 61.6456C117.381 62.6697 117.701 64.1417 118.021 66.0618L118.309 67.9819C118.885 71.3741 119.269 74.4463 119.461 77.1984V78.0625ZM197.82 106C185.276 106 174.427 103.504 165.275 98.5116C154.01 103.504 141.817 106 128.697 106V84.3988H131.769L146.458 84.4948H150.01C148.09 81.7427 146.554 78.5425 145.402 74.8943V74.7023C142.201 76.4944 139.385 78.3825 136.953 80.3666C133.945 75.5023 132.441 71.0861 132.441 67.1179C132.441 62.8297 134.009 59.1815 137.145 56.1733C140.345 53.1011 144.634 50.797 150.01 49.2609C155.386 47.7248 161.306 46.9568 167.771 46.9568C172.571 46.9568 176.987 47.8528 181.019 49.6449C185.052 51.373 188.252 53.8372 190.62 57.0373C192.988 60.2375 194.172 63.8857 194.172 67.9819C194.172 70.4781 193.468 73.1662 192.06 76.0464C190.652 78.8625 188.636 81.6467 186.012 84.3988H193.596H197.82V106ZM155.002 70.5741C156.602 73.9663 158.426 76.6224 160.474 78.5425C162.586 80.4626 165.051 81.8707 167.867 82.7667C169.723 82.3187 171.643 81.6147 173.627 80.6546C175.227 79.7586 176.571 78.7665 177.659 77.6785C178.491 76.7824 179.195 75.6944 179.771 74.4143C180.027 73.7743 180.155 73.3582 180.155 73.1662C180.155 72.7822 180.123 72.4942 180.059 72.3022C179.803 71.5341 179.099 70.8301 177.947 70.1901C176.795 69.742 175.483 69.358 174.011 69.038C173.115 68.91 171.547 68.75 169.307 68.558H167.387L164.699 68.654C163.035 68.782 161.338 69.006 159.61 69.326C158.01 69.646 156.474 70.0621 155.002 70.5741ZM247.721 77.1984C247.721 81.9987 251.178 84.3988 258.09 84.3988V106C254.186 106 250.858 105.552 248.105 104.656C245.353 103.76 243.113 102 241.385 99.3756C239.657 101.616 237.609 103.28 235.241 104.368C232.937 105.456 230.472 106 227.848 106C225.032 106 222.376 105.424 219.88 104.272C217.448 103.12 215.304 101.424 213.447 99.1836C211.783 101.872 209.543 103.696 206.727 104.656C203.975 105.552 200.615 106 196.647 106V84.3988C203.559 84.3988 207.015 81.9987 207.015 77.1984V76.2384C207.015 66.5099 208.807 59.2135 212.391 54.3492C216.04 49.4209 221.032 46.9568 227.368 46.9568C233.705 46.9568 238.665 49.4209 242.249 54.3492C245.897 59.2135 247.721 66.5099 247.721 76.2384V77.1984ZM227.368 84.3988C231.272 84.3988 234.025 83.5668 235.625 81.9027C237.289 80.2386 238.121 78.3505 238.121 76.2384C238.121 74.1903 237.257 72.3982 235.529 70.8621C233.865 69.326 231.144 68.558 227.368 68.558C223.336 68.558 220.52 69.326 218.92 70.8621C217.32 72.3342 216.52 74.1263 216.52 76.2384C216.52 78.3505 217.352 80.2386 219.016 81.9027C220.68 83.5668 223.464 84.3988 227.368 84.3988ZM278.51 84.3988C278.51 82.9908 277.998 79.7586 276.974 74.7023C276.014 69.582 274.958 64.1737 273.806 58.4774C272.013 49.837 270.573 42.7646 269.485 37.2603C268.461 31.692 267.917 27.6597 267.853 25.1636C267.789 22.6675 268.781 20.5554 270.829 18.8273C272.877 17.0352 275.246 16.1391 277.934 16.1391C280.814 16.1391 283.438 16.5231 285.806 17.2912C288.238 18.0592 289.454 18.9553 289.454 19.9793C289.454 24.7156 289.198 36.5562 288.686 55.5013C288.302 72.2702 288.11 81.9027 288.11 84.3988C288.11 90.3512 287.374 94.8954 285.902 98.0316C284.494 101.168 282.414 103.28 279.662 104.368C276.974 105.456 273.389 106 268.909 106H256.909V84.3988H278.51ZM312.946 101.104C312.818 102.576 312.338 103.76 311.506 104.656C310.738 105.552 309.65 106 308.242 106C306.834 106 305.682 105.648 304.786 104.944C303.954 104.176 303.474 103.088 303.346 101.68C302.514 94.5114 301.49 81.5827 300.274 62.8937C299.058 44.2046 298.322 31.628 298.066 25.1636C298.002 22.6675 298.994 20.5554 301.042 18.8273C303.09 17.0352 305.458 16.1391 308.146 16.1391C311.026 16.1391 313.682 16.5231 316.115 17.2912C318.547 18.0592 319.731 18.9553 319.667 19.9793L312.946 101.104Z" fill="#0A4133"/>
</svg>
