<svg width="210" height="21" viewBox="0 0 210 21" fill="none" xmlns="http://www.w3.org/2000/svg">
<path d="M5.89134 21C4.20934 21 2.914 20.594 2.00534 19.782C1.116 18.9507 0.671338 17.7133 0.671338 16.07V5.63C0.671338 3.98667 1.116 2.759 2.00534 1.947C2.914 1.11567 4.20934 0.699999 5.89134 0.699999H9.42934V2.904H5.60134C4.886 2.904 4.306 3.11667 3.86134 3.542C3.41667 3.96733 3.19434 4.47967 3.19434 5.079V16.621C3.19434 17.2203 3.41667 17.7327 3.86134 18.158C4.306 18.5833 4.886 18.796 5.60134 18.796H9.42934V21H5.89134ZM23.6237 16.07C23.6237 17.7133 23.1694 18.9507 22.2607 19.782C21.3714 20.594 20.0857 21 18.4037 21H17.4177C15.7357 21 14.4404 20.594 13.5317 19.782C12.6424 18.9507 12.1977 17.7133 12.1977 16.07V5.63C12.1977 3.98667 12.6424 2.759 13.5317 1.947C14.4404 1.11567 15.7357 0.699999 17.4177 0.699999H18.4037C20.0857 0.699999 21.3714 1.11567 22.2607 1.947C23.1694 2.759 23.6237 3.98667 23.6237 5.63V16.07ZM21.1007 5.079C21.1007 4.47967 20.8784 3.96733 20.4337 3.542C19.989 3.11667 19.409 2.904 18.6937 2.904H17.1277C16.4124 2.904 15.8324 3.11667 15.3877 3.542C14.943 3.96733 14.7207 4.47967 14.7207 5.079V16.621C14.7207 17.2203 14.943 17.7327 15.3877 18.158C15.8324 18.5833 16.4124 18.796 17.1277 18.796H18.6937C19.409 18.796 19.989 18.5833 20.4337 18.158C20.8784 17.7327 21.1007 17.2203 21.1007 16.621V5.079ZM38.9921 16.07C38.9921 17.7133 38.5378 18.9507 37.6291 19.782C36.7398 20.594 35.4541 21 33.7721 21H33.3371C31.6551 21 30.3598 20.594 29.4511 19.782C28.5618 18.9507 28.1171 17.7133 28.1171 16.07V0.699999H30.6401V16.621C30.6401 17.2203 30.8625 17.7327 31.3071 18.158C31.7518 18.5833 32.3318 18.796 33.0471 18.796H34.0621C34.7775 18.796 35.3575 18.5833 35.8021 18.158C36.2468 17.7327 36.4691 17.2203 36.4691 16.621V0.699999H38.9921V16.07ZM50.5677 21L46.1307 2.846V21H43.7817V0.699999H47.8997L52.3657 18.854V0.699999H54.7147V21H50.5677ZM64.6 2.904V21H62.077V2.904H57.611V0.699999H69.066V2.904H64.6ZM82.5744 16.418C82.5744 18.0807 82.1877 19.26 81.4144 19.956C80.6604 20.652 79.4037 21 77.6444 21H71.9604V0.699999H77.2964C79.0364 0.699999 80.351 1.05767 81.2404 1.773C82.1297 2.469 82.5744 3.61933 82.5744 5.224V16.418ZM80.0514 4.963C80.0514 4.325 79.858 3.82233 79.4714 3.455C79.0847 3.06833 78.5724 2.875 77.9344 2.875H74.4834V18.825H77.9054C78.64 18.825 79.1814 18.6607 79.5294 18.332C79.8774 17.984 80.0514 17.4427 80.0514 16.708V4.963ZM98.361 16.07C98.361 17.7133 97.9067 18.9507 96.998 19.782C96.1087 20.594 94.823 21 93.141 21H92.155C90.473 21 89.1777 20.594 88.269 19.782C87.3797 18.9507 86.935 17.7133 86.935 16.07V5.63C86.935 3.98667 87.3797 2.759 88.269 1.947C89.1777 1.11567 90.473 0.699999 92.155 0.699999H93.141C94.823 0.699999 96.1087 1.11567 96.998 1.947C97.9067 2.759 98.361 3.98667 98.361 5.63V16.07ZM95.838 5.079C95.838 4.47967 95.6157 3.96733 95.171 3.542C94.7263 3.11667 94.1463 2.904 93.431 2.904H91.865C91.1497 2.904 90.5697 3.11667 90.125 3.542C89.6803 3.96733 89.458 4.47967 89.458 5.079V16.621C89.458 17.2203 89.6803 17.7327 90.125 18.158C90.5697 18.5833 91.1497 18.796 91.865 18.796H93.431C94.1463 18.796 94.7263 18.5833 95.171 18.158C95.6157 17.7327 95.838 17.2203 95.838 16.621V5.079ZM114.896 21H110.952L109.009 12.184L106.892 21H103.122L102.136 0.699999H104.369L105.239 19.405L107.849 9.255H110.227L112.866 19.405L113.765 0.699999H115.882L114.896 21ZM126.579 21L122.142 2.846V21H119.793V0.699999H123.911L128.377 18.854V0.699999H130.726V21H126.579ZM148.145 2.904V21H145.622V2.904H141.156V0.699999H152.611V2.904H148.145ZM166.075 16.07C166.075 17.7133 165.621 18.9507 164.712 19.782C163.823 20.594 162.537 21 160.855 21H159.869C158.187 21 156.892 20.594 155.983 19.782C155.094 18.9507 154.649 17.7133 154.649 16.07V5.63C154.649 3.98667 155.094 2.759 155.983 1.947C156.892 1.11567 158.187 0.699999 159.869 0.699999H160.855C162.537 0.699999 163.823 1.11567 164.712 1.947C165.621 2.759 166.075 3.98667 166.075 5.63V16.07ZM163.552 5.079C163.552 4.47967 163.33 3.96733 162.885 3.542C162.44 3.11667 161.86 2.904 161.145 2.904H159.579C158.864 2.904 158.284 3.11667 157.839 3.542C157.394 3.96733 157.172 4.47967 157.172 5.079V16.621C157.172 17.2203 157.394 17.7327 157.839 18.158C158.284 18.5833 158.864 18.796 159.579 18.796H161.145C161.86 18.796 162.44 18.5833 162.885 18.158C163.33 17.7327 163.552 17.2203 163.552 16.621V5.079ZM177.086 21V18.883H179.116V2.817H177.086V0.699999H183.669V2.817H181.639V18.883H183.669V21H177.086ZM193.425 21H189.974L186.001 0.699999H188.553L191.743 18.448L195.194 0.699999H197.688L193.425 21ZM205.663 21C203.981 21 202.685 20.594 201.777 19.782C200.887 18.9507 200.443 17.7133 200.443 16.07V5.63C200.443 3.98667 200.887 2.759 201.777 1.947C202.685 1.11567 203.981 0.699999 205.663 0.699999H209.201V2.904H205.373C204.657 2.904 204.077 3.11667 203.633 3.542C203.188 3.96733 202.966 4.47967 202.966 5.079V16.621C202.966 17.2203 203.188 17.7327 203.633 18.158C204.077 18.5833 204.657 18.796 205.373 18.796H209.201V21H205.663Z" fill="black"/>
</svg>
