<svg width="2104" height="96" viewBox="0 0 2104 96" fill="none" xmlns="http://www.w3.org/2000/svg">
<path opacity="0.1" d="M28.6162 96V97H29.6162V96H28.6162ZM6.11621 96H5.11621V97H6.11621V96ZM6.11621 -4.5V-5.5H5.11621V-4.5H6.11621ZM28.6162 -4.5H29.6162V-5.5H28.6162V-4.5ZM28.6162 95H6.11621V97H28.6162V95ZM7.11621 96V-4.5H5.11621V96H7.11621ZM6.11621 -3.5H28.6162V-5.5H6.11621V-3.5ZM27.6162 -4.5V96H29.6162V-4.5H27.6162ZM36.9436 61.2V60.2H35.9436V61.2H36.9436ZM59.4436 61.2H60.4436V60.2H59.4436V61.2ZM92.8936 57.3L93.0649 56.3148L93.0503 56.3123L93.0357 56.3102L92.8936 57.3ZM64.6936 53.25L64.5372 54.2377L64.5443 54.2388L64.5514 54.2398L64.6936 53.25ZM127.394 30.3V31.3H128.394V30.3H127.394ZM104.744 30.3H103.744V31.3H104.744V30.3ZM70.3936 33.6L70.2178 34.5844L70.2269 34.586L70.236 34.5875L70.3936 33.6ZM98.5936 38.1L98.7515 37.1126L98.7511 37.1125L98.5936 38.1ZM84.4936 96.5C69.3755 96.5 57.7317 93.5171 49.8911 87.7685C42.1008 82.0568 37.9436 73.5261 37.9436 62.1H35.9436C35.9436 74.0739 40.3363 83.2432 48.7085 89.3815C57.0304 95.4829 69.1616 98.5 84.4936 98.5V96.5ZM37.9436 62.1V61.2H35.9436V62.1H37.9436ZM36.9436 62.2H59.4436V60.2H36.9436V62.2ZM58.4436 61.2V63.9H60.4436V61.2H58.4436ZM58.4436 63.9C58.4436 66.2972 58.7412 68.4353 59.5786 70.2765C60.4272 72.1424 61.7998 73.6367 63.8262 74.7829C67.7918 77.0261 74.3004 77.95 84.4936 77.95V75.95C74.2867 75.95 68.2703 74.9989 64.8109 73.0421C63.1248 72.0883 62.0599 70.9013 61.3991 69.4485C60.7271 67.9709 60.4436 66.1528 60.4436 63.9H58.4436ZM84.4936 77.95C93.4829 77.95 99.2393 77.2857 102.762 75.6647C104.562 74.836 105.83 73.7361 106.628 72.3138C107.418 70.9073 107.694 69.2829 107.694 67.5H105.694C105.694 69.0921 105.444 70.3365 104.884 71.3347C104.333 72.317 103.425 73.1577 101.925 73.8478C98.8478 75.2643 93.5042 75.95 84.4936 75.95V77.95ZM107.694 67.5C107.694 65.8733 107.466 64.4317 106.908 63.1625C106.345 61.8808 105.469 60.8305 104.26 59.9579C101.898 58.2532 98.2377 57.2144 93.0649 56.3148L92.7222 58.2852C97.8995 59.1856 101.139 60.1717 103.09 61.5796C104.037 62.2632 104.67 63.0411 105.077 63.9672C105.49 64.9058 105.694 66.0517 105.694 67.5H107.694ZM93.0357 56.3102L64.8357 52.2602L64.5514 54.2398L92.7514 58.2898L93.0357 56.3102ZM64.8499 52.2623C55.9657 50.8556 49.0206 47.9489 44.306 43.4863C39.6183 39.049 37.0436 32.9871 37.0436 25.05H35.0436C35.0436 33.4629 37.7939 40.076 42.9311 44.9387C48.0415 49.7761 55.4214 52.7944 64.5372 54.2377L64.8499 52.2623ZM37.0436 25.05C37.0436 17.7596 39.9951 10.2907 47.0392 4.62286C54.1005 -1.05882 65.3646 -5 82.0936 -5V-7C65.0726 -7 53.3117 -2.99118 45.7854 3.06464C38.242 9.1343 35.0436 17.1903 35.0436 25.05H37.0436ZM82.0936 -5C97.4057 -5 108.471 -1.46776 115.692 4.5376C122.886 10.5209 126.394 19.0664 126.394 29.4H128.394C128.394 18.5836 124.701 9.42912 116.97 2.99989C109.266 -3.40725 97.6814 -7 82.0936 -7V-5ZM126.394 29.4V30.3H128.394V29.4H126.394ZM127.394 29.3H104.744V31.3H127.394V29.3ZM105.744 30.3V28.2H103.744V30.3H105.744ZM105.744 28.2C105.744 25.7236 105.426 23.5145 104.571 21.608C103.706 19.6796 102.318 18.1203 100.285 16.9148C96.297 14.5502 89.8215 13.55 79.8436 13.55V15.55C89.8156 15.55 95.7901 16.5748 99.2648 18.6351C100.963 19.6422 102.059 20.8954 102.746 22.4264C103.442 23.9792 103.744 25.8764 103.744 28.2H105.744ZM79.8436 13.55C71.7267 13.55 66.238 14.3311 62.7546 16.0327C60.9859 16.8968 59.6972 18.0153 58.8613 19.4166C58.028 20.8137 57.6936 22.4099 57.6936 24.15H59.6936C59.6936 22.6651 59.9779 21.4488 60.5789 20.4412C61.1775 19.4378 62.1387 18.5595 63.6325 17.8298C66.6741 16.3439 71.7605 15.55 79.8436 15.55V13.55ZM57.6936 24.15C57.6936 27.2948 58.5988 29.6164 60.7835 31.2986C62.8677 32.9034 66.0096 33.833 70.2178 34.5844L70.5693 32.6156C66.3775 31.867 63.6695 30.9966 62.0037 29.7139C60.4383 28.5086 59.6936 26.8552 59.6936 24.15H57.6936ZM70.236 34.5875L98.436 39.0875L98.7511 37.1125L70.5511 32.6125L70.236 34.5875ZM98.4356 39.0874C109.56 40.8674 116.982 44.4428 121.619 49.1516C126.236 53.8411 128.194 59.7573 128.194 66.45H130.194C130.194 59.3427 128.101 52.8839 123.044 47.7484C118.006 42.6322 110.127 38.9326 98.7515 37.1126L98.4356 39.0874ZM128.194 66.45C128.194 74.3466 125.125 81.8107 118.202 87.324C111.255 92.856 100.329 96.5 84.4936 96.5V98.5C100.608 98.5 112.032 94.794 119.448 88.8885C126.887 82.9643 130.194 74.9034 130.194 66.45H128.194ZM219.206 96V97H220.206V96H219.206ZM136.856 96H135.856V97H136.856V96ZM136.856 -4.5V-5.5H135.856V-4.5H136.856ZM159.356 -4.5H160.356V-5.5H159.356V-4.5ZM159.356 75.75H158.356V76.75H159.356V75.75ZM219.206 75.75H220.206V74.75H219.206V75.75ZM219.206 95H136.856V97H219.206V95ZM137.856 96V-4.5H135.856V96H137.856ZM136.856 -3.5H159.356V-5.5H136.856V-3.5ZM158.356 -4.5V75.75H160.356V-4.5H158.356ZM159.356 76.75H219.206V74.75H159.356V76.75ZM218.206 75.75V96H220.206V75.75H218.206ZM245.213 96V97H245.87L246.131 96.3969L245.213 96ZM220.013 96L219.096 95.5993L218.484 97H220.013V96ZM263.963 -4.5V-5.5H263.309L263.046 -4.90068L263.963 -4.5ZM296.063 -4.5L296.978 -4.90297L296.715 -5.5H296.063V-4.5ZM340.313 96V97H341.846L341.228 95.597L340.313 96ZM314.513 96L313.593 96.3917L313.852 97H314.513V96ZM305.063 73.8L305.983 73.4083L305.724 72.8H305.063V73.8ZM254.813 73.8V72.8H254.156L253.895 73.4031L254.813 73.8ZM272.963 31.65L273.881 32.0462L273.887 32.0316L273.893 32.0168L272.963 31.65ZM263.513 53.55L262.595 53.1538L261.992 54.55H263.513V53.55ZM296.363 53.55V54.55H297.883L297.281 53.1538L296.363 53.55ZM286.913 31.65L285.982 32.0168L285.988 32.0316L285.995 32.0462L286.913 31.65ZM280.763 16.05L281.693 15.6832L281.443 15.05H280.763V16.05ZM279.113 16.05V15.05H278.432L278.182 15.6832L279.113 16.05ZM245.213 95H220.013V97H245.213V95ZM220.929 96.4007L264.879 -4.09933L263.046 -4.90068L219.096 95.5993L220.929 96.4007ZM263.963 -3.5H296.063V-5.5H263.963V-3.5ZM295.147 -4.09703L339.397 96.403L341.228 95.597L296.978 -4.90297L295.147 -4.09703ZM340.313 95H314.513V97H340.313V95ZM315.433 95.6083L305.983 73.4083L304.143 74.1917L313.593 96.3917L315.433 95.6083ZM305.063 72.8H254.813V74.8H305.063V72.8ZM253.895 73.4031L244.295 95.6031L246.131 96.3969L255.731 74.1969L253.895 73.4031ZM272.045 31.2538L262.595 53.1538L264.431 53.9462L273.881 32.0462L272.045 31.2538ZM263.513 54.55H296.363V52.55H263.513V54.55ZM297.281 53.1538L287.831 31.2538L285.995 32.0462L295.445 53.9462L297.281 53.1538ZM287.843 31.2832L281.693 15.6832L279.832 16.4168L285.982 32.0168L287.843 31.2832ZM280.763 15.05H279.113V17.05H280.763V15.05ZM278.182 15.6832L272.032 31.2832L273.893 32.0168L280.043 16.4168L278.182 15.6832ZM366.562 96V97H367.562V96H366.562ZM344.062 96H343.062V97H344.062V96ZM344.062 -4.5V-5.5H343.062V-4.5H344.062ZM374.512 -4.5L375.415 -4.92962L375.143 -5.5H374.512V-4.5ZM398.062 45L398.99 44.6276L398.978 44.5986L398.965 44.5704L398.062 45ZM407.512 68.55L406.583 68.9224L406.835 69.55H407.512V68.55ZM409.162 68.55V69.55H409.846L410.094 68.9122L409.162 68.55ZM418.312 45L417.403 44.5816L417.39 44.6094L417.379 44.6378L418.312 45ZM441.112 -4.5V-5.5H440.471L440.203 -4.91836L441.112 -4.5ZM471.712 -4.5H472.712V-5.5H471.712V-4.5ZM471.712 96V97H472.712V96H471.712ZM449.212 96H448.212V97H449.212V96ZM449.212 45L448.213 44.9524L448.212 44.9762V45H449.212ZM449.962 29.25L450.96 29.2976L451.01 28.25H449.962V29.25ZM448.312 29.25V28.25H447.616L447.374 28.9018L448.312 29.25ZM442.462 45L443.368 45.4229L443.385 45.3862L443.399 45.3482L442.462 45ZM421.462 90V91H422.098L422.368 90.4229L421.462 90ZM394.162 90L393.255 90.4229L393.525 91H394.162V90ZM373.162 45L372.224 45.3482L372.238 45.3862L372.255 45.4229L373.162 45ZM367.312 29.25L368.249 28.9018L368.007 28.25H367.312V29.25ZM365.662 29.25V28.25H364.603L364.663 29.307L365.662 29.25ZM366.562 45H367.562V44.9715L367.56 44.943L366.562 45ZM366.562 95H344.062V97H366.562V95ZM345.062 96V-4.5H343.062V96H345.062ZM344.062 -3.5H374.512V-5.5H344.062V-3.5ZM373.609 -4.07039L397.159 45.4296L398.965 44.5704L375.415 -4.92962L373.609 -4.07039ZM397.133 45.3724L406.583 68.9224L408.44 68.1776L398.99 44.6276L397.133 45.3724ZM407.512 69.55H409.162V67.55H407.512V69.55ZM410.094 68.9122L419.244 45.3622L417.379 44.6378L408.229 68.1878L410.094 68.9122ZM419.22 45.4184L442.02 -4.08164L440.203 -4.91836L417.403 44.5816L419.22 45.4184ZM441.112 -3.5H471.712V-5.5H441.112V-3.5ZM470.712 -4.5V96H472.712V-4.5H470.712ZM471.712 95H449.212V97H471.712V95ZM450.212 96V45H448.212V96H450.212ZM450.21 45.0476L450.96 29.2976L448.963 29.2024L448.213 44.9524L450.21 45.0476ZM449.962 28.25H448.312V30.25H449.962V28.25ZM447.374 28.9018L441.524 44.6518L443.399 45.3482L449.249 29.5982L447.374 28.9018ZM441.555 44.5771L420.555 89.5771L422.368 90.4229L443.368 45.4229L441.555 44.5771ZM421.462 89H394.162V91H421.462V89ZM395.068 89.5771L374.068 44.5771L372.255 45.4229L393.255 90.4229L395.068 89.5771ZM374.099 44.6518L368.249 28.9018L366.374 29.5982L372.224 45.3482L374.099 44.6518ZM367.312 28.25H365.662V30.25H367.312V28.25ZM364.663 29.307L365.563 45.057L367.56 44.943L366.66 29.1929L364.663 29.307ZM365.562 45V96H367.562V45H365.562ZM504.515 96V97H505.515V96H504.515ZM482.015 96H481.015V97H482.015V96ZM482.015 -4.5V-5.5H481.015V-4.5H482.015ZM504.515 -4.5H505.515V-5.5H504.515V-4.5ZM504.515 95H482.015V97H504.515V95ZM483.015 96V-4.5H481.015V96H483.015ZM482.015 -3.5H504.515V-5.5H482.015V-3.5ZM503.515 -4.5V96H505.515V-4.5H503.515ZM617.542 37.35V38.35H618.542V37.35H617.542ZM592.492 37.35H591.492V38.35H592.492V37.35ZM592.492 54.15V53.15H591.492V54.15H592.492ZM617.542 54.15H618.542V53.15H617.542V54.15ZM566.242 96.5C549.873 96.5 536.717 91.4671 527.658 82.6641C518.601 73.8636 513.542 61.2011 513.542 45.75H511.542C511.542 61.6489 516.758 74.8614 526.264 84.0984C535.767 93.3329 549.461 98.5 566.242 98.5V96.5ZM513.542 45.75C513.542 30.2989 518.601 17.6364 527.658 8.83592C536.717 0.0329143 549.873 -5 566.242 -5V-7C549.461 -7 535.767 -1.83292 526.264 7.40157C516.758 16.6386 511.542 29.8511 511.542 45.75H513.542ZM566.242 -5C581.687 -5 594.271 -1.13787 602.97 5.77061C611.644 12.6587 616.542 22.6392 616.542 35.1H618.542C618.542 22.0608 613.39 11.4912 604.214 4.20439C595.063 -3.06214 581.997 -7 566.242 -7V-5ZM616.542 35.1V37.35H618.542V35.1H616.542ZM617.542 36.35H592.492V38.35H617.542V36.35ZM593.492 37.35V35.1H591.492V37.35H593.492ZM593.492 35.1C593.492 28.3049 591.552 23.0843 587.067 19.6095C582.641 16.1807 575.919 14.6 566.692 14.6V16.6C575.765 16.6 581.943 18.1693 585.842 21.1905C589.682 24.1657 591.492 28.6951 591.492 35.1H593.492ZM566.692 14.6C555.596 14.6 547.68 16.5522 542.572 21.5811C537.46 26.6137 535.392 34.497 535.392 45.75H537.392C537.392 34.653 539.449 27.4613 543.975 23.0064C548.504 18.5478 555.738 16.6 566.692 16.6V14.6ZM535.392 45.75C535.392 57.003 537.46 64.8863 542.572 69.9189C547.68 74.9478 555.596 76.9 566.692 76.9V74.9C555.738 74.9 548.504 72.9522 543.975 68.4936C539.449 64.0387 537.392 56.847 537.392 45.75H535.392ZM566.692 76.9C575.919 76.9 582.641 75.3193 587.067 71.8905C591.552 68.4157 593.492 63.1951 593.492 56.4H591.492C591.492 62.8049 589.682 67.3343 585.842 70.3095C581.943 73.3307 575.765 74.9 566.692 74.9V76.9ZM593.492 56.4V54.15H591.492V56.4H593.492ZM592.492 55.15H617.542V53.15H592.492V55.15ZM616.542 54.15V56.4H618.542V54.15H616.542ZM616.542 56.4C616.542 68.8633 611.68 78.8432 603.026 85.73C594.346 92.6374 581.763 96.5 566.242 96.5V98.5C582.071 98.5 595.138 94.5626 604.271 87.295C613.429 80.0068 618.542 69.4367 618.542 56.4H616.542ZM714.036 96V97H714.704L714.96 96.3832L714.036 96ZM681.937 96L681.013 96.3832L681.269 97H681.937V96ZM640.237 -4.5V-5.5H638.739L639.313 -4.11676L640.237 -4.5ZM667.387 -4.5L668.319 -4.86175L668.071 -5.5H667.387V-4.5ZM697.536 73.2L696.604 73.5618L696.852 74.2H697.536V73.2ZM699.036 73.2V74.2H699.725L699.971 73.557L699.036 73.2ZM728.737 -4.5V-5.5H728.048L727.802 -4.85705L728.737 -4.5ZM755.737 -4.5L756.66 -4.11676L757.234 -5.5H755.737V-4.5ZM714.036 95H681.937V97H714.036V95ZM682.86 95.6168L641.16 -4.88325L639.313 -4.11676L681.013 96.3832L682.86 95.6168ZM640.237 -3.5H667.387V-5.5H640.237V-3.5ZM666.454 -4.13825L696.604 73.5618L698.469 72.8382L668.319 -4.86175L666.454 -4.13825ZM697.536 74.2H699.036V72.2H697.536V74.2ZM699.971 73.557L729.671 -4.14296L727.802 -4.85705L698.102 72.843L699.971 73.557ZM728.737 -3.5H755.737V-5.5H728.737V-3.5ZM754.813 -4.88325L713.113 95.6168L714.96 96.3832L756.66 -4.11676L754.813 -4.88325ZM777.472 96V97H778.13L778.39 96.3969L777.472 96ZM752.272 96L751.356 95.5993L750.744 97H752.272V96ZM796.222 -4.5V-5.5H795.568L795.306 -4.90068L796.222 -4.5ZM828.322 -4.5L829.238 -4.90297L828.975 -5.5H828.322V-4.5ZM872.572 96V97H874.105L873.488 95.597L872.572 96ZM846.772 96L845.852 96.3917L846.111 97H846.772V96ZM837.322 73.8L838.243 73.4083L837.984 72.8H837.322V73.8ZM787.072 73.8V72.8H786.415L786.155 73.4031L787.072 73.8ZM805.222 31.65L806.141 32.0462L806.147 32.0316L806.153 32.0168L805.222 31.65ZM795.772 53.55L794.854 53.1538L794.252 54.55H795.772V53.55ZM828.622 53.55V54.55H830.143L829.541 53.1538L828.622 53.55ZM819.172 31.65L818.242 32.0168L818.248 32.0316L818.254 32.0462L819.172 31.65ZM813.022 16.05L813.953 15.6832L813.703 15.05H813.022V16.05ZM811.372 16.05V15.05H810.692L810.442 15.6832L811.372 16.05ZM777.472 95H752.272V97H777.472V95ZM753.189 96.4007L797.139 -4.09933L795.306 -4.90068L751.356 95.5993L753.189 96.4007ZM796.222 -3.5H828.322V-5.5H796.222V-3.5ZM827.407 -4.09703L871.657 96.403L873.488 95.597L829.238 -4.90297L827.407 -4.09703ZM872.572 95H846.772V97H872.572V95ZM847.693 95.6083L838.243 73.4083L836.402 74.1917L845.852 96.3917L847.693 95.6083ZM837.322 72.8H787.072V74.8H837.322V72.8ZM786.155 73.4031L776.555 95.6031L778.39 96.3969L787.99 74.1969L786.155 73.4031ZM804.304 31.2538L794.854 53.1538L796.691 53.9462L806.141 32.0462L804.304 31.2538ZM795.772 54.55H828.622V52.55H795.772V54.55ZM829.541 53.1538L820.091 31.2538L818.254 32.0462L827.704 53.9462L829.541 53.1538ZM820.103 31.2832L813.953 15.6832L812.092 16.4168L818.242 32.0168L820.103 31.2832ZM813.022 15.05H811.372V17.05H813.022V15.05ZM810.442 15.6832L804.292 31.2832L806.153 32.0168L812.303 16.4168L810.442 15.6832ZM979.071 37.35V38.35H980.071V37.35H979.071ZM954.021 37.35H953.021V38.35H954.021V37.35ZM954.021 54.15V53.15H953.021V54.15H954.021ZM979.071 54.15H980.071V53.15H979.071V54.15ZM927.771 96.5C911.403 96.5 898.246 91.4671 889.187 82.6641C880.13 73.8636 875.071 61.2011 875.071 45.75H873.071C873.071 61.6489 878.287 74.8614 887.793 84.0984C897.296 93.3329 910.99 98.5 927.771 98.5V96.5ZM875.071 45.75C875.071 30.2989 880.13 17.6364 889.187 8.83592C898.246 0.0329143 911.403 -5 927.771 -5V-7C910.99 -7 897.296 -1.83292 887.793 7.40157C878.287 16.6386 873.071 29.8511 873.071 45.75H875.071ZM927.771 -5C943.216 -5 955.8 -1.13787 964.499 5.77061C973.173 12.6587 978.071 22.6392 978.071 35.1H980.071C980.071 22.0608 974.919 11.4912 965.743 4.20439C956.593 -3.06214 943.526 -7 927.771 -7V-5ZM978.071 35.1V37.35H980.071V35.1H978.071ZM979.071 36.35H954.021V38.35H979.071V36.35ZM955.021 37.35V35.1H953.021V37.35H955.021ZM955.021 35.1C955.021 28.3049 953.081 23.0843 948.596 19.6095C944.171 16.1807 937.448 14.6 928.221 14.6V16.6C937.295 16.6 943.472 18.1693 947.371 21.1905C951.211 24.1657 953.021 28.6951 953.021 35.1H955.021ZM928.221 14.6C917.126 14.6 909.209 16.5522 904.101 21.5811C898.989 26.6137 896.921 34.497 896.921 45.75H898.921C898.921 34.653 900.979 27.4613 905.504 23.0064C910.033 18.5478 917.267 16.6 928.221 16.6V14.6ZM896.921 45.75C896.921 57.003 898.989 64.8863 904.101 69.9189C909.209 74.9478 917.126 76.9 928.221 76.9V74.9C917.267 74.9 910.033 72.9522 905.504 68.4936C900.979 64.0387 898.921 56.847 898.921 45.75H896.921ZM928.221 76.9C937.448 76.9 944.171 75.3193 948.596 71.8905C953.081 68.4157 955.021 63.1951 955.021 56.4H953.021C953.021 62.8049 951.211 67.3343 947.371 70.3095C943.472 73.3307 937.295 74.9 928.221 74.9V76.9ZM955.021 56.4V54.15H953.021V56.4H955.021ZM954.021 55.15H979.071V53.15H954.021V55.15ZM978.071 54.15V56.4H980.071V54.15H978.071ZM978.071 56.4C978.071 68.8633 973.209 78.8432 964.555 85.73C955.875 92.6374 943.292 96.5 927.771 96.5V98.5C943.6 98.5 956.668 94.5626 965.8 87.295C974.959 80.0068 980.071 69.4367 980.071 56.4H978.071ZM1005.77 96V97H1006.43L1006.69 96.3969L1005.77 96ZM980.571 96L979.655 95.5993L979.043 97H980.571V96ZM1024.52 -4.5V-5.5H1023.87L1023.61 -4.90068L1024.52 -4.5ZM1056.62 -4.5L1057.54 -4.90297L1057.27 -5.5H1056.62V-4.5ZM1100.87 96V97H1102.4L1101.79 95.597L1100.87 96ZM1075.07 96L1074.15 96.3917L1074.41 97H1075.07V96ZM1065.62 73.8L1066.54 73.4083L1066.28 72.8H1065.62V73.8ZM1015.37 73.8V72.8H1014.71L1014.45 73.4031L1015.37 73.8ZM1033.52 31.65L1034.44 32.0462L1034.45 32.0316L1034.45 32.0168L1033.52 31.65ZM1024.07 53.55L1023.15 53.1538L1022.55 54.55H1024.07V53.55ZM1056.92 53.55V54.55H1058.44L1057.84 53.1538L1056.92 53.55ZM1047.47 31.65L1046.54 32.0168L1046.55 32.0316L1046.55 32.0462L1047.47 31.65ZM1041.32 16.05L1042.25 15.6832L1042 15.05H1041.32V16.05ZM1039.67 16.05V15.05H1038.99L1038.74 15.6832L1039.67 16.05ZM1005.77 95H980.571V97H1005.77V95ZM981.487 96.4007L1025.44 -4.09933L1023.61 -4.90068L979.655 95.5993L981.487 96.4007ZM1024.52 -3.5H1056.62V-5.5H1024.52V-3.5ZM1055.71 -4.09703L1099.96 96.403L1101.79 95.597L1057.54 -4.90297L1055.71 -4.09703ZM1100.87 95H1075.07V97H1100.87V95ZM1075.99 95.6083L1066.54 73.4083L1064.7 74.1917L1074.15 96.3917L1075.99 95.6083ZM1065.62 72.8H1015.37V74.8H1065.62V72.8ZM1014.45 73.4031L1004.85 95.6031L1006.69 96.3969L1016.29 74.1969L1014.45 73.4031ZM1032.6 31.2538L1023.15 53.1538L1024.99 53.9462L1034.44 32.0462L1032.6 31.2538ZM1024.07 54.55H1056.92V52.55H1024.07V54.55ZM1057.84 53.1538L1048.39 31.2538L1046.55 32.0462L1056 53.9462L1057.84 53.1538ZM1048.4 31.2832L1042.25 15.6832L1040.39 16.4168L1046.54 32.0168L1048.4 31.2832ZM1041.32 15.05H1039.67V17.05H1041.32V15.05ZM1038.74 15.6832L1032.59 31.2832L1034.45 32.0168L1040.6 16.4168L1038.74 15.6832ZM1160.57 96V97H1161.57V96H1160.57ZM1138.07 96H1137.07V97H1138.07V96ZM1138.07 15.75H1139.07V14.75H1138.07V15.75ZM1100.72 15.75H1099.72V16.75H1100.72V15.75ZM1100.72 -4.5V-5.5H1099.72V-4.5H1100.72ZM1197.92 -4.5H1198.92V-5.5H1197.92V-4.5ZM1197.92 15.75V16.75H1198.92V15.75H1197.92ZM1160.57 15.75V14.75H1159.57V15.75H1160.57ZM1160.57 95H1138.07V97H1160.57V95ZM1139.07 96V15.75H1137.07V96H1139.07ZM1138.07 14.75H1100.72V16.75H1138.07V14.75ZM1101.72 15.75V-4.5H1099.72V15.75H1101.72ZM1100.72 -3.5H1197.92V-5.5H1100.72V-3.5ZM1196.92 -4.5V15.75H1198.92V-4.5H1196.92ZM1197.92 14.75H1160.57V16.75H1197.92V14.75ZM1159.57 15.75V96H1161.57V15.75H1159.57ZM1226.99 96V97H1227.99V96H1226.99ZM1204.49 96H1203.49V97H1204.49V96ZM1204.49 -4.5V-5.5H1203.49V-4.5H1204.49ZM1226.99 -4.5H1227.99V-5.5H1226.99V-4.5ZM1226.99 95H1204.49V97H1226.99V95ZM1205.49 96V-4.5H1203.49V96H1205.49ZM1204.49 -3.5H1226.99V-5.5H1204.49V-3.5ZM1225.99 -4.5V96H1227.99V-4.5H1225.99ZM1289.01 96.5C1272.57 96.5 1259.34 91.4662 1250.22 82.662C1241.11 73.8609 1236.01 61.1989 1236.01 45.75H1234.01C1234.01 61.6511 1239.27 74.8641 1248.83 84.1005C1258.39 93.3338 1272.16 98.5 1289.01 98.5V96.5ZM1236.01 45.75C1236.01 30.3011 1241.11 17.6391 1250.22 8.83803C1259.34 0.0337718 1272.57 -5 1289.01 -5V-7C1272.16 -7 1258.39 -1.83378 1248.83 7.39947C1239.27 16.6359 1234.01 29.8489 1234.01 45.75H1236.01ZM1289.01 -5C1305.84 -5 1319.22 0.0370276 1328.39 8.84011C1337.56 17.6394 1342.61 30.2993 1342.61 45.75H1344.61C1344.61 29.8507 1339.4 16.6356 1329.78 7.39739C1320.16 -1.83703 1306.24 -7 1289.01 -7V-5ZM1342.61 45.75C1342.61 61.2007 1337.56 73.8606 1328.39 82.6599C1319.22 91.463 1305.84 96.5 1289.01 96.5V98.5C1306.24 98.5 1320.16 93.337 1329.78 84.1026C1339.4 74.8644 1344.61 61.6493 1344.61 45.75H1342.61ZM1289.01 76.9C1300.11 76.9 1308.1 74.9473 1313.28 69.9243C1318.47 64.8938 1320.61 57.0108 1320.61 45.75H1318.61C1318.61 56.8392 1316.49 64.0312 1311.89 68.4882C1307.28 72.9527 1299.97 74.9 1289.01 74.9V76.9ZM1320.61 45.75C1320.61 34.4892 1318.47 26.6062 1313.28 21.5757C1308.1 16.5527 1300.11 14.6 1289.01 14.6V16.6C1299.97 16.6 1307.28 18.5473 1311.89 23.0118C1316.49 27.4688 1318.61 34.6608 1318.61 45.75H1320.61ZM1289.01 14.6C1277.92 14.6 1270.04 16.552 1264.97 21.5839C1259.89 26.6175 1257.86 34.5009 1257.86 45.75H1259.86C1259.86 34.6491 1261.89 27.4575 1266.38 23.0036C1270.87 18.548 1278.06 16.6 1289.01 16.6V14.6ZM1257.86 45.75C1257.86 56.9991 1259.89 64.8825 1264.97 69.9161C1270.04 74.948 1277.92 76.9 1289.01 76.9V74.9C1278.06 74.9 1270.87 72.952 1266.38 68.4964C1261.89 64.0425 1259.86 56.8509 1259.86 45.75H1257.86ZM1374.43 96V97H1375.43V96H1374.43ZM1351.93 96H1350.93V97H1351.93V96ZM1351.93 -4.5V-5.5H1350.93V-4.5H1351.93ZM1375.93 -4.5L1376.72 -5.10362L1376.42 -5.5H1375.93V-4.5ZM1411.93 43.05L1412.76 42.5035L1412.75 42.4743L1412.72 42.4464L1411.93 43.05ZM1425.73 64.2L1424.89 64.7464L1425.19 65.2H1425.73V64.2ZM1427.38 64.2V65.2H1428.43L1428.38 64.1482L1427.38 64.2ZM1426.33 43.95H1425.33V43.9759L1425.33 44.0018L1426.33 43.95ZM1426.33 -4.5V-5.5H1425.33V-4.5H1426.33ZM1448.83 -4.5H1449.83V-5.5H1448.83V-4.5ZM1448.83 96V97H1449.83V96H1448.83ZM1424.83 96L1424.04 96.611L1424.34 97H1424.83V96ZM1387.78 48L1386.95 48.5592L1386.97 48.5857L1386.99 48.611L1387.78 48ZM1375.03 29.1L1375.86 28.5408L1375.56 28.1H1375.03V29.1ZM1373.53 29.1V28.1H1372.48L1372.53 29.1487L1373.53 29.1ZM1374.43 47.55H1375.43V47.5256L1375.43 47.5013L1374.43 47.55ZM1374.43 95H1351.93V97H1374.43V95ZM1352.93 96V-4.5H1350.93V96H1352.93ZM1351.93 -3.5H1375.93V-5.5H1351.93V-3.5ZM1375.13 -3.89639L1411.13 43.6536L1412.72 42.4464L1376.72 -5.10362L1375.13 -3.89639ZM1411.09 43.5964L1424.89 64.7464L1426.56 63.6535L1412.76 42.5035L1411.09 43.5964ZM1425.73 65.2H1427.38V63.2H1425.73V65.2ZM1428.38 64.1482L1427.33 43.8982L1425.33 44.0018L1426.38 64.2518L1428.38 64.1482ZM1427.33 43.95V-4.5H1425.33V43.95H1427.33ZM1426.33 -3.5H1448.83V-5.5H1426.33V-3.5ZM1447.83 -4.5V96H1449.83V-4.5H1447.83ZM1448.83 95H1424.83V97H1448.83V95ZM1425.62 95.389L1388.57 47.389L1386.99 48.611L1424.04 96.611L1425.62 95.389ZM1388.61 47.4408L1375.86 28.5408L1374.2 29.6592L1386.95 48.5592L1388.61 47.4408ZM1375.03 28.1H1373.53V30.1H1375.03V28.1ZM1372.53 29.1487L1373.43 47.5987L1375.43 47.5013L1374.53 29.0513L1372.53 29.1487ZM1373.43 47.55V96H1375.43V47.55H1373.43ZM1583.66 37.35V38.35H1584.66V37.35H1583.66ZM1558.61 37.35H1557.61V38.35H1558.61V37.35ZM1558.61 54.15V53.15H1557.61V54.15H1558.61ZM1583.66 54.15H1584.66V53.15H1583.66V54.15ZM1532.36 96.5C1515.99 96.5 1502.83 91.4671 1493.77 82.6641C1484.72 73.8636 1479.66 61.2011 1479.66 45.75H1477.66C1477.66 61.6489 1482.88 74.8614 1492.38 84.0984C1501.88 93.3329 1515.58 98.5 1532.36 98.5V96.5ZM1479.66 45.75C1479.66 30.2989 1484.72 17.6364 1493.77 8.83592C1502.83 0.0329143 1515.99 -5 1532.36 -5V-7C1515.58 -7 1501.88 -1.83292 1492.38 7.40157C1482.88 16.6386 1477.66 29.8511 1477.66 45.75H1479.66ZM1532.36 -5C1547.8 -5 1560.39 -1.13787 1569.09 5.77061C1577.76 12.6587 1582.66 22.6392 1582.66 35.1H1584.66C1584.66 22.0608 1579.51 11.4912 1570.33 4.20439C1561.18 -3.06214 1548.11 -7 1532.36 -7V-5ZM1582.66 35.1V37.35H1584.66V35.1H1582.66ZM1583.66 36.35H1558.61V38.35H1583.66V36.35ZM1559.61 37.35V35.1H1557.61V37.35H1559.61ZM1559.61 35.1C1559.61 28.3049 1557.67 23.0843 1553.18 19.6095C1548.76 16.1807 1542.04 14.6 1532.81 14.6V16.6C1541.88 16.6 1548.06 18.1693 1551.96 21.1905C1555.8 24.1657 1557.61 28.6951 1557.61 35.1H1559.61ZM1532.81 14.6C1521.71 14.6 1513.8 16.5522 1508.69 21.5811C1503.58 26.6137 1501.51 34.497 1501.51 45.75H1503.51C1503.51 34.653 1505.57 27.4613 1510.09 23.0064C1514.62 18.5478 1521.85 16.6 1532.81 16.6V14.6ZM1501.51 45.75C1501.51 57.003 1503.58 64.8863 1508.69 69.9189C1513.8 74.9478 1521.71 76.9 1532.81 76.9V74.9C1521.85 74.9 1514.62 72.9522 1510.09 68.4936C1505.57 64.0387 1503.51 56.847 1503.51 45.75H1501.51ZM1532.81 76.9C1542.04 76.9 1548.76 75.3193 1553.18 71.8905C1557.67 68.4157 1559.61 63.1951 1559.61 56.4H1557.61C1557.61 62.8049 1555.8 67.3343 1551.96 70.3095C1548.06 73.3307 1541.88 74.9 1532.81 74.9V76.9ZM1559.61 56.4V54.15H1557.61V56.4H1559.61ZM1558.61 55.15H1583.66V53.15H1558.61V55.15ZM1582.66 54.15V56.4H1584.66V54.15H1582.66ZM1582.66 56.4C1582.66 68.8633 1577.8 78.8432 1569.14 85.73C1560.46 92.6374 1547.88 96.5 1532.36 96.5V98.5C1548.19 98.5 1561.26 94.5626 1570.39 87.295C1579.55 80.0068 1584.66 69.4367 1584.66 56.4H1582.66ZM1643.66 96.5C1627.21 96.5 1613.98 91.4662 1604.87 82.662C1595.75 73.8609 1590.66 61.1989 1590.66 45.75H1588.66C1588.66 61.6511 1593.91 74.8641 1603.48 84.1005C1613.04 93.3338 1626.8 98.5 1643.66 98.5V96.5ZM1590.66 45.75C1590.66 30.3011 1595.75 17.6391 1604.87 8.83803C1613.98 0.0337718 1627.21 -5 1643.66 -5V-7C1626.8 -7 1613.04 -1.83378 1603.48 7.39947C1593.91 16.6359 1588.66 29.8489 1588.66 45.75H1590.66ZM1643.66 -5C1660.48 -5 1673.87 0.0370276 1683.04 8.84011C1692.2 17.6394 1697.26 30.2993 1697.26 45.75H1699.26C1699.26 29.8507 1694.04 16.6356 1684.42 7.39739C1674.8 -1.83703 1660.88 -7 1643.66 -7V-5ZM1697.26 45.75C1697.26 61.2007 1692.2 73.8606 1683.04 82.6599C1673.87 91.463 1660.48 96.5 1643.66 96.5V98.5C1660.88 98.5 1674.8 93.337 1684.42 84.1026C1694.04 74.8644 1699.26 61.6493 1699.26 45.75H1697.26ZM1643.66 76.9C1654.76 76.9 1662.74 74.9473 1667.92 69.9243C1673.11 64.8938 1675.26 57.0108 1675.26 45.75H1673.26C1673.26 56.8392 1671.13 64.0312 1666.53 68.4882C1661.93 72.9527 1654.61 74.9 1643.66 74.9V76.9ZM1675.26 45.75C1675.26 34.4892 1673.11 26.6062 1667.92 21.5757C1662.74 16.5527 1654.76 14.6 1643.66 14.6V16.6C1654.61 16.6 1661.93 18.5473 1666.53 23.0118C1671.13 27.4688 1673.26 34.6608 1673.26 45.75H1675.26ZM1643.66 14.6C1632.56 14.6 1624.68 16.552 1619.61 21.5839C1614.54 26.6175 1612.51 34.5009 1612.51 45.75H1614.51C1614.51 34.6491 1616.53 27.4575 1621.02 23.0036C1625.51 18.548 1632.7 16.6 1643.66 16.6V14.6ZM1612.51 45.75C1612.51 56.9991 1614.54 64.8825 1619.61 69.9161C1624.68 74.948 1632.56 76.9 1643.66 76.9V74.9C1632.7 74.9 1625.51 72.952 1621.02 68.4964C1616.53 64.0425 1614.51 56.8509 1614.51 45.75H1612.51ZM1705.82 -4.5V-5.5H1704.82V-4.5H1705.82ZM1728.32 -4.5H1729.32V-5.5H1728.32V-4.5ZM1782.02 -4.5V-5.5H1781.02V-4.5H1782.02ZM1804.52 -4.5H1805.52V-5.5H1804.52V-4.5ZM1755.17 96.5C1738.98 96.5 1726.91 92.4149 1718.91 85.1351C1710.91 77.8679 1706.82 67.2898 1706.82 54H1704.82C1704.82 67.7102 1709.06 78.8821 1717.56 86.6149C1726.05 94.3351 1738.66 98.5 1755.17 98.5V96.5ZM1706.82 54V-4.5H1704.82V54H1706.82ZM1705.82 -3.5H1728.32V-5.5H1705.82V-3.5ZM1727.32 -4.5V52.35H1729.32V-4.5H1727.32ZM1727.32 52.35C1727.32 60.9821 1728.94 67.1695 1733.43 71.1371C1737.89 75.0706 1744.93 76.6 1755.17 76.6V74.6C1745.01 74.6 1738.63 73.0544 1734.76 69.6379C1730.93 66.2555 1729.32 60.8179 1729.32 52.35H1727.32ZM1755.17 76.6C1765.48 76.6 1772.53 75.0714 1776.97 71.1357C1781.44 67.1662 1783.02 60.9768 1783.02 52.35H1781.02C1781.02 60.8232 1779.45 66.2588 1775.64 69.6393C1771.79 73.0536 1765.41 74.6 1755.17 74.6V76.6ZM1783.02 52.35V-4.5H1781.02V52.35H1783.02ZM1782.02 -3.5H1804.52V-5.5H1782.02V-3.5ZM1803.52 -4.5V54H1805.52V-4.5H1803.52ZM1803.52 54C1803.52 67.2923 1799.47 77.8698 1791.49 85.1358C1783.5 92.4144 1771.44 96.5 1755.17 96.5V98.5C1771.75 98.5 1784.36 94.3356 1792.84 86.6142C1801.33 78.8802 1805.52 67.7077 1805.52 54H1803.52ZM1836.85 96V97H1837.85V96H1836.85ZM1814.35 96H1813.35V97H1814.35V96ZM1814.35 -4.5V-5.5H1813.35V-4.5H1814.35ZM1880.35 53.55L1880.25 52.5545L1879.35 52.6407V53.55H1880.35ZM1880.35 54.75H1879.35V55.5183L1880.09 55.7162L1880.35 54.75ZM1896.55 69L1895.67 69.4696L1895.67 69.4744L1896.55 69ZM1911.1 96V97H1912.77L1911.98 95.5256L1911.1 96ZM1885 96L1884.11 96.4674L1884.4 97H1885V96ZM1871.2 69.9L1870.31 70.3608L1870.31 70.3674L1871.2 69.9ZM1836.85 59.55V58.55H1835.85V59.55H1836.85ZM1836.85 15.75V14.75H1835.85V15.75H1836.85ZM1836.85 42.6H1835.85V43.6H1836.85V42.6ZM1836.85 95H1814.35V97H1836.85V95ZM1815.35 96V-4.5H1813.35V96H1815.35ZM1814.35 -3.5H1869.85V-5.5H1814.35V-3.5ZM1869.85 -3.5C1882.09 -3.5 1891.56 -0.788751 1897.94 4.16495C1904.29 9.09044 1907.7 16.3201 1907.7 25.65H1909.7C1909.7 15.7799 1906.06 7.93456 1899.17 2.58504C1892.31 -2.73625 1882.35 -5.5 1869.85 -5.5V-3.5ZM1907.7 25.65C1907.7 33.6263 1905.4 39.8718 1900.91 44.3477C1896.4 48.8377 1889.56 51.6682 1880.25 52.5545L1880.44 54.5455C1890.04 53.6318 1897.37 50.6873 1902.32 45.7648C1907.27 40.8282 1909.7 34.0237 1909.7 25.65H1907.7ZM1879.35 53.55V54.75H1881.35V53.55H1879.35ZM1880.09 55.7162C1884.45 56.8783 1887.4 58.602 1889.72 60.8492C1892.06 63.1157 1893.8 65.9608 1895.67 69.4696L1897.43 68.5304C1895.55 64.9892 1893.69 61.9093 1891.11 59.4133C1888.52 56.898 1885.25 55.0217 1880.61 53.7838L1880.09 55.7162ZM1895.67 69.4744L1910.22 96.4744L1911.98 95.5256L1897.43 68.5256L1895.67 69.4744ZM1911.1 95H1885V97H1911.1V95ZM1885.88 95.5326L1872.08 69.4326L1870.31 70.3674L1884.11 96.4674L1885.88 95.5326ZM1872.09 69.4392C1870.03 65.4782 1867.97 62.6807 1864.8 60.9256C1861.67 59.1856 1857.59 58.55 1851.7 58.55V60.55C1857.51 60.55 1861.16 61.1894 1863.83 62.6744C1866.48 64.1443 1868.32 66.5218 1870.31 70.3608L1872.09 69.4392ZM1851.7 58.55H1836.85V60.55H1851.7V58.55ZM1835.85 59.55V96H1837.85V59.55H1835.85ZM1835.85 15.75V42.6H1837.85V15.75H1835.85ZM1836.85 43.6H1869.7V41.6H1836.85V43.6ZM1869.7 43.6C1875.06 43.6 1879.23 42.8578 1882.05 40.5627C1884.92 38.2225 1886.15 34.4765 1886.15 29.1H1884.15C1884.15 34.2235 1882.98 37.2275 1880.79 39.0123C1878.54 40.8422 1874.99 41.6 1869.7 41.6V43.6ZM1886.15 29.1C1886.15 24.0049 1884.91 20.3125 1882.06 17.9429C1879.25 15.6126 1875.09 14.75 1869.7 14.75V16.75C1874.96 16.75 1878.53 17.6124 1880.78 19.4821C1882.99 21.3125 1884.15 24.2951 1884.15 29.1H1886.15ZM1869.7 14.75H1836.85V16.75H1869.7V14.75ZM1914.76 61.2V60.2H1913.76V61.2H1914.76ZM1937.26 61.2H1938.26V60.2H1937.26V61.2ZM1970.71 57.3L1970.88 56.3148L1970.86 56.3123L1970.85 56.3102L1970.71 57.3ZM1942.51 53.25L1942.35 54.2377L1942.36 54.2388L1942.36 54.2398L1942.51 53.25ZM2005.21 30.3V31.3H2006.21V30.3H2005.21ZM1982.56 30.3H1981.56V31.3H1982.56V30.3ZM1948.21 33.6L1948.03 34.5844L1948.04 34.586L1948.05 34.5875L1948.21 33.6ZM1976.41 38.1L1976.56 37.1126L1976.56 37.1125L1976.41 38.1ZM1962.31 96.5C1947.19 96.5 1935.54 93.5171 1927.7 87.7685C1919.91 82.0568 1915.76 73.5261 1915.76 62.1H1913.76C1913.76 74.0739 1918.15 83.2432 1926.52 89.3815C1934.84 95.4829 1946.97 98.5 1962.31 98.5V96.5ZM1915.76 62.1V61.2H1913.76V62.1H1915.76ZM1914.76 62.2H1937.26V60.2H1914.76V62.2ZM1936.26 61.2V63.9H1938.26V61.2H1936.26ZM1936.26 63.9C1936.26 66.2972 1936.55 68.4353 1937.39 70.2765C1938.24 72.1424 1939.61 73.6367 1941.64 74.7829C1945.6 77.0261 1952.11 77.95 1962.31 77.95V75.95C1952.1 75.95 1946.08 74.9989 1942.62 73.0421C1940.94 72.0883 1939.87 70.9013 1939.21 69.4485C1938.54 67.9709 1938.26 66.1528 1938.26 63.9H1936.26ZM1962.31 77.95C1971.3 77.95 1977.05 77.2857 1980.57 75.6647C1982.37 74.836 1983.64 73.7361 1984.44 72.3138C1985.23 70.9073 1985.51 69.2829 1985.51 67.5H1983.51C1983.51 69.0921 1983.26 70.3365 1982.7 71.3347C1982.15 72.317 1981.24 73.1577 1979.74 73.8478C1976.66 75.2643 1971.32 75.95 1962.31 75.95V77.95ZM1985.51 67.5C1985.51 65.8733 1985.28 64.4317 1984.72 63.1625C1984.16 61.8808 1983.28 60.8305 1982.07 59.9579C1979.71 58.2532 1976.05 57.2144 1970.88 56.3148L1970.53 58.2852C1975.71 59.1856 1978.95 60.1717 1980.9 61.5796C1981.85 62.2632 1982.48 63.0411 1982.89 63.9672C1983.3 64.9058 1983.51 66.0517 1983.51 67.5H1985.51ZM1970.85 56.3102L1942.65 52.2602L1942.36 54.2398L1970.56 58.2898L1970.85 56.3102ZM1942.66 52.2623C1933.78 50.8556 1926.83 47.9489 1922.12 43.4863C1917.43 39.049 1914.86 32.9871 1914.86 25.05H1912.86C1912.86 33.4629 1915.61 40.076 1920.74 44.9387C1925.85 49.7761 1933.23 52.7944 1942.35 54.2377L1942.66 52.2623ZM1914.86 25.05C1914.86 17.7596 1917.81 10.2907 1924.85 4.62286C1931.91 -1.05882 1943.18 -5 1959.91 -5V-7C1942.89 -7 1931.12 -2.99118 1923.6 3.06464C1916.05 9.1343 1912.86 17.1903 1912.86 25.05H1914.86ZM1959.91 -5C1975.22 -5 1986.28 -1.46776 1993.5 4.5376C2000.7 10.5209 2004.21 19.0664 2004.21 29.4H2006.21C2006.21 18.5836 2002.51 9.42912 1994.78 2.99989C1987.08 -3.40725 1975.49 -7 1959.91 -7V-5ZM2004.21 29.4V30.3H2006.21V29.4H2004.21ZM2005.21 29.3H1982.56V31.3H2005.21V29.3ZM1983.56 30.3V28.2H1981.56V30.3H1983.56ZM1983.56 28.2C1983.56 25.7236 1983.24 23.5145 1982.38 21.608C1981.52 19.6796 1980.13 18.1203 1978.1 16.9148C1974.11 14.5502 1967.63 13.55 1957.66 13.55V15.55C1967.63 15.55 1973.6 16.5748 1977.08 18.6351C1978.78 19.6422 1979.87 20.8954 1980.56 22.4264C1981.25 23.9792 1981.56 25.8764 1981.56 28.2H1983.56ZM1957.66 13.55C1949.54 13.55 1944.05 14.3311 1940.57 16.0327C1938.8 16.8968 1937.51 18.0153 1936.67 19.4166C1935.84 20.8137 1935.51 22.4099 1935.51 24.15H1937.51C1937.51 22.6651 1937.79 21.4488 1938.39 20.4412C1938.99 19.4378 1939.95 18.5595 1941.44 17.8298C1944.49 16.3439 1949.57 15.55 1957.66 15.55V13.55ZM1935.51 24.15C1935.51 27.2948 1936.41 29.6164 1938.6 31.2986C1940.68 32.9034 1943.82 33.833 1948.03 34.5844L1948.38 32.6156C1944.19 31.867 1941.48 30.9966 1939.82 29.7139C1938.25 28.5086 1937.51 26.8552 1937.51 24.15H1935.51ZM1948.05 34.5875L1976.25 39.0875L1976.56 37.1125L1948.36 32.6125L1948.05 34.5875ZM1976.25 39.0874C1987.37 40.8674 1994.79 44.4428 1999.43 49.1516C2004.05 53.8411 2006.01 59.7573 2006.01 66.45H2008.01C2008.01 59.3427 2005.91 52.8839 2000.86 47.7484C1995.82 42.6322 1987.94 38.9326 1976.56 37.1126L1976.25 39.0874ZM2006.01 66.45C2006.01 74.3466 2002.94 81.8107 1996.01 87.324C1989.07 92.856 1978.14 96.5 1962.31 96.5V98.5C1978.42 98.5 1989.84 94.794 1997.26 88.8885C2004.7 82.9643 2008.01 74.9034 2008.01 66.45H2006.01ZM2099.72 96V97H2100.72V96H2099.72ZM2014.67 96H2013.67V97H2014.67V96ZM2014.67 -4.5V-5.5H2013.67V-4.5H2014.67ZM2099.72 -4.5H2100.72V-5.5H2099.72V-4.5ZM2099.72 15.75V16.75H2100.72V15.75H2099.72ZM2037.17 15.75V14.75H2036.17V15.75H2037.17ZM2037.17 35.4H2036.17V36.4H2037.17V35.4ZM2097.47 35.4H2098.47V34.4H2097.47V35.4ZM2097.47 55.5V56.5H2098.47V55.5H2097.47ZM2037.17 55.5V54.5H2036.17V55.5H2037.17ZM2037.17 75.75H2036.17V76.75H2037.17V75.75ZM2099.72 75.75H2100.72V74.75H2099.72V75.75ZM2099.72 95H2014.67V97H2099.72V95ZM2015.67 96V-4.5H2013.67V96H2015.67ZM2014.67 -3.5H2099.72V-5.5H2014.67V-3.5ZM2098.72 -4.5V15.75H2100.72V-4.5H2098.72ZM2099.72 14.75H2037.17V16.75H2099.72V14.75ZM2036.17 15.75V35.4H2038.17V15.75H2036.17ZM2037.17 36.4H2097.47V34.4H2037.17V36.4ZM2096.47 35.4V55.5H2098.47V35.4H2096.47ZM2097.47 54.5H2037.17V56.5H2097.47V54.5ZM2036.17 55.5V75.75H2038.17V55.5H2036.17ZM2037.17 76.75H2099.72V74.75H2037.17V76.75ZM2098.72 75.75V96H2100.72V75.75H2098.72Z" fill="black"/>
</svg>
