<svg width="202" height="99" viewBox="0 0 202 99" fill="none" xmlns="http://www.w3.org/2000/svg">
<path d="M17.3861 23.7677C17.3861 17.2054 12.0258 11.8839 5.41554 11.8839C12.0258 11.8839 17.3861 6.56235 17.3861 0C17.3861 6.56235 22.7465 11.8839 29.3567 11.8839C22.7465 11.8839 17.3861 17.2054 17.3861 23.7677Z" fill="#00913E"/>
<path d="M88.1666 45.1125C87.1431 46.5682 85.8538 47.2489 84.0889 46.7864C82.2912 46.3142 81.3857 45.0604 81.1495 43.2757C81.0774 42.7383 81.0019 42.2009 80.9265 41.6636C80.2638 36.8762 79.6044 32.092 78.945 27.3046C78.7121 25.6208 77.8067 24.4907 76.1271 24.0999C74.5131 23.7254 73.2402 24.3344 72.2757 25.6404C71.9838 26.0344 71.6852 26.422 71.3867 26.8096C66.1084 33.665 60.8497 40.5367 55.532 47.3629C54.9218 48.1478 54.1082 48.9587 53.2127 49.3007C50.9655 50.1572 48.843 48.6493 48.4625 46.0309C47.7965 41.4649 47.1765 36.8924 46.5795 32.3167C46.3465 30.5125 45.7265 29.0339 43.7877 28.5291C41.8621 28.0276 40.5203 28.9102 39.4968 30.4539C39.3459 30.6818 39.1688 30.8903 39.008 31.1052C33.3229 38.6641 27.6312 46.2198 21.9592 53.7885L24.9543 31.3951C25.22 29.4084 23.8127 27.5814 21.8116 27.3176L16.484 26.6141C10.4741 25.8228 4.95299 30.0174 4.15582 35.9871L0.0322146 66.7829C-0.233507 68.7695 1.17383 70.5965 3.17495 70.8603L8.50251 71.5638C14.5124 72.3552 20.0335 68.1605 20.8307 62.1909L21.6213 56.2799C22.1363 55.5927 22.6547 54.9088 23.1664 54.2216C24.2949 52.717 25.5546 51.6488 27.5787 52.2155C29.5044 52.7561 30.0981 54.2444 30.3311 56.0389C30.9084 60.5071 31.5514 64.9656 32.155 69.4339C32.3879 71.1697 33.0408 72.5962 34.9008 73.088C36.8068 73.5928 38.1453 72.7427 39.2573 71.2609C41.5078 68.2549 43.8074 65.288 46.0907 62.3081C49.4335 57.9441 52.7764 53.5833 56.1258 49.2257C57.1132 47.9426 58.4057 47.3922 60.0165 47.7863C61.5616 48.164 62.4244 49.1997 62.7229 50.7239C62.8279 51.2547 62.9066 51.7921 62.9788 52.3294C63.6513 57.2243 64.3271 62.116 64.9897 67.0108C65.2194 68.7174 65.9739 70.0038 67.7618 70.4402C69.4545 70.8538 70.7372 70.2025 71.7509 68.8574C77.5475 61.1682 83.3606 53.4888 89.1376 45.7834C89.4066 45.4251 89.3902 44.8585 89.5083 44.3895C89.0523 44.624 88.4257 44.7412 88.1666 45.1092V45.1125Z" fill="#00913E"/>
<path d="M110.8 34H107.8V20.6H110.8V34ZM117.43 34.2C114.05 34.2 112.19 32.88 112.19 30.56V30.5H115.19V30.68C115.19 31.58 115.75 31.82 117.45 31.82C119.05 31.82 119.43 31.56 119.43 30.96C119.43 30.4 119.13 30.24 117.95 30.08L115.13 29.74C113.13 29.52 112.01 28.62 112.01 26.94C112.01 25.18 113.51 23.78 116.95 23.78C120.23 23.78 122.09 25.02 122.09 27.46V27.52H119.09V27.4C119.09 26.58 118.69 26.16 116.85 26.16C115.35 26.16 114.97 26.42 114.97 27.06C114.97 27.58 115.25 27.8 116.57 27.96L118.71 28.22C121.39 28.52 122.39 29.42 122.39 31.08C122.39 32.96 120.53 34.2 117.43 34.2ZM126.601 34H123.601V20.6H126.601V34ZM131.251 34.2C129.091 34.2 127.791 33.2 127.791 31.52C127.791 30.04 128.891 29.12 131.031 28.9L135.331 28.46V28.08C135.331 26.78 134.751 26.42 133.151 26.42C131.631 26.42 131.011 26.82 131.011 27.96V28.04H127.991V27.98C127.991 25.5 130.071 23.78 133.371 23.78C136.711 23.78 138.291 25.5 138.291 28.12V34H135.491V31.7H135.331C134.871 33.26 133.471 34.2 131.251 34.2ZM130.811 31.32C130.811 31.86 131.231 32.08 132.111 32.08C134.151 32.08 135.251 31.6 135.331 30.18L131.851 30.58C131.131 30.64 130.811 30.84 130.811 31.32ZM142.812 34H139.812V23.98H142.592V27.02H142.752C142.992 25.34 143.992 23.78 146.512 23.78C148.832 23.78 150.012 25.2 150.232 27.06H150.412C150.652 25.36 151.672 23.78 154.252 23.78C156.832 23.78 158.092 25.48 158.092 27.76V34H155.092V28.76C155.092 27.1 154.512 26.48 152.792 26.48C150.972 26.48 150.452 27.2 150.452 28.94V34H147.452V28.76C147.452 27.1 146.872 26.48 145.152 26.48C143.332 26.48 142.812 27.2 142.812 28.94V34ZM162.616 22.96H159.616V20.6H162.616V22.96ZM162.616 34H159.616V23.98H162.616V34ZM169.527 34.2C166.087 34.2 163.887 32.16 163.887 29C163.887 25.8 166.087 23.78 169.527 23.78C172.747 23.78 174.947 25.5 174.947 28.1V28.38H171.967V28.22C171.967 26.94 171.027 26.48 169.467 26.48C167.687 26.48 166.867 27.14 166.867 29C166.867 30.84 167.687 31.5 169.467 31.5C171.027 31.5 171.967 31.04 171.967 29.76V29.6H174.947V29.88C174.947 32.46 172.747 34.2 169.527 34.2ZM116.68 52H112.4L106.84 38.6H110.46L114.48 48.96H114.68L118.64 38.6H122.24L116.68 52ZM125.958 52.2C123.798 52.2 122.498 51.2 122.498 49.52C122.498 48.04 123.598 47.12 125.738 46.9L130.038 46.46V46.08C130.038 44.78 129.458 44.42 127.858 44.42C126.338 44.42 125.718 44.82 125.718 45.96V46.04H122.698V45.98C122.698 43.5 124.778 41.78 128.078 41.78C131.418 41.78 132.998 43.5 132.998 46.12V52H130.198V49.7H130.038C129.578 51.26 128.178 52.2 125.958 52.2ZM125.518 49.32C125.518 49.86 125.938 50.08 126.818 50.08C128.858 50.08 129.958 49.6 130.038 48.18L126.558 48.58C125.838 48.64 125.518 48.84 125.518 49.32ZM139.859 52.2C136.419 52.2 134.219 50.16 134.219 47C134.219 43.8 136.419 41.78 139.859 41.78C143.079 41.78 145.279 43.5 145.279 46.1V46.38H142.299V46.22C142.299 44.94 141.359 44.48 139.799 44.48C138.019 44.48 137.199 45.14 137.199 47C137.199 48.84 138.019 49.5 139.799 49.5C141.359 49.5 142.299 49.04 142.299 47.76V47.6H145.279V47.88C145.279 50.46 143.079 52.2 139.859 52.2ZM149.65 52.2C147.49 52.2 146.19 51.2 146.19 49.52C146.19 48.04 147.29 47.12 149.43 46.9L153.73 46.46V46.08C153.73 44.78 153.15 44.42 151.55 44.42C150.03 44.42 149.41 44.82 149.41 45.96V46.04H146.39V45.98C146.39 43.5 148.47 41.78 151.77 41.78C155.11 41.78 156.69 43.5 156.69 46.12V52H153.89V49.7H153.73C153.27 51.26 151.87 52.2 149.65 52.2ZM149.21 49.32C149.21 49.86 149.63 50.08 150.51 50.08C152.55 50.08 153.65 49.6 153.73 48.18L150.25 48.58C149.53 48.64 149.21 48.84 149.21 49.32ZM165.27 52H162.79C160.45 52 159.03 50.9 159.03 48.38V44.46H157.45V41.98H159.03V40.04H162.03V41.98H165.27V44.46H162.03V48.04C162.03 49.04 162.41 49.3 163.47 49.3H165.27V52ZM169.394 40.96H166.394V38.6H169.394V40.96ZM169.394 52H166.394V41.98H169.394V52ZM176.304 52.2C172.884 52.2 170.584 50.16 170.584 47C170.584 43.8 172.884 41.78 176.304 41.78C179.724 41.78 182.024 43.8 182.024 47C182.024 50.16 179.724 52.2 176.304 52.2ZM176.304 49.54C178.324 49.54 179.044 48.76 179.044 47C179.044 45.24 178.324 44.42 176.304 44.42C174.264 44.42 173.564 45.24 173.564 47C173.564 48.76 174.264 49.54 176.304 49.54ZM186.249 52H183.249V41.98H186.029V45.06H186.209C186.469 43.38 187.669 41.78 190.289 41.78C193.029 41.78 194.329 43.54 194.329 45.76V52H191.329V46.76C191.329 45.16 190.669 44.48 188.829 44.48C186.929 44.48 186.249 45.24 186.249 46.94V52ZM114.66 70.2C110.24 70.2 107.5 67.48 107.5 63.3C107.5 59.12 110.24 56.4 114.66 56.4C118.82 56.4 121.5 58.48 121.5 61.88V62.18H118.16V61.88C118.16 60.12 117.16 59.28 114.72 59.28C111.78 59.28 110.68 60.32 110.68 63.3C110.68 66.28 111.78 67.32 114.72 67.32C117.16 67.32 118.16 66.48 118.16 64.72V64.42H121.5V64.72C121.5 68.12 118.84 70.2 114.66 70.2ZM128.14 70.2C124.72 70.2 122.42 68.16 122.42 65C122.42 61.8 124.72 59.78 128.14 59.78C131.56 59.78 133.86 61.8 133.86 65C133.86 68.16 131.56 70.2 128.14 70.2ZM128.14 67.54C130.16 67.54 130.88 66.76 130.88 65C130.88 63.24 130.16 62.42 128.14 62.42C126.1 62.42 125.4 63.24 125.4 65C125.4 66.76 126.1 67.54 128.14 67.54ZM139.225 70.2C136.405 70.2 135.065 68.46 135.065 66.22V59.98H138.065V65.22C138.065 66.84 138.745 67.52 140.645 67.52C142.605 67.52 143.305 66.76 143.305 65.06V59.98H146.305V70H143.505V66.94H143.345C143.085 68.62 141.865 70.2 139.225 70.2ZM150.839 70H147.839V59.98H150.619V62.64H150.799C151.079 61.02 152.139 59.78 154.159 59.78C156.399 59.78 157.319 61.32 157.319 63.28V64.94H154.319V63.9C154.319 62.8 153.879 62.32 152.659 62.32C151.319 62.32 150.839 62.94 150.839 64.2V70ZM163.465 70.2C160.085 70.2 158.225 68.88 158.225 66.56V66.5H161.225V66.68C161.225 67.58 161.785 67.82 163.485 67.82C165.085 67.82 165.465 67.56 165.465 66.96C165.465 66.4 165.165 66.24 163.985 66.08L161.165 65.74C159.165 65.52 158.045 64.62 158.045 62.94C158.045 61.18 159.545 59.78 162.985 59.78C166.265 59.78 168.125 61.02 168.125 63.46V63.52H165.125V63.4C165.125 62.58 164.725 62.16 162.885 62.16C161.385 62.16 161.005 62.42 161.005 63.06C161.005 63.58 161.285 63.8 162.605 63.96L164.745 64.22C167.425 64.52 168.425 65.42 168.425 67.08C168.425 68.96 166.565 70.2 163.465 70.2ZM174.956 70.2C171.616 70.2 169.336 68.56 169.336 65C169.336 61.8 171.596 59.78 174.896 59.78C178.176 59.78 180.356 61.5 180.356 64.64C180.356 65 180.316 65.26 180.276 65.6H172.116C172.196 67.14 172.916 67.8 174.856 67.8C176.636 67.8 177.256 67.34 177.256 66.48V66.28H180.256V66.5C180.256 68.68 178.136 70.2 174.956 70.2ZM174.836 62.12C173.056 62.12 172.296 62.72 172.156 64.02H177.476C177.396 62.7 176.596 62.12 174.836 62.12Z" fill="#00913E"/>
<path d="M111.64 16H108.64V6.32H105.2V4.26H105.76C107.24 4.26 108.24 3.92 108.9 2.6H111.64V16ZM119.081 16H116.081V6.32H112.641V4.26H113.201C114.681 4.26 115.681 3.92 116.341 2.6H119.081V16ZM131.683 16H128.683V13.44H120.183V11.4L128.203 2.6H131.683V10.74H133.723V13.44H131.683V16ZM124.363 10.74H128.683V6.06H128.463L124.363 10.52V10.74ZM141.864 16H139.384C137.044 16 135.624 14.9 135.624 12.38V8.46H134.044V5.98H135.624V4.04H138.624V5.98H141.864V8.46H138.624V12.04C138.624 13.04 139.004 13.3 140.064 13.3H141.864V16ZM145.988 16H142.988V2.6H145.988V9.04H146.148C146.468 7.34 147.648 5.78 150.208 5.78C152.908 5.78 154.228 7.54 154.228 9.86V16H151.228V10.76C151.228 9.08 150.508 8.48 148.628 8.48C146.608 8.48 145.988 9.3 145.988 10.98V16Z" fill="black"/>
<path d="M9.605 96.15C7.04 96.15 5.315 94.62 5.315 92.25C5.315 89.85 7.04 88.335 9.605 88.335C12.17 88.335 13.895 89.85 13.895 92.25C13.895 94.62 12.17 96.15 9.605 96.15ZM9.605 94.155C11.12 94.155 11.66 93.57 11.66 92.25C11.66 90.93 11.12 90.315 9.605 90.315C8.075 90.315 7.55 90.93 7.55 92.25C7.55 93.57 8.075 94.155 9.605 94.155ZM17.0639 96H14.8139V88.485H16.8989V90.48H17.0339C17.2439 89.265 18.0389 88.335 19.5539 88.335C21.2339 88.335 21.9239 89.49 21.9239 90.96V92.205H19.6739V91.425C19.6739 90.6 19.3439 90.24 18.4289 90.24C17.4239 90.24 17.0639 90.705 17.0639 91.65V96ZM26.0387 95.235C23.8037 95.235 22.5137 93.9 22.5137 91.785C22.5137 89.685 23.8787 88.335 26.1287 88.335C27.6587 88.335 28.7537 88.995 28.9937 90.3H29.1137V88.485H31.2137V94.905C31.2137 97.53 29.6237 98.7 26.9387 98.7C24.5087 98.7 22.9787 97.62 22.9787 95.73H25.2287C25.2287 96.57 25.5587 96.825 27.0887 96.825C28.5287 96.825 28.9637 96.525 28.9637 95.055V93.36H28.8437C28.6037 94.47 27.7187 95.235 26.0387 95.235ZM24.7787 91.785C24.7787 92.895 25.4087 93.3 26.8187 93.3C28.2587 93.3 28.9637 92.895 28.9637 91.86V91.695C28.9637 90.675 28.2437 90.285 26.8487 90.285C25.4087 90.285 24.7787 90.675 24.7787 91.785ZM34.7166 96.15C33.0966 96.15 32.1216 95.4 32.1216 94.14C32.1216 93.03 32.9466 92.34 34.5516 92.175L37.7766 91.845V91.56C37.7766 90.585 37.3416 90.315 36.1416 90.315C35.0016 90.315 34.5366 90.615 34.5366 91.47V91.53H32.2716V91.485C32.2716 89.625 33.8316 88.335 36.3066 88.335C38.8116 88.335 39.9966 89.625 39.9966 91.59V96H37.8966V94.275H37.7766C37.4316 95.445 36.3816 96.15 34.7166 96.15ZM34.3866 93.99C34.3866 94.395 34.7016 94.56 35.3616 94.56C36.8916 94.56 37.7166 94.2 37.7766 93.135L35.1666 93.435C34.6266 93.48 34.3866 93.63 34.3866 93.99ZM43.3871 96H41.1371V88.485H43.2221V90.795H43.3571C43.5521 89.535 44.4521 88.335 46.4171 88.335C48.4721 88.335 49.4471 89.655 49.4471 91.32V96H47.1971V92.07C47.1971 90.87 46.7021 90.36 45.3221 90.36C43.8971 90.36 43.3871 90.93 43.3871 92.205V96ZM52.8354 87.72H50.5854V85.95H52.8354V87.72ZM52.8354 96H50.5854V88.485H52.8354V96ZM57.8081 96.15C55.2731 96.15 53.8781 95.16 53.8781 93.42V93.375H56.1281V93.51C56.1281 94.185 56.5481 94.365 57.8231 94.365C59.0231 94.365 59.3081 94.17 59.3081 93.72C59.3081 93.3 59.0831 93.18 58.1981 93.06L56.0831 92.805C54.5831 92.64 53.7431 91.965 53.7431 90.705C53.7431 89.385 54.8681 88.335 57.4481 88.335C59.9081 88.335 61.3031 89.265 61.3031 91.095V91.14H59.0531V91.05C59.0531 90.435 58.7531 90.12 57.3731 90.12C56.2481 90.12 55.9631 90.315 55.9631 90.795C55.9631 91.185 56.1731 91.35 57.1631 91.47L58.7681 91.665C60.7781 91.89 61.5281 92.565 61.5281 93.81C61.5281 95.22 60.1331 96.15 57.8081 96.15ZM66.4259 96.15C63.9209 96.15 62.2109 94.92 62.2109 92.25C62.2109 89.85 63.9059 88.335 66.3809 88.335C68.8409 88.335 70.4759 89.625 70.4759 91.98C70.4759 92.25 70.4459 92.445 70.4159 92.7H64.2959C64.3559 93.855 64.8959 94.35 66.3509 94.35C67.6859 94.35 68.1509 94.005 68.1509 93.36V93.21H70.4009V93.375C70.4009 95.01 68.8109 96.15 66.4259 96.15ZM66.3359 90.09C65.0009 90.09 64.4309 90.54 64.3259 91.515H68.3159C68.2559 90.525 67.6559 90.09 66.3359 90.09ZM74.7901 96.15C72.4501 96.15 71.1601 94.62 71.1601 92.25C71.1601 89.85 72.4351 88.335 74.6701 88.335C76.4551 88.335 77.3701 89.22 77.6251 90.48H77.7601V85.95H80.0101V96H77.9101V93.915H77.7901C77.5051 95.4 76.5151 96.15 74.7901 96.15ZM73.4401 92.25C73.4401 93.615 74.1151 94.095 75.5551 94.095C76.9801 94.095 77.7601 93.6 77.7601 92.295V92.175C77.7601 90.87 76.9951 90.39 75.5551 90.39C74.1151 90.39 73.4401 90.87 73.4401 92.25ZM85.6 96H83.515V85.95H85.765V90.48H85.885C86.14 89.22 87.055 88.335 88.84 88.335C91.09 88.335 92.35 89.85 92.35 92.25C92.35 94.62 91.075 96.15 88.735 96.15C86.995 96.15 86.005 95.4 85.735 93.915H85.6V96ZM85.765 92.295C85.765 93.6 86.53 94.095 87.955 94.095C89.41 94.095 90.07 93.615 90.07 92.25C90.07 90.87 89.41 90.39 87.97 90.39C86.515 90.39 85.765 90.87 85.765 92.175V92.295ZM94.7255 98.55H93.4955V96.51H95.3405C95.8955 96.51 96.1355 96.36 96.2855 96.03L92.6105 88.485H95.1605L96.7505 91.92L97.3805 93.69H97.5305L98.1305 91.905L99.5555 88.485H102.061L98.3405 96.54C97.6205 98.115 96.6155 98.55 94.7255 98.55ZM107.166 96H104.916V85.95H107.961L110.316 90.9L111.261 93.255H111.426L112.341 90.9L114.621 85.95H117.681V96H115.431V90.9L115.506 89.325H115.341L114.756 90.9L112.656 95.4H109.926L107.826 90.9L107.241 89.325H107.076L107.166 90.9V96ZM123.422 96.15C120.377 96.15 118.667 94.95 118.667 92.61V92.52H120.917V92.79C120.917 93.72 121.382 94.095 123.422 94.095C125.222 94.095 125.642 93.825 125.642 93.15C125.642 92.535 125.297 92.31 124.262 92.13L121.442 91.725C119.642 91.44 118.577 90.54 118.577 88.905C118.577 87.39 119.807 85.8 123.182 85.8C126.272 85.8 127.712 87.225 127.712 89.34V89.43H125.447V89.22C125.447 88.26 124.952 87.855 122.957 87.855C121.337 87.855 120.842 88.17 120.842 88.815C120.842 89.4 121.172 89.61 122.012 89.76L124.832 90.21C127.082 90.57 127.892 91.665 127.892 93.045C127.892 94.68 126.617 96.15 123.422 96.15ZM133.368 96.15C130.323 96.15 128.613 94.95 128.613 92.61V92.52H130.863V92.79C130.863 93.72 131.328 94.095 133.368 94.095C135.168 94.095 135.588 93.825 135.588 93.15C135.588 92.535 135.243 92.31 134.208 92.13L131.388 91.725C129.588 91.44 128.523 90.54 128.523 88.905C128.523 87.39 129.753 85.8 133.128 85.8C136.218 85.8 137.658 87.225 137.658 89.34V89.43H135.393V89.22C135.393 88.26 134.898 87.855 132.903 87.855C131.283 87.855 130.788 88.17 130.788 88.815C130.788 89.4 131.118 89.61 131.958 89.76L134.778 90.21C137.028 90.57 137.838 91.665 137.838 93.045C137.838 94.68 136.563 96.15 133.368 96.15ZM141.004 96H138.754V85.95H141.154L144.754 90.705L146.134 92.82H146.299L146.194 90.795V85.95H148.444V96H146.044L142.339 91.2L141.064 89.31H140.914L141.004 91.155V96ZM160.188 96H151.953V85.95H154.203V93.975H160.188V96ZM163.403 96.15C161.783 96.15 160.808 95.4 160.808 94.14C160.808 93.03 161.633 92.34 163.238 92.175L166.463 91.845V91.56C166.463 90.585 166.028 90.315 164.828 90.315C163.688 90.315 163.223 90.615 163.223 91.47V91.53H160.958V91.485C160.958 89.625 162.518 88.335 164.993 88.335C167.498 88.335 168.683 89.625 168.683 91.59V96H166.583V94.275H166.463C166.118 95.445 165.068 96.15 163.403 96.15ZM163.073 93.99C163.073 94.395 163.388 94.56 164.048 94.56C165.578 94.56 166.403 94.2 166.463 93.135L163.853 93.435C163.313 93.48 163.073 93.63 163.073 93.99ZM173.124 95.235C170.889 95.235 169.599 93.9 169.599 91.785C169.599 89.685 170.964 88.335 173.214 88.335C174.744 88.335 175.839 88.995 176.079 90.3H176.199V88.485H178.299V94.905C178.299 97.53 176.709 98.7 174.024 98.7C171.594 98.7 170.064 97.62 170.064 95.73H172.314C172.314 96.57 172.644 96.825 174.174 96.825C175.614 96.825 176.049 96.525 176.049 95.055V93.36H175.929C175.689 94.47 174.804 95.235 173.124 95.235ZM171.864 91.785C171.864 92.895 172.494 93.3 173.904 93.3C175.344 93.3 176.049 92.895 176.049 91.86V91.695C176.049 90.675 175.329 90.285 173.934 90.285C172.494 90.285 171.864 90.675 171.864 91.785ZM183.497 96.15C180.932 96.15 179.207 94.62 179.207 92.25C179.207 89.85 180.932 88.335 183.497 88.335C186.062 88.335 187.787 89.85 187.787 92.25C187.787 94.62 186.062 96.15 183.497 96.15ZM183.497 94.155C185.012 94.155 185.552 93.57 185.552 92.25C185.552 90.93 185.012 90.315 183.497 90.315C181.967 90.315 181.442 90.93 181.442 92.25C181.442 93.57 181.967 94.155 183.497 94.155ZM192.5 96.15C189.965 96.15 188.57 95.16 188.57 93.42V93.375H190.82V93.51C190.82 94.185 191.24 94.365 192.515 94.365C193.715 94.365 194 94.17 194 93.72C194 93.3 193.775 93.18 192.89 93.06L190.775 92.805C189.275 92.64 188.435 91.965 188.435 90.705C188.435 89.385 189.56 88.335 192.14 88.335C194.6 88.335 195.995 89.265 195.995 91.095V91.14H193.745V91.05C193.745 90.435 193.445 90.12 192.065 90.12C190.94 90.12 190.655 90.315 190.655 90.795C190.655 91.185 190.865 91.35 191.855 91.47L193.46 91.665C195.47 91.89 196.22 92.565 196.22 93.81C196.22 95.22 194.825 96.15 192.5 96.15Z" fill="black"/>
</svg>
