<svg width="394" height="102" viewBox="0 0 394 102" fill="none" xmlns="http://www.w3.org/2000/svg">
<path d="M17.3861 38.1506C17.3861 31.5882 12.0258 26.2667 5.41554 26.2667C12.0258 26.2667 17.3861 20.9452 17.3861 14.3828C17.3861 20.9452 22.7465 26.2667 29.3567 26.2667C22.7465 26.2667 17.3861 31.5882 17.3861 38.1506Z" fill="#E5FF2D"/>
<path d="M88.1666 59.4953C87.1431 60.9511 85.8538 61.6317 84.0889 61.1693C82.2912 60.697 81.3857 59.4432 81.1495 57.6585C81.0774 57.1211 81.0019 56.5838 80.9265 56.0464C80.2638 51.259 79.6044 46.4748 78.945 41.6874C78.7121 40.0037 77.8067 38.8736 76.1271 38.4827C74.5131 38.1082 73.2402 38.7172 72.2757 40.0232C71.9838 40.4173 71.6852 40.8048 71.3867 41.1924C66.1084 48.0478 60.8497 54.9196 55.532 61.7457C54.9218 62.5306 54.1082 63.3415 53.2127 63.6835C50.9655 64.54 48.843 63.0321 48.4625 60.4137C47.7965 55.8477 47.1765 51.2753 46.5795 46.6995C46.3465 44.8953 45.7265 43.4167 43.7877 42.9119C41.8621 42.4104 40.5203 43.293 39.4968 44.8367C39.3459 45.0646 39.1688 45.2731 39.008 45.488C33.3229 53.0469 27.6312 60.6026 21.9592 68.1713L24.9543 45.7779C25.22 43.7912 23.8127 41.9642 21.8116 41.7004L16.484 40.997C10.4741 40.2056 4.95299 44.4003 4.15582 50.3699L0.0322146 81.1657C-0.233507 83.1523 1.17383 84.9793 3.17495 85.2431L8.50251 85.9466C14.5124 86.738 20.0335 82.5433 20.8307 76.5737L21.6213 70.6627C22.1363 69.9755 22.6547 69.2916 23.1664 68.6044C24.2949 67.0998 25.5546 66.0316 27.5787 66.5983C29.5044 67.1389 30.0981 68.6272 30.3311 70.4217C30.9084 74.8899 31.5514 79.3484 32.155 83.8167C32.3879 85.5525 33.0408 86.979 34.9008 87.4708C36.8068 87.9756 38.1453 87.1255 39.2573 85.6437C41.5078 82.6377 43.8074 79.6708 46.0907 76.6909C49.4335 72.3269 52.7764 67.9661 56.1258 63.6086C57.1132 62.3254 58.4057 61.775 60.0165 62.1691C61.5616 62.5469 62.4244 63.5825 62.7229 65.1067C62.8279 65.6375 62.9066 66.1749 62.9788 66.7122C63.6513 71.6071 64.3271 76.4988 64.9897 81.3937C65.2194 83.1002 65.9739 84.3866 67.7618 84.823C69.4545 85.2366 70.7372 84.5853 71.7509 83.2402C77.5475 75.5511 83.3606 67.8717 89.1376 60.1662C89.4066 59.8079 89.3902 59.2413 89.5083 58.7723C89.0523 59.0068 88.4257 59.124 88.1666 59.492V59.4953Z" fill="#E5FF2D"/>
<path d="M104.64 30.3828H101.64V20.7028H98.2V18.6428H98.76C100.24 18.6428 101.24 18.3028 101.9 16.9828H104.64V30.3828ZM112.081 30.3828H109.081V20.7028H105.641V18.6428H106.201C107.681 18.6428 108.681 18.3028 109.341 16.9828H112.081V30.3828ZM124.683 30.3828H121.683V27.8228H113.183V25.7828L121.203 16.9828H124.683V25.1228H126.723V27.8228H124.683V30.3828ZM117.363 25.1228H121.683V20.4428H121.463L117.363 24.9028V25.1228ZM134.864 30.3828H132.384C130.044 30.3828 128.624 29.2828 128.624 26.7628V22.8428H127.044V20.3628H128.624V18.4228H131.624V20.3628H134.864V22.8428H131.624V26.4228C131.624 27.4228 132.004 27.6828 133.064 27.6828H134.864V30.3828ZM138.988 30.3828H135.988V16.9828H138.988V23.4228H139.148C139.468 21.7228 140.648 20.1628 143.208 20.1628C145.908 20.1628 147.228 21.9228 147.228 24.2428V30.3828H144.228V25.1428C144.228 23.4628 143.508 22.8628 141.628 22.8628C139.608 22.8628 138.988 23.6828 138.988 25.3628V30.3828Z" fill="white"/>
<path d="M101.8 48.3828H98.8V34.9828H101.8V48.3828ZM108.43 48.5828C105.05 48.5828 103.19 47.2628 103.19 44.9428V44.8828H106.19V45.0628C106.19 45.9628 106.75 46.2028 108.45 46.2028C110.05 46.2028 110.43 45.9428 110.43 45.3428C110.43 44.7828 110.13 44.6228 108.95 44.4628L106.13 44.1228C104.13 43.9028 103.01 43.0028 103.01 41.3228C103.01 39.5628 104.51 38.1628 107.95 38.1628C111.23 38.1628 113.09 39.4028 113.09 41.8428V41.9028H110.09V41.7828C110.09 40.9628 109.69 40.5428 107.85 40.5428C106.35 40.5428 105.97 40.8028 105.97 41.4428C105.97 41.9628 106.25 42.1828 107.57 42.3428L109.71 42.6028C112.39 42.9028 113.39 43.8028 113.39 45.4628C113.39 47.3428 111.53 48.5828 108.43 48.5828ZM117.601 48.3828H114.601V34.9828H117.601V48.3828ZM122.251 48.5828C120.091 48.5828 118.791 47.5828 118.791 45.9028C118.791 44.4228 119.891 43.5028 122.031 43.2828L126.331 42.8428V42.4628C126.331 41.1628 125.751 40.8028 124.151 40.8028C122.631 40.8028 122.011 41.2028 122.011 42.3428V42.4228H118.991V42.3628C118.991 39.8828 121.071 38.1628 124.371 38.1628C127.711 38.1628 129.291 39.8828 129.291 42.5028V48.3828H126.491V46.0828H126.331C125.871 47.6428 124.471 48.5828 122.251 48.5828ZM121.811 45.7028C121.811 46.2428 122.231 46.4628 123.111 46.4628C125.151 46.4628 126.251 45.9828 126.331 44.5628L122.851 44.9628C122.131 45.0228 121.811 45.2228 121.811 45.7028ZM133.812 48.3828H130.812V38.3628H133.592V41.4028H133.752C133.992 39.7228 134.992 38.1628 137.512 38.1628C139.832 38.1628 141.012 39.5828 141.232 41.4428H141.412C141.652 39.7428 142.672 38.1628 145.252 38.1628C147.832 38.1628 149.092 39.8628 149.092 42.1428V48.3828H146.092V43.1428C146.092 41.4828 145.512 40.8628 143.792 40.8628C141.972 40.8628 141.452 41.5828 141.452 43.3228V48.3828H138.452V43.1428C138.452 41.4828 137.872 40.8628 136.152 40.8628C134.332 40.8628 133.812 41.5828 133.812 43.3228V48.3828ZM153.616 37.3428H150.616V34.9828H153.616V37.3428ZM153.616 48.3828H150.616V38.3628H153.616V48.3828ZM160.527 48.5828C157.087 48.5828 154.887 46.5428 154.887 43.3828C154.887 40.1828 157.087 38.1628 160.527 38.1628C163.747 38.1628 165.947 39.8828 165.947 42.4828V42.7628H162.967V42.6028C162.967 41.3228 162.027 40.8628 160.467 40.8628C158.687 40.8628 157.867 41.5228 157.867 43.3828C157.867 45.2228 158.687 45.8828 160.467 45.8828C162.027 45.8828 162.967 45.4228 162.967 44.1428V43.9828H165.947V44.2628C165.947 46.8428 163.747 48.5828 160.527 48.5828ZM107.68 66.3828H103.4L97.84 52.9828H101.46L105.48 63.3428H105.68L109.64 52.9828H113.24L107.68 66.3828ZM116.958 66.5828C114.798 66.5828 113.498 65.5828 113.498 63.9028C113.498 62.4228 114.598 61.5028 116.738 61.2828L121.038 60.8428V60.4628C121.038 59.1628 120.458 58.8028 118.858 58.8028C117.338 58.8028 116.718 59.2028 116.718 60.3428V60.4228H113.698V60.3628C113.698 57.8828 115.778 56.1628 119.078 56.1628C122.418 56.1628 123.998 57.8828 123.998 60.5028V66.3828H121.198V64.0828H121.038C120.578 65.6428 119.178 66.5828 116.958 66.5828ZM116.518 63.7028C116.518 64.2428 116.938 64.4628 117.818 64.4628C119.858 64.4628 120.958 63.9828 121.038 62.5628L117.558 62.9628C116.838 63.0228 116.518 63.2228 116.518 63.7028ZM130.859 66.5828C127.419 66.5828 125.219 64.5428 125.219 61.3828C125.219 58.1828 127.419 56.1628 130.859 56.1628C134.079 56.1628 136.279 57.8828 136.279 60.4828V60.7628H133.299V60.6028C133.299 59.3228 132.359 58.8628 130.799 58.8628C129.019 58.8628 128.199 59.5228 128.199 61.3828C128.199 63.2228 129.019 63.8828 130.799 63.8828C132.359 63.8828 133.299 63.4228 133.299 62.1428V61.9828H136.279V62.2628C136.279 64.8428 134.079 66.5828 130.859 66.5828ZM140.65 66.5828C138.49 66.5828 137.19 65.5828 137.19 63.9028C137.19 62.4228 138.29 61.5028 140.43 61.2828L144.73 60.8428V60.4628C144.73 59.1628 144.15 58.8028 142.55 58.8028C141.03 58.8028 140.41 59.2028 140.41 60.3428V60.4228H137.39V60.3628C137.39 57.8828 139.47 56.1628 142.77 56.1628C146.11 56.1628 147.69 57.8828 147.69 60.5028V66.3828H144.89V64.0828H144.73C144.27 65.6428 142.87 66.5828 140.65 66.5828ZM140.21 63.7028C140.21 64.2428 140.63 64.4628 141.51 64.4628C143.55 64.4628 144.65 63.9828 144.73 62.5628L141.25 62.9628C140.53 63.0228 140.21 63.2228 140.21 63.7028ZM156.27 66.3828H153.79C151.45 66.3828 150.03 65.2828 150.03 62.7628V58.8428H148.45V56.3628H150.03V54.4228H153.03V56.3628H156.27V58.8428H153.03V62.4228C153.03 63.4228 153.41 63.6828 154.47 63.6828H156.27V66.3828ZM160.394 55.3428H157.394V52.9828H160.394V55.3428ZM160.394 66.3828H157.394V56.3628H160.394V66.3828ZM167.304 66.5828C163.884 66.5828 161.584 64.5428 161.584 61.3828C161.584 58.1828 163.884 56.1628 167.304 56.1628C170.724 56.1628 173.024 58.1828 173.024 61.3828C173.024 64.5428 170.724 66.5828 167.304 66.5828ZM167.304 63.9228C169.324 63.9228 170.044 63.1428 170.044 61.3828C170.044 59.6228 169.324 58.8028 167.304 58.8028C165.264 58.8028 164.564 59.6228 164.564 61.3828C164.564 63.1428 165.264 63.9228 167.304 63.9228ZM177.249 66.3828H174.249V56.3628H177.029V59.4428H177.209C177.469 57.7628 178.669 56.1628 181.289 56.1628C184.029 56.1628 185.329 57.9228 185.329 60.1428V66.3828H182.329V61.1428C182.329 59.5428 181.669 58.8628 179.829 58.8628C177.929 58.8628 177.249 59.6228 177.249 61.3228V66.3828ZM105.66 84.5828C101.24 84.5828 98.5 81.8628 98.5 77.6828C98.5 73.5028 101.24 70.7828 105.66 70.7828C109.82 70.7828 112.5 72.8628 112.5 76.2628V76.5628H109.16V76.2628C109.16 74.5028 108.16 73.6628 105.72 73.6628C102.78 73.6628 101.68 74.7028 101.68 77.6828C101.68 80.6628 102.78 81.7028 105.72 81.7028C108.16 81.7028 109.16 80.8628 109.16 79.1028V78.8028H112.5V79.1028C112.5 82.5028 109.84 84.5828 105.66 84.5828ZM119.14 84.5828C115.72 84.5828 113.42 82.5428 113.42 79.3828C113.42 76.1828 115.72 74.1628 119.14 74.1628C122.56 74.1628 124.86 76.1828 124.86 79.3828C124.86 82.5428 122.56 84.5828 119.14 84.5828ZM119.14 81.9228C121.16 81.9228 121.88 81.1428 121.88 79.3828C121.88 77.6228 121.16 76.8028 119.14 76.8028C117.1 76.8028 116.4 77.6228 116.4 79.3828C116.4 81.1428 117.1 81.9228 119.14 81.9228ZM130.225 84.5828C127.405 84.5828 126.065 82.8428 126.065 80.6028V74.3628H129.065V79.6028C129.065 81.2228 129.745 81.9028 131.645 81.9028C133.605 81.9028 134.305 81.1428 134.305 79.4428V74.3628H137.305V84.3828H134.505V81.3228H134.345C134.085 83.0028 132.865 84.5828 130.225 84.5828ZM141.839 84.3828H138.839V74.3628H141.619V77.0228H141.799C142.079 75.4028 143.139 74.1628 145.159 74.1628C147.399 74.1628 148.319 75.7028 148.319 77.6628V79.3228H145.319V78.2828C145.319 77.1828 144.879 76.7028 143.659 76.7028C142.319 76.7028 141.839 77.3228 141.839 78.5828V84.3828ZM154.465 84.5828C151.085 84.5828 149.225 83.2628 149.225 80.9428V80.8828H152.225V81.0628C152.225 81.9628 152.785 82.2028 154.485 82.2028C156.085 82.2028 156.465 81.9428 156.465 81.3428C156.465 80.7828 156.165 80.6228 154.985 80.4628L152.165 80.1228C150.165 79.9028 149.045 79.0028 149.045 77.3228C149.045 75.5628 150.545 74.1628 153.985 74.1628C157.265 74.1628 159.125 75.4028 159.125 77.8428V77.9028H156.125V77.7828C156.125 76.9628 155.725 76.5428 153.885 76.5428C152.385 76.5428 152.005 76.8028 152.005 77.4428C152.005 77.9628 152.285 78.1828 153.605 78.3428L155.745 78.6028C158.425 78.9028 159.425 79.8028 159.425 81.4628C159.425 83.3428 157.565 84.5828 154.465 84.5828ZM165.956 84.5828C162.616 84.5828 160.336 82.9428 160.336 79.3828C160.336 76.1828 162.596 74.1628 165.896 74.1628C169.176 74.1628 171.356 75.8828 171.356 79.0228C171.356 79.3828 171.316 79.6428 171.276 79.9828H163.116C163.196 81.5228 163.916 82.1828 165.856 82.1828C167.636 82.1828 168.256 81.7228 168.256 80.8628V80.6628H171.256V80.8828C171.256 83.0628 169.136 84.5828 165.956 84.5828ZM165.836 76.5028C164.056 76.5028 163.296 77.1028 163.156 78.4028H168.476C168.396 77.0828 167.596 76.5028 165.836 76.5028Z" fill="#E5FF2D"/>
<line x1="216" y1="91" x2="216" y2="11" stroke="#E5FF2D" stroke-width="2"/>
<path d="M247.725 40.5H244.125V24.42H248.997L252.765 32.34L254.277 36.108H254.541L256.005 32.34L259.653 24.42H264.549V40.5H260.949V32.34L261.069 29.82H260.805L259.869 32.34L256.509 39.54H252.141L248.781 32.34L247.845 29.82H247.581L247.725 32.34V40.5ZM273.494 40.74C268.622 40.74 265.886 38.82 265.886 35.076V34.932H269.486V35.364C269.486 36.852 270.23 37.452 273.494 37.452C276.374 37.452 277.046 37.02 277.046 35.94C277.046 34.956 276.494 34.596 274.838 34.308L270.326 33.66C267.446 33.204 265.742 31.764 265.742 29.148C265.742 26.724 267.71 24.18 273.11 24.18C278.054 24.18 280.358 26.46 280.358 29.844V29.988H276.734V29.652C276.734 28.116 275.942 27.468 272.75 27.468C270.158 27.468 269.366 27.972 269.366 29.004C269.366 29.94 269.894 30.276 271.238 30.516L275.75 31.236C279.35 31.812 280.646 33.564 280.646 35.772C280.646 38.388 278.606 40.74 273.494 40.74ZM289.168 40.74C284.296 40.74 281.56 38.82 281.56 35.076V34.932H285.16V35.364C285.16 36.852 285.904 37.452 289.168 37.452C292.048 37.452 292.72 37.02 292.72 35.94C292.72 34.956 292.168 34.596 290.512 34.308L286 33.66C283.12 33.204 281.416 31.764 281.416 29.148C281.416 26.724 283.384 24.18 288.784 24.18C293.728 24.18 296.032 26.46 296.032 29.844V29.988H292.408V29.652C292.408 28.116 291.616 27.468 288.424 27.468C285.832 27.468 285.04 27.972 285.04 29.004C285.04 29.94 285.568 30.276 286.912 30.516L291.424 31.236C295.024 31.812 296.32 33.564 296.32 35.772C296.32 38.388 294.28 40.74 289.168 40.74ZM301.146 40.5H297.546V24.42H301.386L307.146 32.028L309.354 35.412H309.618L309.45 32.172V24.42H313.05V40.5H309.21L303.282 32.82L301.242 29.796H301.002L301.146 32.748V40.5Z" fill="white"/>
<path d="M248.877 55.5H242.104V46.79H243.508V54.239H248.877V55.5ZM251.553 55.63C250.214 55.63 249.369 55.006 249.369 53.94C249.369 52.939 250.175 52.419 251.449 52.276L254.387 51.964V51.587C254.387 50.521 253.919 50.144 252.684 50.144C251.488 50.144 250.903 50.534 250.903 51.483V51.535H249.512V51.483C249.512 50.014 250.734 48.909 252.788 48.909C254.842 48.909 255.765 50.027 255.765 51.574V55.5H254.478V53.888H254.387C254.049 54.98 253.022 55.63 251.553 55.63ZM250.773 53.849C250.773 54.369 251.124 54.616 251.93 54.616C253.399 54.616 254.387 54.07 254.387 52.796L251.852 53.082C251.124 53.173 250.773 53.342 250.773 53.849ZM259.696 54.915C257.772 54.915 256.628 53.706 256.628 51.912C256.628 50.118 257.824 48.909 259.787 48.909C261.139 48.909 262.153 49.52 262.387 50.651H262.465V49.039H263.752V54.746C263.752 56.917 262.4 57.84 260.281 57.84C258.37 57.84 257.044 56.943 257.044 55.383H258.435C258.435 56.319 258.981 56.67 260.359 56.67C261.828 56.67 262.361 56.267 262.361 54.824V53.238H262.27C262.036 54.213 261.165 54.915 259.696 54.915ZM258.045 51.912C258.045 53.238 258.825 53.706 260.151 53.706C261.581 53.706 262.361 53.108 262.361 51.964V51.782C262.361 50.69 261.555 50.131 260.19 50.131C258.838 50.131 258.045 50.586 258.045 51.912ZM268.223 55.63C266.078 55.63 264.635 54.265 264.635 52.276C264.635 50.261 266.078 48.909 268.223 48.909C270.381 48.909 271.824 50.261 271.824 52.276C271.824 54.265 270.381 55.63 268.223 55.63ZM268.223 54.382C269.796 54.382 270.446 53.641 270.446 52.276C270.446 50.898 269.796 50.144 268.223 50.144C266.663 50.144 266.013 50.898 266.013 52.276C266.013 53.641 266.663 54.382 268.223 54.382ZM275.768 55.63C273.688 55.63 272.505 54.811 272.505 53.316V53.277H273.909V53.381C273.909 54.226 274.416 54.499 275.768 54.499C277.029 54.499 277.406 54.239 277.406 53.667C277.406 53.134 277.094 52.965 276.171 52.835L274.403 52.601C273.181 52.445 272.44 51.925 272.44 50.846C272.44 49.715 273.467 48.909 275.456 48.909C277.432 48.909 278.628 49.702 278.628 51.236V51.275H277.237V51.197C277.237 50.43 276.847 50.027 275.417 50.027C274.234 50.027 273.818 50.287 273.818 50.898C273.818 51.405 274.078 51.587 275.053 51.717L276.548 51.925C278.082 52.12 278.784 52.64 278.784 53.706C278.784 54.915 277.588 55.63 275.768 55.63ZM285.412 55.63C282.812 55.63 281.486 54.486 281.486 52.653V52.575H282.89V52.783C282.89 53.823 283.501 54.343 285.412 54.343C287.076 54.343 287.661 53.979 287.661 53.16C287.661 52.406 287.219 52.12 286.114 51.912L283.982 51.561C282.513 51.301 281.473 50.625 281.473 49.195C281.473 47.934 282.513 46.66 285.217 46.66C287.765 46.66 288.922 47.934 288.922 49.637V49.715H287.531V49.546C287.531 48.48 286.894 47.947 285.087 47.947C283.501 47.947 282.877 48.337 282.877 49.117C282.877 49.871 283.319 50.118 284.346 50.339L286.465 50.703C288.207 51.015 289.065 51.808 289.065 53.082C289.065 54.408 287.986 55.63 285.412 55.63ZM294.17 55.5H292.688C291.297 55.5 290.439 54.889 290.439 53.316V50.209H289.347V49.039H290.439V47.622H291.83V49.039H294.17V50.209H291.83V53.238C291.83 54.031 292.194 54.239 293 54.239H294.17V55.5ZM296.816 55.63C295.477 55.63 294.632 55.006 294.632 53.94C294.632 52.939 295.438 52.419 296.712 52.276L299.65 51.964V51.587C299.65 50.521 299.182 50.144 297.947 50.144C296.751 50.144 296.166 50.534 296.166 51.483V51.535H294.775V51.483C294.775 50.014 295.997 48.909 298.051 48.909C300.105 48.909 301.028 50.027 301.028 51.574V55.5H299.741V53.888H299.65C299.312 54.98 298.285 55.63 296.816 55.63ZM296.036 53.849C296.036 54.369 296.387 54.616 297.193 54.616C298.662 54.616 299.65 54.07 299.65 52.796L297.115 53.082C296.387 53.173 296.036 53.342 296.036 53.849ZM306.389 55.5H304.907C303.516 55.5 302.658 54.889 302.658 53.316V50.209H301.566V49.039H302.658V47.622H304.049V49.039H306.389V50.209H304.049V53.238C304.049 54.031 304.413 54.239 305.219 54.239H306.389V55.5ZM310.387 55.63C308.268 55.63 306.877 54.434 306.877 52.276C306.877 50.261 308.255 48.909 310.361 48.909C312.363 48.909 313.728 50.014 313.728 51.977C313.728 52.211 313.715 52.393 313.676 52.588H308.19C308.242 53.836 308.853 54.499 310.348 54.499C311.7 54.499 312.259 54.057 312.259 53.29V53.186H313.663V53.303C313.663 54.681 312.311 55.63 310.387 55.63ZM310.335 50.014C308.905 50.014 308.281 50.651 308.203 51.808H312.402V51.782C312.402 50.586 311.713 50.014 310.335 50.014ZM257.846 71.5H256.286L260.173 62.79H262.149L266.036 71.5H264.45L263.449 69.238H258.847L257.846 71.5ZM260.589 65.325L259.406 67.977H262.89L261.707 65.325L261.2 64.09H261.096L260.589 65.325ZM267.96 71.5H266.556V65.039H267.843V66.781H267.934C268.129 65.741 268.831 64.909 270.157 64.909C271.626 64.909 272.263 65.962 272.263 67.184V68.029H270.872V67.457C270.872 66.534 270.482 66.105 269.52 66.105C268.415 66.105 267.96 66.716 267.96 67.873V71.5ZM276.265 71.63C274.146 71.63 272.755 70.434 272.755 68.276C272.755 66.261 274.133 64.909 276.239 64.909C278.241 64.909 279.606 66.014 279.606 67.977C279.606 68.211 279.593 68.393 279.554 68.588H274.068C274.12 69.836 274.731 70.499 276.226 70.499C277.578 70.499 278.137 70.057 278.137 69.29V69.186H279.541V69.303C279.541 70.681 278.189 71.63 276.265 71.63ZM276.213 66.014C274.783 66.014 274.159 66.651 274.081 67.808H278.28V67.782C278.28 66.586 277.591 66.014 276.213 66.014ZM282.426 71.63C281.087 71.63 280.242 71.006 280.242 69.94C280.242 68.939 281.048 68.419 282.322 68.276L285.26 67.964V67.587C285.26 66.521 284.792 66.144 283.557 66.144C282.361 66.144 281.776 66.534 281.776 67.483V67.535H280.385V67.483C280.385 66.014 281.607 64.909 283.661 64.909C285.715 64.909 286.638 66.027 286.638 67.574V71.5H285.351V69.888H285.26C284.922 70.98 283.895 71.63 282.426 71.63ZM281.646 69.849C281.646 70.369 281.997 70.616 282.803 70.616C284.272 70.616 285.26 70.07 285.26 68.796L282.725 69.082C281.997 69.173 281.646 69.342 281.646 69.849ZM293.882 71.63C291.282 71.63 289.8 70.252 289.8 67.886V62.79H291.191V67.795C291.191 69.55 291.971 70.278 293.882 70.278C295.793 70.278 296.573 69.55 296.573 67.795V62.79H297.977V67.886C297.977 70.252 296.496 71.63 293.882 71.63ZM300.496 71.5H299.092V65.039H300.379V67.041H300.47C300.665 65.949 301.523 64.909 303.161 64.909C304.955 64.909 305.839 66.118 305.839 67.613V71.5H304.435V67.99C304.435 66.781 303.889 66.17 302.55 66.17C301.133 66.17 300.496 66.898 300.496 68.302V71.5ZM308.364 64.285H306.96V62.79H308.364V64.285ZM308.364 71.5H306.96V65.039H308.364V71.5ZM313.772 71.5H312.29C310.899 71.5 310.041 70.889 310.041 69.316V66.209H308.949V65.039H310.041V63.622H311.432V65.039H313.772V66.209H311.432V69.238C311.432 70.031 311.796 70.239 312.602 70.239H313.772V71.5Z" fill="white"/>
<rect x="322" y="15" width="72" height="72" rx="8" fill="#E5FF2D"/>
<path d="M334.702 40.8871C334.915 40.4341 335.13 39.9859 335.336 39.535C336.132 37.7945 336.915 36.0493 337.936 34.4064C339.021 32.6604 340.262 31.0294 341.95 29.7365C342.467 29.3413 343.024 28.9886 343.588 28.6527C344.043 28.3822 344.269 28.4422 344.589 28.8506C344.831 29.1587 345.043 29.4863 345.283 29.7951C345.577 30.1742 345.738 30.1889 346.113 29.8787C346.719 29.3769 347.295 28.8388 347.928 28.3676C349.536 27.1715 351.376 26.4174 353.364 25.9372C355.139 25.5085 356.767 24.792 358.13 23.6196C358.376 23.4084 358.609 23.1847 358.812 23C359.193 23.3318 359.572 23.6719 359.963 23.9995C361.047 24.9056 362.28 25.6054 363.567 26.2257C365.228 27.0259 366.905 27.7954 368.554 28.6164C369.3 28.9886 369.994 29.4528 370.711 29.8766C370.805 29.9324 370.891 29.9993 370.984 30.0564C371.226 30.2028 371.418 30.1979 371.635 30.0174C371.801 29.8794 371.943 29.7163 372.106 29.5734C372.451 29.2702 372.833 29.0402 373.342 29.1029C373.718 29.1496 374.025 29.3343 374.252 29.5922C374.787 30.2042 375.317 30.8238 375.802 31.4707C377.474 33.6997 378.847 36.0883 380.103 38.5375C380.459 39.2311 380.828 39.919 381.19 40.6097C381.395 40.9993 381.627 41.0558 381.999 40.7847C382.31 40.5581 382.6 40.3079 382.909 40.0786C383.022 39.995 383.162 39.9427 383.328 39.8563C383.596 40.379 383.864 40.8718 384.103 41.3771C384.873 43.0067 385.347 44.7102 385.508 46.4834C385.707 48.6678 385.427 50.8096 384.782 52.9146C384.675 53.2659 384.588 53.6255 384.536 53.9873C384.482 54.3532 384.69 54.6083 385.042 54.7637C385.109 54.7937 385.176 54.8278 385.248 54.8418C385.824 54.9533 386.004 55.2488 386 55.8594C385.996 56.4818 385.825 57.0792 385.583 57.657C384.402 60.4777 382.836 63.0985 380.845 65.4961C380.652 65.7275 380.421 65.9422 380.172 66.1214C379.233 66.7954 378.689 67.7022 378.365 68.7344C378.128 69.4907 377.967 70.2692 377.712 71.0192C377.006 73.0879 375.543 74.4129 373.228 74.8854C371.921 75.1524 370.869 75.8215 369.985 76.7353C369.025 77.7271 367.869 78.4109 366.455 78.6904C365.212 78.9357 363.981 78.8284 362.757 78.5642C361.481 78.2889 360.211 77.9927 358.929 77.7473C357.83 77.5361 356.714 77.5563 355.619 77.7759C354.654 77.9697 353.712 78.2652 352.748 78.4673C351.777 78.6716 350.798 78.8716 349.81 78.9734C348.536 79.1051 347.37 78.7433 346.367 78.0024C345.614 77.4462 344.897 76.8489 344.167 76.2655C343.362 75.6215 342.455 75.1733 341.413 74.9496C340.581 74.7711 339.821 74.4435 339.202 73.8755C338.633 73.3534 338.34 72.708 338.211 71.9852C337.89 70.1856 337.17 68.526 336.162 66.9675C335.484 65.9185 334.68 64.9567 333.858 64.0039C332.571 62.5116 331.661 60.8283 330.999 59.0231C330.57 57.8549 330.258 56.6596 330.029 55.4454C329.988 55.2307 329.992 54.9986 330.032 54.7839C330.107 54.3894 330.463 54.1434 330.975 54.0834C331.093 54.0695 331.212 54.057 331.328 54.0333C331.747 53.9482 331.931 53.7043 331.824 53.3181C331.676 52.7821 331.498 52.2538 331.329 51.7227C331.032 50.7859 330.74 49.8436 330.659 48.8685C330.592 48.0683 330.577 47.2605 330.606 46.4576C330.649 45.2357 330.839 44.025 331.32 42.8806C331.601 42.2128 331.982 41.5813 332.323 40.9359C332.369 40.8502 332.438 40.7735 332.503 40.6982C332.862 40.2898 333.208 40.202 333.727 40.4174C334.052 40.5519 334.361 40.7199 334.702 40.8843V40.8871ZM335.238 43.9665C335.161 43.901 335.107 43.8459 335.043 43.8006C334.73 43.5783 334.429 43.3385 334.097 43.1454C333.863 43.0088 333.646 43.0708 333.497 43.2883C333.366 43.4786 333.254 43.6877 333.179 43.9024C332.82 44.9325 332.579 45.9857 332.491 47.0688C332.406 48.1255 332.423 49.178 332.68 50.2109C332.866 50.9574 333.12 51.6899 333.356 52.4253C333.609 53.2143 333.872 54.0005 334.143 54.7846C334.235 55.0516 334.205 55.131 333.911 55.2363C333.612 55.3429 333.31 55.4454 333.023 55.575C332.528 55.7981 332.383 56.088 332.479 56.5933C332.661 57.5441 332.967 58.4613 333.337 59.3611C334.256 61.5936 335.637 63.5529 337.4 65.2843C338.357 66.2252 339.004 67.307 339.233 68.595C339.34 69.1951 339.437 69.7987 339.582 70.3912C339.887 71.6353 340.666 72.5205 341.971 72.9617C342.48 73.1339 343.004 73.2726 343.53 73.396C344.008 73.5089 344.478 73.6225 344.765 74.0344C345.4 74.9454 346.293 75.5741 347.293 76.101C347.893 76.4174 348.475 76.4384 349.105 76.1721C349.795 75.8801 350.499 75.6082 351.213 75.3699C353.752 74.5216 356.371 74.185 359.062 74.4052C360.898 74.5558 362.667 74.9809 364.375 75.6257C365.024 75.8703 365.656 76.1603 366.32 76.3589C367.617 76.7464 368.665 76.4237 369.474 75.4096C369.734 75.0841 369.927 74.7105 370.129 74.3488C370.447 73.7772 370.886 73.3757 371.619 73.3353C371.789 73.3256 371.96 73.3005 372.128 73.2747C373.437 73.0718 374.522 72.5289 375.27 71.4792C375.75 70.8038 376.022 70.0517 376.178 69.262C376.472 67.7698 377.089 66.4197 378.239 65.3219C379.098 64.5029 379.833 63.5989 380.528 62.6614C381.386 61.5016 382.247 60.3439 382.865 59.0496C383.216 58.3129 383.509 57.5559 383.608 56.7516C383.693 56.0511 383.536 55.8929 382.774 55.8113C382.158 55.7451 381.978 55.5088 382.14 54.9526C382.224 54.6661 382.332 54.3853 382.428 54.1016C383.003 52.4051 383.407 50.6765 383.506 48.8964C383.582 47.5184 383.446 46.1558 383.091 44.8147C383.004 44.4857 382.913 44.1561 382.79 43.8382C382.637 43.4416 382.388 43.3322 381.969 43.4786C381.657 43.588 381.361 43.7393 381.058 43.8731C380.96 43.917 380.865 43.9658 380.76 44.016C380.72 43.9393 380.69 43.8842 380.66 43.8292C379.958 42.4833 379.276 41.1283 378.548 39.7942C377.635 38.1193 376.69 36.4591 375.75 34.7974C375.385 34.1541 375.027 33.5052 374.605 32.8939C374.365 32.5447 374.029 32.2422 373.69 31.9662C373.413 31.7411 373.155 31.824 373.024 32.1467C372.922 32.397 372.862 32.6632 372.802 32.9267C372.73 33.2466 372.677 33.5707 372.61 33.9241C372.529 33.8523 372.48 33.8119 372.434 33.7687C371.502 32.9044 370.496 32.1223 369.423 31.4149C367.449 30.1136 365.311 29.0883 363.102 28.1892C361.61 27.5821 360.187 26.8844 359.026 25.7929C358.803 25.5831 358.621 25.5977 358.292 25.7455C356.472 26.5589 354.663 27.3939 352.824 28.169C351.064 28.9113 349.375 29.7595 347.87 30.8894C346.889 31.6247 345.959 32.4172 345.005 33.1825C344.755 33.3832 344.501 33.5791 344.21 33.807C344.21 33.2341 344.223 32.7148 344.204 32.1969C344.196 31.9795 344.146 31.7557 344.068 31.5508C343.917 31.1528 343.59 31.0329 343.203 31.2497C342.946 31.394 342.69 31.5731 342.503 31.7885C341.803 32.59 341.091 33.3867 340.458 34.2336C338.806 36.4458 337.517 38.8435 336.397 41.3214C336.005 42.1891 335.634 43.0646 335.239 43.9693L335.238 43.9665Z" fill="#0D5239"/>
<path d="M345.714 39.6827C346.151 39.2973 346.533 38.9592 346.916 38.6212C347.973 37.6893 349.042 36.7693 350.297 36.0695C351.736 35.2672 353.189 34.4887 354.639 33.7045C355.754 33.1016 356.873 32.5057 357.991 31.907C358.087 31.8554 358.185 31.8031 358.287 31.7599C358.469 31.6839 358.646 31.693 358.765 31.8554C359.364 32.6716 360.249 33.1407 361.163 33.5777C362.888 34.4022 364.477 35.4213 365.984 36.549C367.622 37.775 369.24 39.0247 370.867 40.2633C370.895 40.2849 370.929 40.301 370.96 40.3198C370.955 40.3407 370.951 40.3616 370.947 40.3825C370.792 40.4062 370.639 40.4424 370.483 40.4508C370.253 40.4634 370.021 40.4473 369.79 40.4585C369.584 40.4682 369.384 40.5114 369.3 40.7219C369.214 40.9366 369.248 41.1429 369.426 41.2977C369.566 41.4182 369.74 41.5047 369.903 41.6002C370.167 41.7542 370.432 41.9068 370.702 42.0539C370.874 42.148 371.045 42.2637 371.233 42.3111C372.686 42.677 373.724 43.5329 374.482 44.7011C374.974 45.4602 375.419 46.2457 375.873 47.0263C375.928 47.1218 375.906 47.257 375.927 47.425C375.551 47.271 375.241 47.1399 374.927 47.0166C374.543 46.866 374.156 46.7196 373.77 46.5767C373.602 46.5147 373.437 46.5022 373.29 46.6318C373.134 46.7698 373.125 46.9406 373.182 47.1127C373.222 47.2368 373.284 47.3602 373.362 47.4675C374.048 48.4078 374.726 49.3529 375.432 50.2799C375.934 50.9386 376.344 51.6258 376.498 52.4302C376.601 52.9703 376.541 53.5035 376.472 54.043C376.414 54.501 376.418 54.9672 376.411 55.4294C376.402 56.003 376.409 56.5766 376.409 57.1886C376.341 57.1377 376.291 57.1056 376.248 57.0659C375.942 56.7815 375.639 56.4944 375.332 56.2121C375.242 56.1298 375.145 56.0518 375.043 55.9835C374.821 55.8371 374.58 55.7855 374.33 55.9152C374.083 56.0427 374.066 56.2672 374.071 56.4951C374.087 57.1774 374.301 57.8131 374.576 58.4404C375.022 59.4559 374.878 60.415 374.16 61.2814C372.757 62.9744 371.262 64.5963 369.687 66.1527C368.696 67.132 367.656 68.0695 366.668 69.0515C366.089 69.628 365.417 69.7472 364.617 69.6315C363.315 69.4433 362.011 69.2683 360.701 69.1422C359.612 69.0376 358.516 68.9798 357.422 68.9568C355.469 68.9149 353.543 69.1603 351.634 69.5276C351.328 69.5861 351.021 69.637 350.713 69.6851C350.121 69.7778 349.651 69.5764 349.265 69.1645C348.218 68.0444 347.168 66.9271 346.119 65.8084C345.046 64.6639 343.97 63.5208 342.901 62.3729C342.478 61.9191 342.132 61.4194 341.935 60.8409C341.636 59.9592 341.772 59.1186 342.29 58.3491C342.656 57.8068 342.77 57.206 342.9 56.6045C342.964 56.3111 342.785 56.0378 342.494 55.9047C342.226 55.782 341.92 55.8183 341.705 56.0636C341.404 56.4066 341.144 56.7801 340.87 57.1426C340.756 57.2938 340.65 57.45 340.541 57.604C340.517 57.604 340.493 57.6026 340.469 57.6019C340.404 57.3587 340.313 57.1182 340.278 56.8708C340.072 55.4091 339.912 53.9413 339.672 52.4845C339.462 51.2139 339.936 50.2297 340.917 49.3829C341.66 48.7416 342.367 48.0641 343.084 47.3971C343.204 47.2856 343.308 47.1546 343.397 47.02C343.515 46.8423 343.534 46.652 343.384 46.4764C343.24 46.307 343.038 46.2401 342.824 46.3035C342.506 46.3976 342.194 46.5126 341.891 46.6416C341.505 46.8047 341.132 46.9908 340.692 47.195C340.831 46.7817 340.944 46.4206 341.074 46.0638C341.406 45.1479 341.833 44.2746 342.398 43.4591C342.695 43.0325 343.093 42.746 343.583 42.546C344.593 42.1341 345.604 41.7263 346.604 41.2949C346.847 41.1903 347.087 41.0321 347.26 40.8439C347.624 40.4473 347.443 40.0382 346.895 39.9552C346.66 39.9197 346.418 39.9155 346.186 39.8695C346.038 39.8402 345.901 39.7594 345.714 39.6834V39.6827ZM358.084 68.3434L358.093 68.4019C358.994 68.2995 359.905 68.25 360.792 68.0848C364.111 67.4659 366.89 65.9241 369.169 63.6296C372.032 60.7475 373.365 57.2701 373.569 53.3899C373.621 52.3918 373.551 51.3965 373.407 50.4047C373.185 48.8859 372.761 47.4201 372.093 46.0212C370.531 42.7509 368.054 40.2522 364.645 38.5919C361.698 37.1575 358.574 36.7609 355.32 37.4405C352.179 38.0963 349.539 39.5963 347.326 41.7396C344.46 44.515 343.053 47.878 342.856 51.6962C342.8 52.764 342.879 53.829 343.018 54.8906C343.198 56.2644 343.525 57.6047 344.084 58.8879C345.363 61.8257 347.395 64.2178 350.198 66.021C352.565 67.5432 355.199 68.3253 358.086 68.3441L358.084 68.3434Z" fill="#0D5239"/>
<path d="M344.291 38.6505C343.993 37.5694 344.055 36.5804 344.788 35.7265C345.199 35.2484 345.698 34.8302 346.191 34.4197C348.217 32.7343 350.403 31.2567 352.844 30.1296C353.677 29.7449 354.55 29.4354 355.395 29.073C355.861 28.8736 356.308 28.638 356.763 28.4178C357.113 28.2477 357.452 28.0567 357.811 27.9083C358.372 27.6769 358.925 27.7298 359.42 28.0679C359.811 28.3335 360.169 28.6415 360.56 28.9057C360.872 29.1162 361.194 29.3274 361.543 29.473C364.968 30.9082 368.024 32.8556 370.801 35.1933C371.454 35.744 372.01 36.3622 372.233 37.1854C372.398 37.7924 372.449 38.4086 372.439 39.0784C372.086 38.7961 371.764 38.5445 371.448 38.2845C370.277 37.3192 369.122 36.3343 367.933 35.3871C365.912 33.777 363.703 32.4339 361.274 31.4093C360.513 31.088 359.859 30.6161 359.225 30.1185C359.139 30.0516 359.053 29.9846 358.962 29.924C358.576 29.6668 358.166 29.6257 357.742 29.8306C355.646 30.844 353.544 31.847 351.46 32.88C349.801 33.7018 348.354 34.796 347.019 36.0151C346.163 36.7971 345.346 37.6161 344.511 38.4191C344.445 38.4825 344.384 38.5501 344.291 38.6477L344.291 38.6505Z" fill="#0D5239"/>
<path d="M335.394 58.7304C336.759 59.1242 337.991 59.6664 338.98 60.5753C339.667 61.2068 340.288 61.9045 340.902 62.6001C343.011 64.9901 345.105 67.3927 347.203 69.7918C347.305 69.9096 347.402 70.0357 347.476 70.1702C347.58 70.3598 347.531 70.479 347.338 70.5891C347.293 70.6142 347.248 70.64 347.198 70.6553C346.33 70.9251 345.473 71.2304 344.591 71.452C343.334 71.7678 342.453 71.4088 341.741 70.3905C341.176 69.582 340.897 68.6821 340.764 67.7412C340.643 66.886 340.463 66.0572 339.87 65.3616C339.491 64.9162 339.084 64.4911 338.704 64.045C337.364 62.4705 336.291 60.7489 335.45 58.9011C335.43 58.8586 335.421 58.8126 335.394 58.7304Z" fill="#0D5239"/>
<path d="M367.616 70.785C368.338 70.0761 369.057 69.4189 369.714 68.7121C370.996 67.3327 372.251 65.9325 373.5 64.5273C374.748 63.1215 375.961 61.6884 377.215 60.2861C378.112 59.2817 379.255 58.5944 380.591 58.1881C380.624 58.1783 380.658 58.1748 380.765 58.1553C380.551 58.7673 380.378 59.3451 380.148 59.9027C379.483 61.5191 378.401 62.8698 377.055 64.0533C376.065 64.9239 375.277 65.9227 374.97 67.1878C374.88 67.5579 374.859 67.9426 374.764 68.3113C374.512 69.285 373.97 70.1207 373.225 70.8289C372.493 71.5245 371.553 71.7078 370.543 71.5817C369.535 71.4555 368.602 71.0756 367.616 70.7857L367.616 70.785Z" fill="#0D5239"/>
<path d="M378.139 56.8498C378.161 56.3968 378.179 55.9626 378.203 55.5283C378.258 54.5602 378.309 53.5914 378.374 52.6232C378.429 51.7875 378.445 50.9449 378.578 50.1196C378.752 49.0462 379.344 48.1332 380.083 47.3079C380.444 46.905 380.838 46.5273 381.217 46.1376C381.241 46.1432 381.264 46.1481 381.287 46.1537C381.353 46.5022 381.431 46.8493 381.484 47.1999C381.779 49.1431 381.528 51.0494 381.025 52.939C380.826 53.6841 380.668 54.4389 380.45 55.1784C380.151 56.1975 379.339 56.7028 378.266 56.8568C378.238 56.861 378.208 56.854 378.14 56.8505L378.139 56.8498Z" fill="#0D5239"/>
<path d="M342.38 35.4157C342.548 36.3044 342.544 37.1847 342.233 38.0538C341.501 40.1002 340.565 42.0685 339.608 44.0292C339.094 45.0824 338.579 46.1349 338.063 47.1873C338.039 47.2361 338.012 47.2842 337.974 47.3567C337.453 46.9427 337.043 46.4861 336.907 45.8567C336.79 45.3159 336.928 44.8071 337.167 44.3233C338.003 42.6234 338.816 40.9122 339.708 39.238C340.285 38.1542 340.972 37.1198 341.636 36.0778C341.805 35.8123 342.072 35.6004 342.294 35.3634C342.323 35.3808 342.35 35.3983 342.379 35.4157H342.38Z" fill="#0D5239"/>
<path d="M334.375 46.0498C334.748 46.3509 335.142 46.6325 335.49 46.9566C336.181 47.5993 336.526 48.4092 336.75 49.2818C337.168 50.9128 337.495 52.5577 337.698 54.2228C337.815 55.1924 337.919 56.164 338.02 57.1356C338.036 57.2917 338.016 57.4528 337.992 57.6089C337.981 57.6807 337.92 57.7462 337.858 57.8535C337.69 57.6444 337.549 57.4771 337.417 57.3036C336.056 55.5081 335.209 53.5133 334.76 51.3651C334.403 49.6575 334.298 47.931 334.313 46.1948C334.313 46.162 334.318 46.13 334.32 46.0972C334.338 46.0819 334.356 46.0658 334.374 46.0505L334.375 46.0498Z" fill="#0D5239"/>
<path d="M374.43 36.2904C374.729 36.5176 374.988 36.7867 375.159 37.1087C375.495 37.7416 375.811 38.3842 376.12 39.0289C377.011 40.8885 377.896 42.7516 378.78 44.6147C378.861 44.7848 378.916 44.966 378.977 45.143C379.09 45.4657 378.993 45.7522 378.757 45.9892C378.469 46.2777 378.158 46.5461 377.828 46.8493C377.729 46.6736 377.646 46.5307 377.566 46.3858C376.774 44.9416 376.019 43.4828 375.435 41.9515C374.932 40.6278 374.58 39.2722 374.44 37.874C374.388 37.3575 374.39 36.8369 374.367 36.3176C374.388 36.3092 374.408 36.3002 374.429 36.2918L374.43 36.2904Z" fill="#0D5239"/>
<path d="M350.663 71.5782C350.788 71.5398 350.891 71.5085 351.014 71.4701C351.336 72.3797 351.652 73.2712 351.966 74.1585C351.748 74.3 351.584 74.2944 351.381 74.1341C350.795 73.6727 350.187 73.2356 349.588 72.7903C349.537 72.7519 349.48 72.7199 349.376 72.7066C349.612 73.3813 349.849 74.0553 350.093 74.7509C349.976 74.7879 349.867 74.822 349.739 74.8617C349.416 73.9501 349.101 73.06 348.786 72.1727C349.001 72.0466 349.163 72.041 349.363 72.1971C349.961 72.6662 350.58 73.1116 351.193 73.566C351.242 73.603 351.297 73.6329 351.389 73.6434C351.15 72.9638 350.911 72.2835 350.663 71.5789V71.5782Z" fill="#0D5239"/>
<path d="M359.273 73.2405C358.905 73.2015 358.908 73.2022 358.972 72.8941C359.126 72.1476 359.277 71.4011 359.431 70.6539C359.447 70.5738 359.471 70.4943 359.498 70.3884C360.005 70.495 360.528 70.4943 360.987 70.7299C361.291 70.8861 361.41 71.1453 361.38 71.4646C361.351 71.7789 361.193 72.0138 360.879 72.149C360.807 72.1804 360.731 72.2062 360.63 72.2445C360.779 72.6759 360.924 73.0997 361.071 73.5263C360.745 73.5646 360.697 73.5388 360.613 73.2865C360.513 72.9896 360.415 72.6927 360.318 72.3951C360.283 72.2891 360.238 72.2145 360.097 72.202C359.913 72.1853 359.732 72.1407 359.522 72.103C359.437 72.4926 359.354 72.8669 359.273 73.2391V73.2405ZM360.998 71.3928C361.013 71.1467 360.891 70.9697 360.648 70.8958C360.409 70.8233 360.158 70.7829 359.91 70.7418C359.872 70.7355 359.788 70.7927 359.779 70.8317C359.71 71.1216 359.648 71.413 359.6 71.7064C359.592 71.7503 359.655 71.8396 359.7 71.8493C359.917 71.8967 360.137 71.9406 360.358 71.9546C360.745 71.9796 360.996 71.7496 360.999 71.3928H360.998Z" fill="#0D5239"/>
<path d="M355.535 71.2638C355.41 71.2896 355.31 71.3105 355.201 71.3328C355.176 71.2994 355.151 71.2659 355.127 71.2318C354.932 70.9432 354.686 70.8386 354.355 70.9063C353.958 70.9878 353.715 71.2011 353.686 71.5343C353.647 71.9838 353.723 72.4215 353.957 72.8202C354.304 73.412 354.991 73.3409 355.409 73.0258C355.476 72.9757 355.509 72.8481 355.502 72.7603C355.488 72.5972 355.433 72.4369 355.389 72.2452C355.157 72.2835 354.935 72.3212 354.717 72.3574C354.601 72.1163 354.605 72.11 354.85 72.0619C355.118 72.0089 355.387 71.9552 355.692 71.8946C355.768 72.2333 355.867 72.5588 355.902 72.8899C355.912 72.9924 355.774 73.1415 355.663 73.2175C354.78 73.8197 353.718 73.5925 353.431 72.5351C353.331 72.1664 353.234 71.7963 353.341 71.4095C353.464 70.9676 353.857 70.6742 354.423 70.6135C354.894 70.5633 355.287 70.7571 355.493 71.1418C355.508 71.1718 355.516 71.206 355.535 71.2631V71.2638Z" fill="#0D5239"/>
<path d="M362.347 73.9556C362.781 73.4845 363.203 73.0272 363.624 72.5707C363.877 72.2975 364.124 72.0201 364.387 71.7559C364.435 71.7078 364.56 71.6834 364.627 71.7064C364.696 71.7301 364.781 71.8221 364.783 71.8869C364.815 72.8216 364.833 73.7563 364.854 74.6917C364.854 74.7237 364.841 74.7558 364.834 74.7879C364.606 74.7507 364.492 74.6368 364.492 74.4463C364.492 74.0741 364.302 73.8253 363.922 73.6998C363.761 73.6462 363.594 73.603 363.44 73.5347C363.288 73.467 363.194 73.5047 363.105 73.6253C363.039 73.7166 362.956 73.7981 362.88 73.8832C362.742 74.037 362.565 74.0616 362.347 73.957V73.9556ZM364.471 72.1727C364.456 72.1664 364.441 72.1595 364.426 72.1532C364.109 72.5087 363.792 72.8634 363.452 73.2454C363.815 73.3646 364.135 73.4698 364.471 73.58V72.1727Z" fill="#0D5239"/>
<path d="M358.506 72.8669V73.1506H356.598C356.59 73.0628 356.571 72.9422 356.568 72.8209C356.545 72.0591 356.53 71.298 356.503 70.5362C356.498 70.3975 356.533 70.3236 356.691 70.3236C357.256 70.3236 357.821 70.3236 358.405 70.3236V70.5578C358.005 70.5689 357.598 70.5822 357.191 70.5905C356.872 70.5975 356.874 70.5968 356.885 70.8979C356.892 71.1105 356.886 71.3238 356.886 71.5517H358.216C358.297 71.7838 358.273 71.8145 358.004 71.8207C357.706 71.8277 357.409 71.8388 357.111 71.8416C356.958 71.843 356.904 71.8953 356.919 72.0445C356.943 72.2717 356.949 72.501 356.946 72.7289C356.943 72.8697 357.002 72.9081 357.143 72.9018C357.5 72.885 357.858 72.8774 358.216 72.8669C358.304 72.8641 358.392 72.8669 358.506 72.8669Z" fill="#0D5239"/>
<path d="M351.888 71.245C352.009 71.2108 352.106 71.1837 352.233 71.1474C352.307 71.3767 352.38 71.5984 352.449 71.8207C352.638 72.432 352.823 73.044 353.012 73.6545C353.054 73.7891 353.099 73.8985 352.885 73.9501C352.677 74.0002 352.688 73.8671 352.655 73.7598C352.416 72.9826 352.176 72.2048 351.938 71.4269C351.922 71.374 351.908 71.321 351.887 71.2436L351.888 71.245Z" fill="#0D5239"/>
<path d="M362.396 71.0241C362.462 71.0303 362.508 71.0289 362.549 71.0401C362.611 71.0575 362.671 71.0833 362.757 71.1154C362.456 72.0229 362.158 72.9227 361.854 73.8372C361.733 73.8023 361.629 73.773 361.499 73.7354C361.8 72.8258 362.098 71.926 362.396 71.0241Z" fill="#0D5239"/>
<path d="M367.621 52.2232C367.539 55.7625 366.246 58.4585 363.443 60.4582C362.125 61.3985 360.624 61.9526 358.959 62.0606C355.555 62.2809 352.913 60.9963 350.935 58.4641C349.851 57.0757 349.185 55.5137 348.968 53.8144C348.507 50.22 349.702 47.1671 352.597 44.7325C353.781 43.7372 355.216 43.1893 356.793 42.9663C358.074 42.7851 359.35 42.7969 360.613 43.0722C362.146 43.4068 363.442 44.1338 364.489 45.2211C365.883 46.6688 366.933 48.3004 367.348 50.2269C367.51 50.9769 367.559 51.7485 367.621 52.2225V52.2232ZM363.82 50.19C363.722 50.1517 363.678 50.1266 363.629 50.1168C362.702 49.9196 361.774 49.7237 360.846 49.5279C360.309 49.4142 359.768 49.316 359.237 49.1835C358.812 49.0776 358.696 48.9208 358.713 48.5228C358.726 48.2328 358.773 47.9443 358.803 47.655C358.899 46.7245 358.997 45.794 359.084 44.8628C359.09 44.7959 359.043 44.7011 358.986 44.6579C358.877 44.5743 358.801 44.6537 358.736 44.7402C358.06 45.6449 357.389 46.5544 356.698 47.4487C356.519 47.6808 356.3 47.9066 356.047 48.0642C355.554 48.3715 355.007 48.276 354.472 48.138C353.719 47.9443 352.971 47.7352 352.215 47.5574C351.913 47.4863 351.593 47.4801 351.24 47.4403C351.281 47.5553 351.295 47.6146 351.322 47.669C351.732 48.5067 352.14 49.3452 352.555 50.1802C352.839 50.7511 353.012 51.3366 352.872 51.9708C352.735 52.5898 352.365 53.0895 351.92 53.5461C351.361 54.1197 350.891 54.7498 350.493 55.428C350.463 55.4781 350.445 55.5346 350.41 55.6134C350.472 55.5994 350.499 55.5959 350.525 55.5869C351.412 55.2879 352.308 55.0063 353.186 54.6829C353.99 54.3873 354.352 54.5219 354.696 55.2593C355.349 56.6637 356.024 58.0591 356.692 59.458C356.715 59.5054 356.751 59.5479 356.8 59.6204C356.849 59.5103 356.898 59.4322 356.918 59.3479C357.035 58.8488 357.166 58.3519 357.256 57.8486C357.482 56.5864 357.716 55.3241 357.893 54.0556C358.023 53.1258 358.5 52.5047 359.438 52.1437C360.436 51.7596 361.414 51.3317 362.39 50.903C362.865 50.6946 363.318 50.4416 363.82 50.1893V50.19ZM356.068 60.4945C356.064 60.5203 356.061 60.5467 356.057 60.5725C356.298 60.6715 356.532 60.7921 356.783 60.8646C357.609 61.1043 358.438 61.0381 359.245 60.7977C361.724 60.0588 363.602 58.591 364.956 56.5571C366.017 54.9652 366.358 53.2059 366.105 51.3484C365.894 49.7997 365.283 48.4085 364.199 47.2061C364.144 47.1455 364.096 47.08 364.045 47.0173C364.022 47.0319 363.999 47.0458 363.976 47.0605C363.976 47.1344 363.976 47.2082 363.976 47.2814C363.976 48.3081 363.974 49.3341 363.979 50.3608C363.983 51.2355 363.929 52.1054 363.755 52.9662C363.395 54.7414 362.582 56.2999 361.211 57.5956C360.142 58.6049 358.864 59.3172 357.488 59.895C357.014 60.0937 356.541 60.2944 356.068 60.4938V60.4945Z" fill="#0D5239"/>
<path d="M358.228 67.3111C356.957 67.3104 355.96 66.3827 355.959 65.1992C355.957 64.0185 356.977 63.0748 358.252 63.0775C359.504 63.0803 360.515 64.0359 360.509 65.2111C360.503 66.3946 359.507 67.3118 358.228 67.3104V67.3111Z" fill="#0D5239"/>
<path d="M344.527 50.664C344.642 50.1496 344.643 50.1538 345.148 50.0827C345.921 49.9739 346.693 49.8596 347.465 49.7467C347.492 49.7425 347.518 49.7265 347.584 49.7C347.509 49.6442 347.458 49.6017 347.403 49.5655C346.736 49.134 346.073 48.6956 345.397 48.2774C345.205 48.1589 345.13 48.0453 345.221 47.8453C345.252 47.777 345.262 47.7003 345.289 47.5999C346.391 47.8369 347.482 48.0704 348.588 48.3081C348.556 48.4454 348.53 48.5583 348.496 48.7033C347.632 48.5067 346.785 48.3144 345.938 48.122C345.93 48.1304 345.923 48.1394 345.915 48.1478C345.96 48.1826 346.002 48.2217 346.049 48.253C346.72 48.6921 347.39 49.1313 348.063 49.5662C348.176 49.6387 348.254 49.7035 348.219 49.8492C348.182 50.0039 348.064 50.0109 347.935 50.0297C347.076 50.1552 346.218 50.2841 345.352 50.457C346.2 50.6284 347.048 50.7999 347.919 50.9762C347.892 51.1107 347.869 51.223 347.838 51.3742C346.73 51.1365 345.635 50.9016 344.528 50.664H344.527Z" fill="#0D5239"/>
<path d="M351.311 63.6303C351.866 62.9995 352.422 62.3694 352.989 61.7268C353.106 61.8174 353.201 61.8913 353.314 61.9798C352.585 62.7813 351.87 63.5682 351.14 64.3719C351.013 64.2743 350.886 64.199 350.793 64.0966C350.751 64.0506 350.754 63.9439 350.777 63.877C351.036 63.1326 351.303 62.391 351.568 61.6487C351.592 61.5783 351.616 61.5079 351.662 61.3762C351.253 61.5762 350.901 61.7477 350.55 61.9205C350.103 62.1408 349.651 62.3548 349.21 62.5883C349.04 62.6789 348.917 62.6796 348.791 62.5381C348.734 62.4753 348.659 62.4286 348.568 62.3555C349.294 61.556 350.013 60.7649 350.744 59.9606C350.854 60.0484 350.947 60.123 351.064 60.2171C350.472 60.8492 349.892 61.4689 349.312 62.0885C349.319 62.0997 349.325 62.1115 349.332 62.1227C349.393 62.0962 349.455 62.0718 349.514 62.0425C350.253 61.6815 350.992 61.3211 351.73 60.9573C351.833 60.9064 351.912 60.875 352.029 60.9601C352.157 61.0535 352.128 61.1392 352.089 61.2479C351.837 61.9644 351.587 62.6817 351.337 63.3996C351.312 63.47 351.291 63.5411 351.268 63.6122C351.281 63.6184 351.296 63.6247 351.309 63.631L351.311 63.6303Z" fill="#0D5239"/>
<path d="M363.377 42.976C363.144 42.9259 362.988 42.8436 362.944 42.5711C362.811 41.7368 362.635 40.9087 362.476 40.0779C362.471 40.0542 362.46 40.0312 362.434 39.9532C362.26 40.3267 362.106 40.6536 361.954 40.9812C361.79 41.3374 361.622 41.6922 361.466 42.0518C361.405 42.1905 361.324 42.1815 361.205 42.1278C361.101 42.0811 361 42.0609 361.072 41.9075C361.484 41.0321 361.886 40.1532 362.291 39.275C362.305 39.2443 362.327 39.2164 362.344 39.1892C362.686 39.2436 362.721 39.275 362.777 39.5635C362.937 40.3937 363.096 41.2238 363.257 42.0539C363.263 42.0846 363.274 42.1145 363.329 42.155C363.665 41.4287 364 40.7024 364.344 39.9601C364.432 39.9915 364.505 40.0222 364.581 40.0445C364.693 40.0772 364.714 40.1316 364.666 40.2326C364.247 41.1353 363.833 42.0393 363.415 42.9433C363.41 42.9544 363.393 42.9614 363.376 42.976H363.377Z" fill="#0D5239"/>
<path d="M355.091 38.9927C355.56 38.9571 356.018 38.8826 356.473 38.8986C357.014 38.9181 357.374 39.2331 357.579 39.6883C357.759 40.0856 357.805 40.5059 357.748 40.9303C357.676 41.4531 357.236 41.8678 356.633 41.9877C356.343 42.0448 356.047 42.0769 355.752 42.118C355.642 42.1334 355.554 42.132 355.532 41.9877C355.39 41.0642 355.238 40.1413 355.091 39.2185C355.083 39.1648 355.091 39.1084 355.091 38.9927ZM356.197 39.2018C356.09 39.2136 355.921 39.2366 355.751 39.2506C355.591 39.2638 355.538 39.3335 355.563 39.4834C355.664 40.0765 355.751 40.6718 355.858 41.2642C355.954 41.7981 355.961 41.7967 356.538 41.6761C356.979 41.5841 357.262 41.3053 357.331 40.8802C357.398 40.4654 357.318 40.0661 357.123 39.6925C356.953 39.3649 356.658 39.2011 356.198 39.2025L356.197 39.2018Z" fill="#0D5239"/>
<path d="M370.051 52.7536C369.857 52.7299 369.686 52.7187 369.519 52.6881C368.958 52.5828 368.569 52.2078 368.481 51.6997C368.387 51.1553 368.632 50.6577 369.163 50.4151C369.781 50.1329 370.438 50.0841 371.093 50.2855C371.697 50.4716 371.982 50.9288 371.948 51.5715C371.921 52.0768 371.497 52.5082 370.867 52.6427C370.594 52.7013 370.31 52.7194 370.051 52.7536ZM370.101 52.3821C370.411 52.3068 370.801 52.2469 371.16 52.1158C371.484 51.9973 371.622 51.7178 371.607 51.3902C371.592 51.0626 371.427 50.8096 371.099 50.6946C370.451 50.4681 369.809 50.5232 369.207 50.8305C368.902 50.9867 368.78 51.2676 368.82 51.5917C368.86 51.9158 369.048 52.1493 369.383 52.2496C369.585 52.3103 369.801 52.3291 370.101 52.3821Z" fill="#0D5239"/>
<path d="M368.528 47.5888C368.564 47.6731 368.616 47.7484 368.623 47.8265C368.629 47.8857 368.596 47.9728 368.548 48.007C368.096 48.3241 368.152 49.1187 368.651 49.3773C368.97 49.5418 369.369 49.348 369.411 48.9877C369.447 48.6719 369.441 48.352 369.461 48.0349C369.491 47.563 369.74 47.2668 370.201 47.2027C370.359 47.181 370.548 47.2138 370.693 47.2793C371.271 47.5393 371.553 48.3827 371.228 48.8985C371.118 49.0727 370.927 49.203 370.763 49.3627C370.54 49.0567 370.547 49.0204 370.794 48.8281C371.012 48.658 371.057 48.4384 370.99 48.1889C370.916 47.9157 370.8 47.6717 370.478 47.586C370.253 47.5261 369.983 47.6606 369.908 47.8815C369.863 48.0175 369.858 48.1666 369.844 48.3102C369.812 48.6259 369.812 48.9466 369.75 49.2567C369.689 49.5641 369.439 49.7418 369.12 49.8094C368.786 49.8798 368.495 49.783 368.281 49.5355C367.907 49.1013 367.778 48.6148 367.981 48.0774C368.071 47.8376 368.253 47.6717 368.53 47.5895L368.528 47.5888Z" fill="#0D5239"/>
<path d="M347.966 57.2492C348.436 56.9028 348.502 56.4449 348.157 55.9904C348.012 55.7995 347.811 55.7179 347.604 55.7667C347.332 55.8308 347.206 55.9486 347.186 56.2135C347.161 56.5508 347.177 56.891 347.145 57.2276C347.102 57.68 346.87 57.9365 346.48 58.0124C346.11 58.0849 345.734 57.9218 345.5 57.5685C345.246 57.1837 345.147 56.776 345.361 56.3438C345.464 56.134 345.635 55.9897 345.893 55.8998C345.93 55.9911 345.976 56.065 345.984 56.1424C345.99 56.2002 345.964 56.2874 345.918 56.318C345.484 56.6136 345.52 57.3168 345.989 57.5712C346.322 57.7518 346.721 57.5559 346.754 57.1809C346.776 56.9265 346.748 56.6679 346.763 56.4128C346.775 56.2351 346.794 56.0504 346.856 55.8838C347.06 55.3415 347.809 55.1798 348.244 55.5862C348.678 55.9911 348.813 56.4881 348.66 57.0394C348.588 57.2994 348.403 57.4869 348.094 57.5928C348.048 57.4716 348.006 57.3587 347.965 57.2499L347.966 57.2492Z" fill="#0D5239"/>
<path d="M348.509 46.6123C348.68 46.2575 348.677 46.268 348.986 46.3126C349.103 46.3293 349.243 46.3098 349.351 46.2638C349.671 46.1293 349.853 45.8784 349.938 45.5696C349.995 45.3654 349.94 45.1821 349.748 45.0524C349.553 44.9207 349.345 44.9081 349.142 45.0308C348.968 45.136 348.809 45.2636 348.635 45.3709C348.432 45.4971 348.233 45.6428 348.009 45.7257C347.449 45.9327 346.902 45.5717 346.892 45.0113C346.88 44.3526 347.509 43.7302 348.166 43.7644C348.315 43.772 348.462 43.8313 348.634 43.8724C348.568 43.9721 348.523 44.0348 348.483 44.1003C348.432 44.1846 348.377 44.2097 348.267 44.1637C348.018 44.0592 347.782 44.1052 347.587 44.2787C347.364 44.476 347.196 44.7109 347.248 45.0113C347.304 45.3249 347.656 45.4866 347.972 45.3431C348.15 45.2615 348.304 45.1347 348.472 45.0329C348.701 44.8935 348.922 44.7332 349.169 44.6293C349.489 44.4948 349.799 44.568 350.058 44.7896C350.307 45.0029 350.379 45.272 350.289 45.5675C350.118 46.1314 349.776 46.5579 349.119 46.6667C348.935 46.6973 348.734 46.6346 348.508 46.6116L348.509 46.6123Z" fill="#0D5239"/>
<path d="M366.376 44.3728C366.452 44.4718 366.52 44.561 366.586 44.6468C366.096 45.157 366.443 45.6846 366.804 45.9501C366.989 46.0868 367.227 46.0937 367.41 45.9829C367.611 45.8602 367.698 45.6846 367.649 45.465C367.563 45.0873 367.438 44.7151 367.384 44.3331C367.323 43.8968 367.597 43.5748 368.057 43.4946C368.182 43.473 368.325 43.4904 368.449 43.5232C369.035 43.6779 369.492 44.391 369.337 44.9381C369.285 45.1207 369.143 45.281 369.014 45.4999C368.893 45.3431 368.818 45.2469 368.747 45.1542C369.139 44.7025 369.07 44.2439 368.583 43.9372C368.398 43.8215 368.214 43.8076 368.017 43.9072C367.82 44.0069 367.749 44.1686 367.774 44.3596C367.797 44.5366 367.856 44.7095 367.894 44.8851C367.949 45.1416 368.042 45.3981 368.042 45.6553C368.045 46.2317 367.389 46.59 366.828 46.3426C366.289 46.1049 365.912 45.4406 366.004 44.8914C366.041 44.6732 366.147 44.5185 366.376 44.3721L366.376 44.3728Z" fill="#0D5239"/>
<path d="M358.515 41.8323C358.611 40.7631 358.704 39.7371 358.798 38.6937C359.509 38.7487 360.19 38.8017 360.9 38.8568C360.895 38.9537 360.891 39.0464 360.885 39.169C360.593 39.1509 360.313 39.1363 360.034 39.1168C359.811 39.1007 359.588 39.0854 359.366 39.0582C359.241 39.0429 359.191 39.0728 359.183 39.1948C359.165 39.4436 359.136 39.6918 359.105 39.9392C359.09 40.0591 359.144 40.0946 359.267 40.1016C359.639 40.1232 360.01 40.1553 360.382 40.1839C360.477 40.1915 360.585 40.1804 360.573 40.3233C360.561 40.4571 360.511 40.5219 360.35 40.5059C360.017 40.4724 359.681 40.4578 359.348 40.4264C359.078 40.4006 359.069 40.4055 359.052 40.6481C359.035 40.876 359.019 41.1046 358.984 41.3304C358.961 41.4831 358.978 41.5521 359.176 41.5618C359.666 41.5862 360.153 41.6392 360.653 41.6817V41.9975C359.95 41.9431 359.252 41.8887 358.515 41.8316V41.8323Z" fill="#0D5239"/>
<path d="M346.53 59.6107C346.456 59.5033 346.389 59.4057 346.309 59.2914C346.557 59.1458 346.796 59.0064 347.034 58.8656C347.393 58.6544 347.762 58.4557 348.108 58.2278C348.988 57.6486 349.718 58.1407 350.01 58.814C350.22 59.2956 350.076 59.741 349.603 60.0303C348.956 60.4255 348.296 60.8039 347.619 61.2019C347.543 61.0946 347.473 60.9949 347.394 60.8841C348.042 60.5021 348.671 60.1327 349.3 59.7605C349.788 59.4713 349.868 59.0858 349.534 58.6509C349.277 58.3156 348.907 58.2369 348.516 58.4578C347.925 58.7938 347.342 59.1437 346.755 59.4873C346.687 59.527 346.617 59.5633 346.53 59.6107Z" fill="#0D5239"/>
<path d="M353.605 39.4471C353.947 40.1072 354.291 40.7512 354.613 41.4043C354.835 41.8546 354.706 42.302 354.289 42.6122C353.995 42.8304 353.658 42.9642 353.279 42.9398C352.905 42.9161 352.614 42.7335 352.446 42.4191C352.101 41.7751 351.769 41.1248 351.433 40.4759C351.424 40.4585 351.427 40.4355 351.424 40.4041C351.528 40.3567 351.634 40.3093 351.766 40.2494C351.887 40.4794 352.003 40.6996 352.119 40.9213C352.342 41.3513 352.558 41.7842 352.79 42.2107C352.958 42.5195 353.213 42.6387 353.555 42.5955C353.912 42.5509 354.258 42.3139 354.291 42.0212C354.313 41.8351 354.257 41.6225 354.174 41.4475C353.921 40.9164 353.636 40.3985 353.367 39.8737C353.208 39.5642 353.211 39.5635 353.607 39.4464L353.605 39.4471Z" fill="#0D5239"/>
<path d="M367.601 57.0875C368.602 57.5915 369.582 58.0849 370.579 58.5861C370.243 59.1646 369.918 59.7229 369.581 60.3042C369.484 60.261 369.394 60.2212 369.282 60.1718C369.549 59.7089 369.809 59.2594 370.085 58.7805C369.755 58.6133 369.434 58.4502 369.087 58.2745C368.847 58.6837 368.617 59.0754 368.379 59.4796C368.28 59.4294 368.192 59.3855 368.089 59.334C368.321 58.9318 368.547 58.5436 368.788 58.1261C368.446 57.9532 368.118 57.7824 367.782 57.6263C367.75 57.611 367.642 57.6765 367.611 57.7274C367.38 58.1072 367.161 58.4927 366.937 58.8753C366.92 58.9053 366.899 58.9332 366.869 58.9785C366.778 58.9283 366.692 58.8816 366.59 58.8251C366.93 58.2418 367.262 57.6723 367.602 57.0875H367.601Z" fill="#0D5239"/>
<path d="M370.552 55.5548C370.603 55.5499 370.639 55.5444 370.675 55.5437C371.011 55.5353 371.271 55.4154 371.388 55.1066C371.511 54.7756 371.482 54.4661 371.192 54.2103C370.791 53.8569 369.627 53.6869 369.136 53.9127C368.804 54.066 368.683 54.3309 368.678 54.662C368.674 54.9693 368.829 55.1722 369.123 55.2962C369.183 55.3213 369.24 55.3513 369.306 55.382C369.285 55.4963 369.266 55.6036 369.24 55.7451C368.937 55.6866 368.701 55.5527 368.53 55.3234C367.985 54.5937 368.51 53.5175 369.465 53.4255C369.974 53.3767 370.478 53.4422 370.954 53.6206C371.759 53.9224 372.051 54.7226 371.627 55.4259C371.404 55.7939 370.975 55.9849 370.495 55.9166C370.513 55.8043 370.531 55.6907 370.554 55.5555L370.552 55.5548Z" fill="#0D5239"/>
<path d="M366.589 63.426C366.375 63.6068 366.158 63.6417 365.937 63.5306C365.537 63.3292 365.139 63.1277 364.738 62.927C364.681 62.8984 364.622 62.8747 364.517 62.828C364.558 63.1633 364.591 63.4602 364.629 63.7571C364.661 64.0108 364.732 64.2673 364.713 64.5176C364.705 64.6347 364.523 64.7406 364.42 64.8521C364.396 64.8417 364.373 64.8312 364.35 64.8207C364.324 64.6116 364.295 64.4025 364.273 64.1934C364.225 63.732 364.187 63.2692 364.129 62.8085C364.114 62.6844 364.063 62.5548 363.993 62.4482C363.818 62.1833 363.622 61.931 363.422 61.6564C363.533 61.5825 363.632 61.5156 363.758 61.4319C363.953 61.701 364.129 61.9637 364.33 62.2098C364.425 62.3262 364.55 62.4363 364.687 62.5046C365.252 62.7862 365.825 63.0511 366.396 63.3229C366.46 63.3536 366.521 63.3898 366.588 63.426H366.589Z" fill="#0D5239"/>
<path d="M367.795 42.4164C367.721 42.4923 367.658 42.5578 367.581 42.6387C367.307 42.4129 367.041 42.1954 366.76 41.964C366.069 42.6708 365.395 43.3608 364.703 44.0689C364.593 43.9748 364.503 43.8975 364.401 43.8111C365.088 43.1043 365.766 42.4066 366.454 41.6998C366.176 41.4642 365.919 41.2454 365.649 41.0161C365.717 40.9429 365.779 40.876 365.861 40.7889C366.507 41.3325 367.144 41.8692 367.795 42.417V42.4164Z" fill="#0D5239"/>
<path d="M367.756 61.9212C366.996 61.2835 366.256 60.6624 365.495 60.024C365.585 59.9257 365.668 59.8351 365.762 59.7333C366.526 60.3732 367.272 60.9977 368.033 61.6341C368.281 61.3817 368.516 61.1427 368.767 60.8883C368.843 60.9489 368.915 61.0054 369.012 61.0827C368.431 61.6815 367.856 62.2739 367.267 62.8817C367.18 62.8071 367.112 62.7486 367.031 62.6789C367.272 62.4266 367.504 62.1847 367.756 61.9212Z" fill="#0D5239"/>
<path d="M349.768 41.9765C350.463 42.6777 351.143 43.365 351.838 44.0682C351.739 44.1526 351.648 44.2299 351.535 44.3254C350.845 43.6312 350.16 42.9419 349.462 42.24C349.19 42.47 348.932 42.6882 348.644 42.9321C348.578 42.8624 348.517 42.7976 348.431 42.7056C349.071 42.1543 349.702 41.612 350.348 41.0565C350.426 41.1367 350.489 41.2015 350.567 41.2823C350.301 41.5144 350.042 41.7389 349.768 41.9765Z" fill="#0D5239"/>
<path d="M347.857 52.8435C347.949 53.4757 348.036 54.0841 348.129 54.731C347.008 54.8704 345.894 55.0091 344.768 55.1499C344.747 55.0188 344.729 54.9045 344.705 54.7574C345.708 54.6313 346.703 54.5065 347.722 54.379C347.652 53.8716 347.586 53.3941 347.517 52.8999C347.626 52.8825 347.726 52.8658 347.857 52.8449V52.8435Z" fill="#0D5239"/>
<path d="M367.834 56.4505C367.884 56.3125 367.924 56.2037 367.972 56.072C369.045 56.4121 370.102 56.7481 371.182 57.091C371.137 57.2137 371.098 57.3217 371.045 57.4674C369.975 57.1286 368.92 56.7941 367.834 56.4505Z" fill="#0D5239"/>
<path d="M347.892 52.0099V52.3779H344.532V52.0099H347.892Z" fill="#0D5239"/>
</svg>
