<svg width="548" height="160" viewBox="0 0 548 160" fill="none" xmlns="http://www.w3.org/2000/svg">
<path d="M21.9475 101.453C33.9568 96.5267 46.4236 91.6001 47.2242 73.7267C47.5673 58.6031 37.6167 55.5096 21.9475 55.5096V101.453ZM21.9475 153.928C21.9475 162.635 11.6538 156.448 6.16384 159.427C3.6476 160.802 0.559501 155.761 8.90882 154.844C10.8532 154.615 12.4544 153.699 12.4544 150.834C-0.355494 139.95 -7.56107 117.035 12.4544 105.807V55.5096C9.13757 55.5096 5.47759 56.1971 5.47759 53.6765C5.47759 52.6453 6.27821 51.8433 7.30758 51.8433H33.3849C54.3154 51.8433 64.1516 76.2473 49.3973 90.3398C89.3139 103.057 79.8208 160 37.5024 160C32.3555 160 27.4374 158.969 22.7481 157.136C22.9768 156.563 23.2056 155.99 23.32 155.303C32.0124 158.969 42.4205 159.198 51.1129 155.646C71.1284 147.168 70.8996 97.787 47.6817 91.7146C32.5843 103.974 -1.27049 102.943 2.27511 129.065C3.30448 136.742 7.07883 143.387 12.4544 148.428V109.588C15.3138 107.869 18.5163 106.38 21.9475 105.12V153.928Z" fill="#0A4133"/>
<path d="M157.862 153.928C158.663 154.386 159.121 155.417 158.663 156.334C157.176 159.313 156.833 154.844 147.111 157.365C139.906 159.198 133.844 157.709 135.559 154.615C136.703 152.553 138.648 154.501 140.363 154.501C144.595 154.501 141.164 137.887 142.308 134.565C143.68 132.961 144.938 131.357 146.082 129.753C147.798 127.461 149.742 123.451 151.801 119.556V150.605C151.915 151.865 152.487 152.667 153.859 152.667V152.782C155.117 152.896 156.49 153.24 157.862 153.928ZM191.717 153.928C192.632 154.386 192.975 155.417 192.518 156.334C191.031 159.313 190.688 154.844 180.966 157.365C173.76 159.198 167.813 157.709 169.529 154.615C171.016 151.98 176.277 157.365 176.277 152.094V116.806C175.934 110.848 172.96 106.724 166.212 106.38C153.287 105.693 152.601 118.525 144.938 128.951C132.471 146.022 105.136 171.572 86.6073 150.261C71.3956 132.846 82.2611 103.172 103.649 103.172C117.946 103.172 127.439 118.754 124.694 119.785C117.031 122.535 85.578 136.742 93.4698 150.261C105.937 171.343 141.164 132.846 142.308 129.524V111.421C142.308 106.495 131.099 108.557 133.501 104.088C134.988 101.453 136.36 105.349 143.337 104.088C152.944 102.37 151.801 107.755 151.801 113.827C152.944 111.765 154.088 109.932 155.346 108.557C163.581 98.8181 185.77 102.714 185.77 115.317V150.605C185.77 151.865 186.456 152.667 187.829 152.667V152.782C189.087 152.896 190.345 153.24 191.717 153.928ZM115.315 108.786C94.4991 94.1207 84.3198 123.108 90.7248 143.845C92.4404 134.565 105.822 126.43 113.6 122.535C118.861 120.129 121.034 112.796 115.315 108.786Z" fill="#0A4133"/>
<path d="M232.057 111.536C237.662 118.066 232.057 117.952 231.142 116.577C227.826 111.421 225.309 105.234 214.787 105.234C194.314 105.349 193.513 165.958 221.649 155.646C229.999 152.438 230.113 142.7 233.773 144.991C238.691 148.314 214.901 170.312 197.631 150.49C182.305 133.075 193.285 103.401 214.787 103.401C221.649 103.401 227.597 106.609 232.057 111.536Z" fill="#0A4133"/>
<path d="M289.639 154.042C290.554 154.501 290.897 155.532 290.439 156.448C288.952 159.427 288.609 154.959 278.887 157.479C271.796 159.313 265.62 157.938 267.45 154.73C268.822 152.094 274.084 157.479 274.084 152.209C274.084 152.209 274.084 152.209 274.198 152.209V108.213C246.405 100.766 249.493 119.785 249.722 150.72C249.722 152.094 250.408 152.782 251.781 152.896C253.268 153.011 257.842 153.813 256.47 156.448C255.098 159.427 254.754 154.959 245.033 157.479C237.827 159.313 231.765 157.823 233.481 154.73C234.968 152.094 240.229 157.479 240.229 152.209V74.4141C240.229 71.8935 237.827 71.2061 236.683 71.0915C228.334 70.0604 231.422 65.0192 233.938 66.394C239.543 69.4875 249.722 62.9569 249.722 71.8935V115.202C252.696 106.265 260.359 100.766 274.427 104.432C278.544 105.463 282.89 106.609 286.894 104.547C288.724 103.63 292.384 106.953 286.207 108.786C284.263 109.473 283.691 110.39 283.691 112.338V150.72C283.691 152.094 284.377 152.782 285.635 152.896C287.008 153.011 288.266 153.355 289.639 154.042Z" fill="#0A4133"/>
<path d="M382.45 153.831C383.365 154.29 383.708 155.321 383.251 156.237C381.764 159.216 381.421 154.748 371.699 157.268C364.379 159.102 358.431 157.612 360.147 154.519C361.634 151.884 366.895 157.268 366.895 151.998V119.001C367.238 111.783 364.379 106.513 356.487 106.284C347.108 106.054 342.533 111.783 342.533 129.427V150.509C342.533 151.884 343.22 152.571 344.592 152.686C346.079 152.8 350.654 153.717 349.281 156.237C347.794 159.216 347.451 154.748 337.73 157.268C330.524 159.102 324.577 157.727 326.292 154.519C327.779 151.884 333.04 157.268 333.04 151.998V119.001C333.383 111.783 330.524 106.513 322.632 106.284C313.253 106.054 308.564 111.783 308.564 129.427V150.509C308.678 151.884 309.25 152.571 310.623 152.571V152.686C312.11 152.8 316.685 153.602 315.427 156.237C313.94 159.216 313.597 154.748 303.875 157.268C296.669 159.102 290.607 157.612 292.323 154.519C293.81 151.884 299.071 157.268 299.071 151.998V111.325C299.071 106.398 287.862 108.46 290.264 103.992C291.751 101.357 293.238 105.252 300.1 104.107C310.051 102.274 308.564 108.117 308.564 114.991C314.74 96.2012 342.305 101.701 342.533 115.106C348.71 96.0866 376.388 101.815 376.388 115.22V150.509C376.502 151.884 377.189 152.571 378.447 152.686C379.705 152.8 381.077 153.144 382.45 153.831Z" fill="#0A4133"/>
<path d="M467.727 154.06C468.642 154.519 469.099 155.55 468.642 156.466C467.155 159.445 466.812 154.977 457.09 157.498C449.884 159.331 443.822 157.841 445.538 154.748C446.682 152.686 448.626 154.633 450.342 154.633C454.688 154.633 451.142 137.676 452.286 132.864L461.779 117.626V150.738C461.779 151.998 462.465 152.8 463.838 152.8V152.915C465.096 153.029 466.469 153.373 467.727 154.06ZM485.455 105.711C487.856 106.856 485.569 110.179 483.739 109.033C458.577 92.0765 447.482 158.758 428.954 158.529C423.349 158.414 418.66 154.06 418.088 148.561C412.255 168.153 382.403 157.727 382.403 130.917C382.403 109.492 403.448 96.0866 418.203 107.315C419.918 100.899 428.382 106.513 433.757 103.534C435.931 102.274 437.646 105.596 435.587 106.742C425.522 112.356 427.467 97.3469 427.467 149.134C427.467 175.142 452.057 127.021 452.286 126.219V111.554C452.286 106.627 441.077 108.69 443.479 104.221C444.966 101.586 446.339 105.482 453.201 104.221C462.351 102.617 461.779 107.429 461.779 112.47C467.955 105.367 475.733 100.784 485.455 105.711ZM417.974 130.917V109.377C414.771 106.627 411.226 105.138 406.651 105.138C387.55 105.138 387.207 156.696 405.736 156.696C416.83 156.696 417.974 145.124 417.974 130.917Z" fill="#0A4133"/>
<path d="M546.287 153.946C547.202 154.404 547.545 155.435 547.088 156.352C545.601 159.331 545.258 154.862 535.536 157.383C528.331 159.216 522.269 157.727 523.984 154.633C525.357 152.227 533.134 157.039 530.504 152.456L512.661 123.24L506.371 128.282V150.623C506.371 151.998 507.057 152.686 508.43 152.686V152.8C509.916 152.915 514.491 153.717 513.119 156.352C511.746 159.331 511.289 154.862 501.681 157.383C494.476 159.216 488.414 157.727 490.13 154.633C491.616 151.998 496.878 157.383 496.878 152.113V74.3177C496.878 71.7972 494.476 71.1097 493.332 70.9951C484.983 70.0786 488.071 64.8082 490.587 66.2977C496.191 69.2766 506.371 62.8605 506.371 71.7972V125.876L533.134 103.419C534.964 101.815 537.366 104.794 535.422 106.284L515.406 121.063C518.952 121.063 522.154 123.24 523.641 125.646L539.082 150.967C539.768 151.998 541.255 152.571 542.742 152.8C543.885 153.029 545.029 153.258 546.287 153.946Z" fill="#0A4133"/>
<path d="M151.251 87.8798C152.052 88.3381 152.509 89.4838 152.052 90.4004C150.565 93.2647 150.222 88.7964 140.5 91.317C133.294 93.1502 127.232 91.7753 128.948 88.5672C130.435 85.9321 135.696 91.317 135.696 86.0467V61.6426L145.189 49.4979V84.5572C145.303 85.9321 145.875 86.6195 147.248 86.7341C148.506 86.8487 149.878 87.1924 151.251 87.8798ZM185.106 87.8798C186.021 88.3381 186.364 89.4838 185.906 90.4004C184.419 93.2647 184.076 88.7964 174.354 91.317C167.149 93.1502 161.201 91.7753 162.917 88.5672C164.404 85.9321 169.665 91.317 169.665 86.0467V45.4879C169.665 43.1964 168.636 40.6758 166.463 39.9884C138.327 33.3432 125.517 92.5773 103.214 92.3481C97.1519 92.2336 92.2338 87.4215 92.2338 81.3492V35.4055C92.2338 25.4376 82.7407 32.1974 82.7407 27.6145C82.7407 24.8648 87.5445 25.7814 92.2338 25.7814C92.2338 16.3864 92.2338 15.9281 101.727 15.9281V25.7814H118.197C120.599 25.7814 120.599 29.4477 118.197 29.4477H101.727V84.3281C101.727 88.6818 102.299 91.2024 105.387 90.2858C117.282 86.7341 127.004 68.517 134.095 58.2055C134.667 57.518 135.239 56.716 135.696 56.0286V8.25173C135.696 5.73113 133.409 5.0437 132.15 4.92913C123.801 4.01254 127.004 -1.14323 129.405 0.231641C135.01 3.32511 145.189 -3.20555 145.189 5.8457V45.1442C162.231 29.7914 171.953 43.7693 182.246 38.4989C184.305 37.4678 187.508 41.1341 181.674 42.6236C180.302 42.9673 179.158 43.9984 179.158 45.4879V84.6718C179.158 85.9321 179.844 86.6195 181.217 86.7341C182.475 86.8487 183.733 87.1924 185.106 87.8798Z" fill="#0A4133"/>
<path d="M192.798 78.1411C194.514 68.8607 207.896 60.7261 215.673 56.716C220.934 54.4246 223.107 46.9773 217.389 43.0819C196.573 28.4165 186.508 57.4035 192.798 78.1411ZM228.025 63.1321C232.944 63.1321 228.025 78.8286 222.421 85.0155C207.209 101.629 181.59 89.3693 181.59 64.9653C181.59 37.4678 214.186 25.5522 227.339 52.706C228.597 55.2266 214.529 56.2577 201.148 68.6316C183.076 85.2446 206.637 99.7954 220.934 83.8698C230.199 73.5582 223.336 63.1321 228.025 63.1321Z" fill="#0A4133"/>
</svg>
