<svg width="298" height="244" viewBox="0 0 298 244" fill="none" xmlns="http://www.w3.org/2000/svg">
<path d="M57.8837 79.13C57.8837 57.2819 40.0374 39.565 18.03 39.565C40.0374 39.565 57.8837 21.848 57.8837 0C57.8837 21.848 75.73 39.565 97.7374 39.565C75.73 39.565 57.8837 57.2819 57.8837 79.13Z" fill="#00913E"/>
<path d="M293.533 150.193C290.125 155.04 285.833 157.306 279.957 155.766C273.972 154.194 270.958 150.02 270.171 144.078C269.931 142.289 269.68 140.5 269.429 138.711C267.222 122.772 265.027 106.844 262.832 90.9051C262.056 85.2995 259.042 81.537 253.45 80.2359C248.076 78.989 243.839 81.0166 240.628 85.3645C239.656 86.6765 238.662 87.9668 237.668 89.257C220.095 112.081 202.587 134.959 184.883 157.685C182.851 160.298 180.143 162.998 177.161 164.137C169.68 166.988 162.613 161.968 161.346 153.251C159.129 138.049 157.065 122.826 155.077 107.592C154.302 101.585 152.237 96.6626 145.783 94.982C139.371 93.3122 134.904 96.2506 131.497 101.39C130.994 102.149 130.405 102.843 129.869 103.559C110.942 128.724 91.9926 153.88 73.1087 179.078L83.0803 104.524C83.965 97.9095 79.2795 91.8268 72.6172 90.9485L54.8802 88.6065C34.8714 85.9717 16.49 99.9371 13.836 119.812L0.107252 222.34C-0.777416 228.954 3.90805 235.037 10.5704 235.915L28.3074 238.257C48.3162 240.892 66.6976 226.927 69.3516 207.052L71.9838 187.373C73.6985 185.085 75.4242 182.808 77.128 180.52C80.8851 175.511 85.079 171.954 91.8178 173.841C98.2289 175.641 100.206 180.596 100.981 186.57C102.903 201.446 105.044 216.29 107.054 231.166C107.829 236.945 110.003 241.695 116.195 243.332C122.541 245.012 126.997 242.182 130.7 237.249C138.192 227.241 145.848 217.363 153.45 207.442C164.579 192.913 175.708 178.395 186.86 163.887C190.147 159.615 194.45 157.783 199.813 159.095C204.957 160.353 207.829 163.801 208.823 168.875C209.173 170.642 209.435 172.431 209.675 174.22C211.914 190.517 214.164 206.803 216.37 223.099C217.135 228.781 219.647 233.064 225.599 234.517C231.235 235.894 235.505 233.725 238.88 229.247C258.179 203.647 277.533 178.08 296.766 152.427C297.661 151.234 297.607 149.347 298 147.786C296.482 148.567 294.396 148.957 293.533 150.182V150.193Z" fill="#00913E"/>
</svg>
