<svg width="110" height="110" viewBox="0 0 110 110" fill="none" xmlns="http://www.w3.org/2000/svg">
<path d="M9.23538 35.1354C9.65362 34.2455 10.0763 33.3652 10.4813 32.4794C12.0453 29.0607 13.5828 25.6325 15.5886 22.4055C17.7196 18.9758 20.1569 15.7721 23.4734 13.2324C24.488 12.4562 25.5837 11.7634 26.6912 11.1035C27.5836 10.5723 28.0284 10.69 28.6572 11.4923C29.1314 12.0974 29.5482 12.7409 30.0195 13.3474C30.5982 14.0922 30.9134 14.121 31.6497 13.5117C32.8412 12.526 33.9722 11.469 35.2151 10.5435C38.3741 8.19411 41.9895 6.71274 45.8936 5.76942C49.381 4.92742 52.5782 3.51998 55.2555 1.21714C55.7386 0.802298 56.1966 0.362814 56.5942 0C57.3438 0.651696 58.0875 1.31982 58.8563 1.9633C60.9843 3.74314 63.4069 5.11773 65.9355 6.33624C69.1975 7.90797 72.4919 9.41947 75.7304 11.0323C77.1972 11.7634 78.5594 12.6752 79.9673 13.5076C80.1528 13.6172 80.3222 13.7486 80.5048 13.8609C80.979 14.1484 81.356 14.1388 81.7831 13.7842C82.1101 13.5131 82.3884 13.1927 82.708 12.9121C83.3869 12.3165 84.1365 11.8647 85.1364 11.9879C85.8743 12.0796 86.4781 12.4425 86.9228 12.949C87.9743 14.1511 89.0155 15.3682 89.9683 16.6388C93.2524 21.0172 95.9489 25.7091 98.4157 30.5202C99.1152 31.8824 99.8398 33.2337 100.553 34.5905C100.955 35.3559 101.411 35.4668 102.142 34.9342C102.751 34.4892 103.321 33.9977 103.928 33.5473C104.15 33.383 104.426 33.2803 104.751 33.1105C105.277 34.1374 105.804 35.1053 106.274 36.0979C107.786 39.2989 108.717 42.645 109.034 46.128C109.424 50.4188 108.875 54.6261 107.608 58.7608C107.398 59.4508 107.227 60.1573 107.124 60.8678C107.019 61.5866 107.427 62.0877 108.118 62.393C108.249 62.4519 108.381 62.519 108.523 62.5464C109.654 62.7654 110.007 63.3459 110 64.5453C109.993 65.7679 109.657 66.9412 109.181 68.0762C106.86 73.617 103.785 78.7648 99.8737 83.4746C99.4952 83.9291 99.0416 84.3508 98.5527 84.7027C96.7074 86.0266 95.6397 87.8078 95.0035 89.8354C94.5381 91.3209 94.2215 92.8502 93.7193 94.3234C92.3335 98.3869 89.4588 100.99 84.9126 101.918C82.3457 102.442 80.278 103.757 78.5417 105.551C76.6567 107.5 74.3858 108.843 71.6083 109.392C69.1666 109.874 66.7484 109.663 64.3435 109.144C61.8385 108.603 59.3437 108.021 56.8254 107.539C54.6664 107.125 52.4736 107.164 50.3235 107.596C48.4266 107.976 46.577 108.557 44.6845 108.954C42.7759 109.355 40.8526 109.748 38.9131 109.948C36.4095 110.206 34.1194 109.496 32.149 108.04C30.6704 106.948 29.261 105.775 27.8281 104.629C26.2464 103.364 24.4645 102.483 22.4189 102.044C20.7842 101.693 19.2909 101.05 18.0745 99.934C16.9567 98.9085 16.3824 97.6407 16.129 96.221C15.4987 92.6859 14.0835 89.4261 12.1042 86.3647C10.7729 84.3042 9.19267 82.4149 7.5786 80.5433C5.04999 77.612 3.26214 74.3056 1.96175 70.7597C1.11937 68.465 0.506734 66.117 0.0560899 63.732C-0.0234354 63.3103 -0.016072 62.8544 0.0634534 62.4327C0.20925 61.6578 0.908778 61.1745 1.91463 61.0568C2.14731 61.0294 2.38 61.0047 2.60826 60.9582C3.4315 60.7912 3.79378 60.312 3.58319 59.5535C3.29159 58.5006 2.94257 57.4629 2.61121 56.4196C2.02655 54.5795 1.45367 52.7285 1.29462 50.8131C1.16355 49.2414 1.1341 47.6546 1.19006 46.0774C1.27548 43.6773 1.64807 41.2992 2.59354 39.0511C3.14432 37.7395 3.89392 36.4991 4.564 35.2313C4.65383 35.0629 4.78932 34.9123 4.91745 34.7644C5.62139 33.9621 6.30178 33.7896 7.32088 34.2127C7.95855 34.4769 8.5653 34.8069 9.23538 35.13V35.1354ZM10.2884 41.1842C10.1381 41.0555 10.0306 40.9473 9.90545 40.8583C9.29134 40.4216 8.70079 39.9506 8.04839 39.5714C7.58744 39.303 7.16183 39.4249 6.86876 39.852C6.61251 40.2258 6.39161 40.6365 6.24434 41.0582C5.53892 43.0817 5.06619 45.1505 4.89388 47.2781C4.726 49.3536 4.75987 51.421 5.265 53.45C5.63023 54.9163 6.128 56.3553 6.5919 57.7997C7.08967 59.3495 7.60658 60.8938 8.13822 62.4341C8.31936 62.9585 8.25898 63.1145 7.68169 63.3213C7.09556 63.5308 6.50206 63.732 5.93802 63.9867C4.96604 64.4248 4.68181 64.9943 4.87032 65.9869C5.22671 67.8544 5.82757 69.6561 6.55508 71.4237C8.35913 75.8089 11.0733 79.6575 14.5356 83.0584C16.4162 84.9066 17.6857 87.0315 18.1363 89.5616C18.3454 90.7404 18.5369 91.9261 18.8226 93.0898C19.4205 95.5337 20.9506 97.2724 23.5146 98.1391C24.5146 98.4772 25.544 98.7497 26.5763 98.992C27.5159 99.2138 28.4393 99.437 29.0033 100.246C30.2507 102.036 32.0047 103.271 33.9678 104.306C35.1474 104.927 36.2902 104.968 37.5273 104.445C38.8836 103.872 40.265 103.338 41.6685 102.869C46.6565 101.203 51.8006 100.542 57.0861 100.975C60.6927 101.27 64.1683 102.105 67.523 103.372C68.7969 103.852 70.0384 104.422 71.3432 104.812C73.891 105.573 75.9483 104.939 77.5388 102.947C78.0484 102.308 78.4283 101.574 78.8245 100.864C79.4489 99.7409 80.3119 98.9523 81.7522 98.8729C82.0865 98.8538 82.4208 98.8045 82.7521 98.7538C85.322 98.3554 87.4545 97.2889 88.9227 95.227C89.8667 93.9003 90.3998 92.4231 90.7062 90.8719C91.2849 87.9406 92.4969 85.2886 94.7561 83.1323C96.4423 81.5236 97.887 79.7478 99.2507 77.9064C100.937 75.6282 102.628 73.3541 103.841 70.8117C104.532 69.3645 105.108 67.8777 105.301 66.2977C105.468 64.9218 105.159 64.611 103.663 64.4508C102.452 64.3207 102.1 63.8566 102.418 62.764C102.583 62.2013 102.795 61.6496 102.984 61.0924C104.112 57.76 104.906 54.3646 105.1 50.8679C105.25 48.1611 104.984 45.4845 104.286 42.8504C104.115 42.2041 103.937 41.5566 103.695 40.9322C103.395 40.1532 102.906 39.9383 102.083 40.2258C101.469 40.4407 100.888 40.7378 100.293 41.0007C100.1 41.087 99.9134 41.1828 99.7072 41.2814C99.6277 41.1308 99.5688 41.0226 99.5114 40.9144C98.1315 38.2707 96.7913 35.6091 95.3628 32.9887C93.5691 29.6987 91.712 26.4375 89.8652 23.1735C89.1495 21.9098 88.4456 20.6352 87.6179 19.4345C87.1452 18.7486 86.4854 18.1544 85.8198 17.6122C85.2763 17.17 84.7697 17.3329 84.512 17.9668C84.3117 18.4583 84.1939 18.9813 84.0761 19.4988C83.9333 20.1273 83.8302 20.7639 83.6991 21.458C83.5386 21.317 83.4428 21.2376 83.3515 21.1527C81.5224 19.455 79.5461 17.9189 77.4387 16.5292C73.5611 13.9731 69.361 11.9592 65.0209 10.193C62.0903 9.00052 59.2951 7.63004 57.0154 5.48602C56.5765 5.07392 56.2201 5.10267 55.5736 5.39292C51.9994 6.99067 48.4443 8.63086 44.8333 10.1533C41.3754 11.6114 38.0589 13.2776 35.1017 15.4969C33.1755 16.9414 31.3478 18.498 29.4746 20.0013C28.9827 20.3956 28.4835 20.7803 27.9121 21.228C27.9121 20.1026 27.9371 19.0826 27.9003 18.0654C27.8841 17.6382 27.7869 17.1987 27.6337 16.7962C27.3362 16.0145 26.6941 15.779 25.9342 16.2048C25.4291 16.4882 24.9269 16.84 24.5587 17.2631C23.1847 18.8376 21.7857 20.4025 20.5427 22.0659C17.2984 26.4115 14.7653 31.1212 12.5651 35.9884C11.7949 37.6929 11.0659 39.4125 10.2913 41.1896L10.2884 41.1842Z" fill="black"/>
<path d="M30.8677 32.7696C31.7249 32.0125 32.4759 31.3485 33.2285 30.6845C35.3035 28.854 37.4035 27.0467 39.8688 25.6722C42.6949 24.0963 45.5505 22.567 48.3987 21.0268C50.5886 19.8425 52.7858 18.6719 54.9816 17.4958C55.1716 17.3945 55.363 17.2918 55.5633 17.207C55.9212 17.0577 56.2687 17.0755 56.5029 17.3945C57.6796 18.9978 59.4173 19.9192 61.2126 20.7776C64.6012 22.3973 67.7219 24.3989 70.682 26.6141C73.8998 29.0224 77.0779 31.4772 80.2736 33.9101C80.3296 33.9525 80.3958 33.984 80.4562 34.021C80.4474 34.0621 80.44 34.1031 80.4312 34.1442C80.1278 34.1908 79.8259 34.2619 79.5211 34.2784C79.0675 34.303 78.6124 34.2715 78.1588 34.2934C77.7538 34.3126 77.3621 34.3975 77.1972 34.811C77.0278 35.2326 77.0941 35.6379 77.4446 35.9418C77.7185 36.1787 78.0602 36.3485 78.3812 36.536C78.8996 36.8386 79.4209 37.1384 79.9496 37.4273C80.2883 37.6122 80.6241 37.8394 80.9938 37.9325C83.8478 38.6513 85.886 40.3326 87.3749 42.6272C88.3425 44.1182 89.2158 45.6611 90.1068 47.1945C90.2157 47.3821 90.173 47.6477 90.2128 47.9777C89.475 47.6751 88.8668 47.4177 88.2497 47.1754C87.4957 46.8796 86.7358 46.5921 85.9759 46.3115C85.6475 46.1896 85.322 46.165 85.0333 46.4196C84.727 46.6907 84.7094 47.0261 84.8213 47.3643C84.9008 47.608 85.023 47.8503 85.1762 48.0612C86.5222 49.9081 87.855 51.7646 89.2423 53.5855C90.2275 54.8794 91.0331 56.2293 91.335 57.8092C91.5368 58.8703 91.4189 59.9177 91.2849 60.9774C91.1701 61.8769 91.1789 62.7928 91.1642 63.7005C91.1465 64.8273 91.1597 65.9541 91.1597 67.1562C91.0272 67.0562 90.9285 66.9932 90.8446 66.9152C90.2437 66.3566 89.6488 65.7925 89.045 65.238C88.8682 65.0765 88.6783 64.9231 88.4765 64.789C88.0406 64.5014 87.5679 64.4001 87.076 64.6548C86.5915 64.9053 86.5576 65.3462 86.5679 65.7939C86.6003 67.1342 87.02 68.3829 87.5605 69.6151C88.4367 71.6099 88.154 73.4938 86.7431 75.1956C83.9877 78.5211 81.0512 81.707 77.9571 84.7643C76.0102 86.6878 73.9675 88.5293 72.0265 90.4584C70.8881 91.5906 69.5686 91.8248 67.9972 91.5975C65.4407 91.2278 62.8782 90.8842 60.3054 90.6364C58.167 90.431 56.014 90.3174 53.8638 90.2722C50.0275 90.19 46.2456 90.672 42.4961 91.3935C41.8953 91.5085 41.2915 91.6084 40.6862 91.7029C39.5228 91.885 38.5994 91.4893 37.8424 90.6802C35.7851 88.48 33.7233 86.2853 31.663 84.0879C29.5541 81.8398 27.4408 79.5945 25.3407 77.3396C24.5101 76.4483 23.8312 75.4666 23.4439 74.3303C22.8563 72.5984 23.1243 70.9472 24.142 69.4357C24.8592 68.3706 25.0845 67.1904 25.3393 66.0088C25.4644 65.4324 25.1125 64.8958 24.5411 64.6343C24.0153 64.3933 23.4145 64.4645 22.9918 64.9464C22.4012 65.62 21.8902 66.3539 21.3512 67.0658C21.1274 67.3629 20.9197 67.6696 20.7047 67.9721C20.6576 67.9721 20.6104 67.9694 20.5633 67.968C20.4367 67.4902 20.2585 67.0179 20.1893 66.5318C19.7843 63.6608 19.4706 60.7775 18.9993 57.916C18.587 55.4202 19.5162 53.487 21.444 51.8235C22.9034 50.5639 24.2922 49.2332 25.7001 47.9229C25.9357 47.7039 26.1404 47.4465 26.3157 47.1822C26.5469 46.8331 26.5852 46.4593 26.2906 46.1143C26.0079 45.7816 25.6102 45.6502 25.1905 45.7748C24.5661 45.9596 23.9535 46.1855 23.357 46.4388C22.6001 46.7592 21.8667 47.1247 21.0022 47.5259C21.2746 46.714 21.497 46.0048 21.7518 45.3038C22.4042 43.5048 23.2436 41.7893 24.354 40.1874C24.9357 39.3496 25.7177 38.7868 26.6809 38.3939C28.6646 37.5848 30.6513 36.7838 32.6158 35.9364C33.093 35.731 33.5628 35.4202 33.903 35.0506C34.6187 34.2715 34.2638 33.4679 33.1858 33.3049C32.7248 33.2351 32.2506 33.2269 31.7941 33.1365C31.5025 33.079 31.2344 32.9202 30.8677 32.771V32.7696ZM55.1657 89.0674L55.1834 89.1824C56.9521 88.9811 58.7429 88.8839 60.485 88.5594C67.0032 87.3437 72.4624 84.3152 76.9394 79.8081C82.5636 74.1468 85.1806 67.3163 85.5812 59.6945C85.6843 57.7339 85.5473 55.7789 85.2631 53.8306C84.8286 50.8473 83.9951 47.9681 82.6829 45.2203C79.6138 38.7964 74.7495 33.8882 68.0517 30.627C62.2641 27.8093 56.1274 27.0303 49.7359 28.3652C43.5653 29.6535 38.3799 32.5998 34.034 36.8099C28.4039 42.2616 25.6397 48.8676 25.2524 56.3676C25.1434 58.465 25.298 60.557 25.5719 62.6422C25.9254 65.3407 26.566 67.9735 27.6646 70.494C30.1771 76.2648 34.168 80.9636 39.6744 84.5055C44.3237 87.4956 49.4988 89.0318 55.1686 89.0687L55.1657 89.0674Z" fill="black"/>
<path d="M28.0726 30.742C27.4864 28.6185 27.6087 26.6757 29.0475 24.9986C29.8545 24.0593 30.8353 23.2379 31.8044 22.4315C35.7836 19.121 40.078 16.2185 44.873 14.0046C46.5092 13.2489 48.2234 12.641 49.8831 11.929C50.7977 11.5375 51.6769 11.0747 52.5708 10.6421C53.2571 10.308 53.9242 9.93288 54.6296 9.64126C55.7312 9.18672 56.8166 9.29077 57.79 9.95479C58.5573 10.4764 59.2598 11.0816 60.0285 11.6005C60.6412 12.0139 61.2744 12.4288 61.9592 12.7149C68.6865 15.5339 74.6906 19.3592 80.144 23.9512C81.4282 25.0328 82.5195 26.2472 82.9583 27.8641C83.2823 29.0566 83.381 30.2669 83.3618 31.5826C82.6697 31.0281 82.0364 30.5339 81.4164 30.0232C79.1146 28.127 76.8467 26.1924 74.511 24.3318C70.5421 21.1692 66.202 18.5309 61.432 16.5183C59.9372 15.8871 58.6515 14.9603 57.4056 13.9827C57.2378 13.8513 57.0684 13.7198 56.8902 13.6007C56.1318 13.0955 55.3262 13.0147 54.4927 13.4173C50.3765 15.4079 46.2471 17.3781 42.153 19.4071C38.8954 21.0213 36.0531 23.1708 33.4302 25.5654C31.7484 27.1015 30.1432 28.7102 28.5041 30.2874C28.3745 30.412 28.2552 30.5448 28.0711 30.7365L28.0726 30.742Z" fill="black"/>
<path d="M10.5947 70.1846C13.2764 70.9582 15.6975 72.0233 17.64 73.8087C18.989 75.0491 20.2084 76.4195 21.4145 77.7859C25.5572 82.4806 29.6704 87.1999 33.791 91.9124C33.9928 92.1438 34.1828 92.3916 34.3286 92.6558C34.5318 93.0282 34.4361 93.2623 34.0561 93.4786C33.9692 93.5279 33.8794 93.5786 33.7822 93.6087C32.0768 94.1385 30.3935 94.7382 28.6602 95.1736C26.192 95.7938 24.4615 95.0887 23.0625 93.0884C21.9521 91.5003 21.4042 89.7328 21.1436 87.8845C20.9065 86.2046 20.5515 84.5767 19.3881 83.2103C18.6429 82.3355 17.8433 81.5003 17.0981 80.6241C14.4649 77.5313 12.3575 74.1496 10.7051 70.5201C10.6668 70.4365 10.6477 70.3462 10.5947 70.1846Z" fill="black"/>
<path d="M73.8895 93.8634C75.3062 92.471 76.72 91.1799 78.0101 89.7916C80.5269 87.0822 82.9937 84.3316 85.4457 81.5715C87.8977 78.81 90.2805 75.9951 92.7429 73.2405C94.5057 71.2676 96.7515 69.9176 99.3759 69.1195C99.4392 69.1003 99.507 69.0934 99.7176 69.0551C99.2964 70.2572 98.9562 71.3922 98.5055 72.4875C97.1978 75.6624 95.0727 78.3158 92.4292 80.6405C90.4853 82.3505 88.9375 84.3125 88.3336 86.7974C88.1569 87.5244 88.1157 88.2801 87.9287 89.0044C87.4338 90.917 86.3705 92.5586 84.9067 93.9496C83.4679 95.316 81.6211 95.6761 79.6389 95.4282C77.6581 95.1804 75.8246 94.4343 73.888 93.8647L73.8895 93.8634Z" fill="black"/>
<path d="M94.5587 66.4908C94.6014 65.6008 94.6368 64.7479 94.6854 63.8949C94.7929 61.9932 94.893 60.0902 95.0197 58.1885C95.1287 56.5469 95.1596 54.8917 95.4217 53.2706C95.7634 51.1622 96.9253 49.3687 98.3774 47.7477C99.0872 46.9563 99.8604 46.2143 100.606 45.4489C100.651 45.4599 100.697 45.4695 100.743 45.4804C100.872 46.165 101.025 46.8468 101.13 47.5354C101.709 51.3525 101.215 55.097 100.227 58.8087C99.8368 60.2723 99.5261 61.755 99.099 63.2076C98.5114 65.2093 96.9165 66.2019 94.8091 66.5045C94.7531 66.5127 94.6942 66.499 94.5602 66.4921L94.5587 66.4908Z" fill="black"/>
<path d="M24.3172 24.3879C24.6471 26.1335 24.6397 27.8627 24.0286 29.57C22.5912 33.5897 20.7518 37.4561 18.8727 41.3074C17.8624 43.3761 16.8507 45.4435 15.8375 47.5108C15.7903 47.6066 15.7388 47.7011 15.6637 47.8435C14.6402 47.0303 13.8346 46.1335 13.5666 44.8972C13.3368 43.8348 13.6093 42.8353 14.0776 41.8851C15.7196 38.5459 17.3175 35.1847 19.0685 31.8961C20.2025 29.7672 21.553 27.7354 22.8563 25.6886C23.1891 25.167 23.7134 24.7507 24.1493 24.2853C24.2053 24.3195 24.2598 24.3537 24.3157 24.3879H24.3172Z" fill="black"/>
<path d="M8.59328 45.2764C9.32668 45.8679 10.1013 46.421 10.7846 47.0576C12.141 48.32 12.8199 49.9109 13.2588 51.625C14.0791 54.8287 14.7226 58.0598 15.1203 61.3306C15.3515 63.235 15.5547 65.1436 15.7535 67.0521C15.7859 67.3588 15.7461 67.675 15.699 67.9817C15.6769 68.1227 15.5562 68.2514 15.4354 68.4623C15.1055 68.0515 14.8287 67.723 14.5695 67.3821C11.8951 63.8552 10.2324 59.9368 9.35025 55.7172C8.64925 52.3629 8.4416 48.9716 8.47252 45.5612C8.47252 45.4969 8.48136 45.4339 8.48578 45.3695C8.52112 45.3394 8.55647 45.3079 8.59181 45.2778L8.59328 45.2764Z" fill="black"/>
<path d="M87.2733 26.1062C87.8609 26.5525 88.369 27.081 88.7048 27.7135C89.3645 28.9566 89.986 30.219 90.5928 31.4854C92.3438 35.1382 94.0816 38.7978 95.8179 42.4574C95.9769 42.7915 96.0844 43.1475 96.2052 43.4952C96.4261 44.1291 96.2361 44.6918 95.7722 45.1573C95.2067 45.7241 94.5955 46.2512 93.9475 46.8468C93.7532 46.5018 93.5897 46.2211 93.4336 45.9363C91.8784 43.0995 90.394 40.234 89.2482 37.2261C88.2585 34.6261 87.5678 31.9632 87.2925 29.2168C87.1908 28.2023 87.1953 27.1795 87.1496 26.1596C87.1908 26.1431 87.2306 26.1253 87.2718 26.1089L87.2733 26.1062Z" fill="black"/>
<path d="M40.5875 95.4214C40.8335 95.3461 41.0367 95.2845 41.2782 95.2092C41.91 96.9959 42.53 98.747 43.147 100.49C42.7185 100.768 42.3974 100.757 41.9983 100.442C40.8482 99.5356 39.6538 98.6771 38.4757 97.8023C38.3755 97.727 38.2636 97.664 38.0604 97.638C38.5243 98.9633 38.9896 100.287 39.4683 101.654C39.2385 101.726 39.025 101.793 38.7732 101.871C38.1384 100.08 37.5199 98.3321 36.9014 96.5892C37.324 96.3414 37.6421 96.3305 38.0339 96.6372C39.2091 97.5586 40.4255 98.4334 41.6287 99.3261C41.7259 99.3987 41.8334 99.4575 42.0145 99.4781C41.5448 98.1432 41.075 96.8069 40.5875 95.4228V95.4214Z" fill="black"/>
<path d="M57.4999 98.6867C56.7768 98.6101 56.7827 98.6114 56.9094 98.0063C57.2127 96.54 57.5087 95.0736 57.8106 93.606C57.843 93.4485 57.8887 93.2924 57.9432 93.0843C58.9387 93.2938 59.9652 93.2924 60.8665 93.7552C61.4644 94.0619 61.6985 94.5712 61.6396 95.1982C61.5822 95.8157 61.2715 96.2771 60.6559 96.5427C60.513 96.6043 60.3643 96.655 60.1669 96.7303C60.4585 97.5778 60.7442 98.4102 61.0329 99.2481C60.3923 99.3234 60.298 99.2727 60.1331 98.7771C59.9372 98.1938 59.7428 97.6106 59.5528 97.026C59.4851 96.8179 59.3953 96.6714 59.1184 96.6468C58.7576 96.6139 58.4027 96.5263 57.9903 96.4523C57.8224 97.2177 57.6604 97.9529 57.4999 98.684V98.6867ZM60.8886 95.0572C60.918 94.5739 60.6794 94.2262 60.2008 94.081C59.7325 93.9387 59.2392 93.8593 58.7517 93.7785C58.6766 93.7662 58.5116 93.8784 58.494 93.9551C58.3585 94.5246 58.2377 95.0969 58.142 95.6733C58.1273 95.7596 58.251 95.9348 58.3393 95.954C58.7649 96.0471 59.1979 96.1333 59.6324 96.1607C60.3923 96.21 60.8841 95.7582 60.89 95.0572H60.8886Z" fill="black"/>
<path d="M50.1585 94.8039C49.9126 94.8546 49.7153 94.8957 49.5017 94.9395C49.4531 94.8737 49.403 94.808 49.3574 94.7409C48.9745 94.1741 48.49 93.9688 47.8405 94.1016C47.06 94.2618 46.5828 94.6807 46.5269 95.3351C46.4503 96.2182 46.599 97.078 47.0585 97.8611C47.7404 99.0235 49.0894 98.8839 49.9111 98.265C50.0422 98.1665 50.107 97.9159 50.0923 97.7434C50.0658 97.423 49.9582 97.1081 49.8714 96.7316C49.4148 96.8069 48.9789 96.8809 48.5504 96.9521C48.3236 96.4783 48.3309 96.466 48.8125 96.3716C49.3397 96.2675 49.8669 96.1621 50.4663 96.043C50.6165 96.7084 50.8109 97.3477 50.8787 97.9981C50.8993 98.1993 50.6283 98.4923 50.4089 98.6415C48.6741 99.8244 46.5887 99.3781 46.0247 97.3012C45.8288 96.5769 45.6374 95.8499 45.848 95.0901C46.0895 94.2221 46.8612 93.6457 47.9745 93.5265C48.8994 93.428 49.6711 93.8086 50.0746 94.5643C50.1055 94.6232 50.1202 94.6903 50.1585 94.8026V94.8039Z" fill="black"/>
<path d="M63.5379 100.091C64.3921 99.1659 65.2198 98.2678 66.0474 97.371C66.5437 96.8343 67.0297 96.2894 67.5451 95.7705C67.6394 95.6761 67.8853 95.6281 68.0164 95.6733C68.1519 95.7199 68.3198 95.9006 68.3242 96.0279C68.386 97.8639 68.4229 99.6999 68.4626 101.537C68.4626 101.6 68.4376 101.663 68.4243 101.726C67.9766 101.653 67.7528 101.43 67.7528 101.055C67.7528 100.324 67.3792 99.8354 66.6321 99.589C66.3154 99.4836 65.9885 99.3987 65.6866 99.2645C65.3876 99.1317 65.2021 99.2056 65.0283 99.4425C64.8972 99.6218 64.7352 99.782 64.585 99.949C64.315 100.251 63.966 100.3 63.5379 100.094V100.091ZM67.7115 96.5892C67.6821 96.5769 67.6526 96.5632 67.6232 96.5509C67.0002 97.2492 66.3773 97.946 65.7087 98.6963C66.4215 98.9304 67.0518 99.1372 67.7115 99.3535V96.5892Z" fill="black"/>
<path d="M55.9948 97.9529V98.5101H52.2468C52.2306 98.3376 52.1938 98.1008 52.1864 97.8625C52.1423 96.3661 52.1128 94.871 52.0598 93.3746C52.0495 93.1021 52.1187 92.957 52.428 92.957C53.5384 92.957 54.6488 92.957 55.796 92.957V93.417C55.0096 93.4389 54.2099 93.465 53.4102 93.4814C52.7844 93.4951 52.7873 93.4937 52.8094 94.0852C52.8241 94.5027 52.8123 94.9217 52.8123 95.3694H55.4249C55.5825 95.8253 55.5353 95.8855 55.0081 95.8979C54.4235 95.9115 53.8388 95.9334 53.2541 95.9389C52.9522 95.9417 52.8462 96.0443 52.8757 96.3373C52.9228 96.7837 52.936 97.2341 52.9287 97.6818C52.9243 97.9584 53.0406 98.0337 53.3175 98.0213C54.0185 97.9885 54.7209 97.9734 55.4234 97.9529C55.5972 97.9474 55.771 97.9529 55.9948 97.9529Z" fill="black"/>
<path d="M42.9939 94.767C43.231 94.6999 43.4224 94.6465 43.6728 94.5753C43.8171 95.0257 43.9614 95.4611 44.0969 95.8979C44.4666 97.0986 44.8303 98.3006 45.2029 99.5C45.2854 99.7642 45.3738 99.9792 44.9526 100.08C44.5432 100.179 44.5653 99.9176 44.5005 99.7067C44.0307 98.1802 43.5609 96.6522 43.0926 95.1243C43.0602 95.0203 43.0336 94.9162 42.9924 94.7642L42.9939 94.767Z" fill="black"/>
<path d="M63.6351 94.333C63.7647 94.3453 63.8546 94.3425 63.9356 94.3644C64.0578 94.3987 64.1756 94.4493 64.345 94.5123C63.753 96.2949 63.1668 98.0624 62.5704 99.8587C62.3318 99.7902 62.1286 99.7327 61.8723 99.6588C62.4643 97.8721 63.049 96.1046 63.6351 94.333Z" fill="black"/>
<path d="M73.8983 57.4026C73.7378 64.355 71.1974 69.6507 65.6925 73.5786C63.1035 75.4256 60.1537 76.514 56.8843 76.7262C50.1968 77.1589 45.0071 74.6356 41.1221 69.6616C38.9926 66.9344 37.6848 63.8662 37.2578 60.5283C36.3535 53.4678 38.6995 47.4711 44.3871 42.6888C46.7124 40.7337 49.5312 39.6576 52.6297 39.2195C55.1451 38.8635 57.6516 38.8868 60.1331 39.4276C63.1447 40.0848 65.6895 41.5127 67.7469 43.6486C70.4846 46.4922 72.5464 49.6973 73.3623 53.4815C73.6804 54.9547 73.7761 56.4703 73.8983 57.4013V57.4026ZM66.4318 53.4089C66.2403 53.3336 66.1534 53.2843 66.0577 53.2652C64.236 52.8777 62.4128 52.493 60.5896 52.1083C59.5352 51.8851 58.4734 51.6921 57.4292 51.4319C56.5942 51.2238 56.3674 50.9158 56.4013 50.134C56.4263 49.5645 56.5191 48.9977 56.578 48.4295C56.7665 46.6017 56.958 44.774 57.1303 42.9448C57.142 42.8134 57.0493 42.6272 56.9373 42.5423C56.7223 42.378 56.5736 42.5341 56.4455 42.7039C55.1171 44.481 53.8005 46.2677 52.4427 48.0242C52.0907 48.4801 51.6607 48.9237 51.1644 49.2332C50.1954 49.8369 49.1203 49.6494 48.0703 49.3783C46.5917 48.9977 45.1219 48.5869 43.636 48.2378C43.0425 48.0982 42.4151 48.0858 41.7215 48.0078C41.801 48.2337 41.829 48.3501 41.882 48.4569C42.6876 50.1025 43.4887 51.7496 44.3046 53.3898C44.8627 54.5111 45.2029 55.6611 44.9275 56.907C44.658 58.1228 43.932 59.1044 43.0572 60.0012C41.9586 61.128 41.0352 62.3656 40.2532 63.6978C40.1943 63.7964 40.159 63.9073 40.0912 64.062C40.212 64.0346 40.2665 64.0277 40.3165 64.0099C42.0602 63.4226 43.8201 62.8695 45.5446 62.2342C47.1233 61.6537 47.8346 61.9179 48.5091 63.3665C49.7933 66.1252 51.1187 68.8662 52.4309 71.614C52.4751 71.7071 52.5472 71.7906 52.643 71.933C52.7387 71.7167 52.8359 71.5633 52.8742 71.3977C53.1054 70.4174 53.3616 69.4412 53.5384 68.4527C53.9816 65.9732 54.4426 63.4938 54.7901 61.002C55.0449 59.1756 55.983 57.9557 57.8254 57.2465C59.784 56.4922 61.7059 55.6515 63.6234 54.8095C64.557 54.4002 65.4465 53.9032 66.4318 53.4076V53.4089ZM51.2041 73.6498C51.1968 73.7005 51.1909 73.7525 51.1835 73.8032C51.6577 73.9976 52.1172 74.2344 52.6091 74.3768C54.232 74.8478 55.8608 74.7177 57.4454 74.2454C62.3156 72.7941 66.0032 69.9108 68.6644 65.9157C70.7468 62.7887 71.4183 59.3331 70.9205 55.6844C70.5052 52.6422 69.305 49.9095 67.177 47.5478C67.0695 47.4287 66.9752 47.3 66.8751 47.1768C66.8294 47.2055 66.7838 47.2329 66.7381 47.2616C66.7381 47.4068 66.7381 47.5519 66.7381 47.6956C66.7381 49.7123 66.7352 51.7277 66.744 53.7444C66.7514 55.4626 66.6453 57.1712 66.3037 58.8621C65.5982 62.3492 64.0004 65.4105 61.3068 67.9557C59.2082 69.9382 56.6973 71.3374 53.9949 72.4724C53.0642 72.8626 52.1334 73.2569 51.2041 73.6485V73.6498Z" fill="black"/>
<path d="M55.447 87.0397C52.9508 87.0383 50.9935 85.2161 50.9906 82.8913C50.9877 80.572 52.9905 78.7183 55.4956 78.7237C57.9535 78.7292 59.9402 80.6063 59.9284 82.9146C59.9166 85.2393 57.9594 87.0411 55.447 87.0384V87.0397Z" fill="black"/>
<path d="M28.535 54.3399C28.7618 53.3295 28.7633 53.3377 29.7559 53.1981C31.2742 52.9845 32.7896 52.76 34.3065 52.5382C34.3595 52.53 34.4096 52.4985 34.5406 52.4464C34.3934 52.3369 34.2932 52.2534 34.1842 52.1822C32.8736 51.3347 31.5717 50.4736 30.2433 49.6521C29.8663 49.4193 29.7205 49.1962 29.8987 48.8032C29.9591 48.6691 29.9782 48.5185 30.0313 48.3213C32.1976 48.7868 34.3389 49.2455 36.5126 49.7123C36.4492 49.982 36.3977 50.2038 36.3314 50.4886C34.6349 50.1025 32.9708 49.7247 31.3066 49.3468C31.2919 49.3632 31.2772 49.381 31.2624 49.3974C31.3493 49.4659 31.4318 49.5426 31.5246 49.6042C32.8426 50.4667 34.1592 51.3293 35.4817 52.1836C35.7026 52.326 35.8558 52.4533 35.7865 52.7394C35.7144 53.0434 35.4832 53.0571 35.2299 53.094C33.5422 53.3405 31.8559 53.5938 30.1564 53.9333C31.8221 54.2701 33.4877 54.6069 35.1989 54.9533C35.1444 55.2175 35.1003 55.438 35.0399 55.735C32.8618 55.2682 30.7116 54.8068 28.5365 54.3399H28.535Z" fill="black"/>
<path d="M41.8599 79.8095C42.9512 78.5704 44.0439 77.3327 45.1573 76.0704C45.387 76.2484 45.5726 76.3935 45.7949 76.5674C44.3635 78.1419 42.9585 79.6876 41.5241 81.2662C41.2753 81.0745 41.0264 80.9266 40.8438 80.7254C40.7613 80.635 40.7672 80.4256 40.8128 80.2941C41.3209 78.8319 41.8452 77.3752 42.3651 75.9171C42.4137 75.7788 42.4608 75.6405 42.5506 75.3818C41.7465 75.7747 41.0558 76.1115 40.3666 76.451C39.4874 76.8837 38.5994 77.304 37.7349 77.7626C37.3991 77.9406 37.1591 77.942 36.9102 77.6641C36.7998 77.5408 36.651 77.4491 36.4728 77.3054C37.8998 75.735 39.3122 74.1811 40.7466 72.6011C40.963 72.7736 41.1457 72.9201 41.3754 73.1049C40.2134 74.3467 39.0736 75.5639 37.9352 76.781C37.9484 76.8029 37.9602 76.8262 37.9735 76.8481C38.0928 76.7961 38.215 76.7481 38.3313 76.6906C39.7819 75.9814 41.234 75.2736 42.6831 74.5589C42.8864 74.459 43.041 74.3974 43.2708 74.5644C43.5226 74.7479 43.4651 74.9163 43.39 75.1298C42.8937 76.5373 42.4033 77.9461 41.9115 79.3563C41.8629 79.4946 41.8216 79.6342 41.776 79.7739C41.8025 79.7862 41.8305 79.7985 41.857 79.8108L41.8599 79.8095Z" fill="black"/>
<path d="M65.5614 39.2387C65.1049 39.1401 64.7986 38.9785 64.7117 38.4432C64.4495 36.8044 64.1049 35.1779 63.7912 33.5459C63.7824 33.4994 63.7603 33.4542 63.7088 33.3008C63.3671 34.0347 63.0652 34.6768 62.7677 35.3203C62.4437 36.0199 62.1138 36.7168 61.8075 37.4232C61.6882 37.6957 61.5292 37.6779 61.295 37.5724C61.0903 37.4807 60.893 37.441 61.0344 37.1398C61.8429 35.4202 62.6322 33.6938 63.429 31.9687C63.4569 31.9084 63.4996 31.8537 63.532 31.8003C64.2051 31.9071 64.2743 31.9687 64.3833 32.5355C64.6969 34.1661 65.0106 35.7967 65.3258 37.4273C65.3376 37.4876 65.3597 37.5464 65.4672 37.6258C66.1269 36.1992 66.7867 34.7726 67.4612 33.3145C67.6335 33.3761 67.7778 33.4364 67.9266 33.4802C68.146 33.5445 68.1872 33.6513 68.0945 33.8498C67.2712 35.6228 66.4568 37.3986 65.6365 39.1743C65.6262 39.1962 65.5938 39.2099 65.5599 39.2387H65.5614Z" fill="black"/>
<path d="M49.2852 31.4142C50.2071 31.3444 51.1069 31.1979 52.0009 31.2294C53.0627 31.2677 53.7696 31.8865 54.1731 32.7806C54.5265 33.561 54.6178 34.3865 54.5044 35.2203C54.3645 36.2472 53.5001 37.0618 52.3146 37.2973C51.7446 37.4095 51.1629 37.4725 50.5841 37.5533C50.3677 37.5834 50.1954 37.5807 50.1526 37.2973C49.8728 35.4832 49.5754 33.6705 49.2867 31.8578C49.2705 31.7524 49.2852 31.6415 49.2852 31.4142ZM51.4589 31.8249C51.2483 31.8482 50.917 31.8934 50.5827 31.9208C50.2675 31.9468 50.163 32.0837 50.213 32.3781C50.4118 33.5432 50.5827 34.7124 50.7918 35.8761C50.9803 36.9249 50.995 36.9221 52.129 36.6853C52.9949 36.5045 53.5501 35.9569 53.6856 35.1217C53.8182 34.3071 53.6606 33.5226 53.2777 32.7888C52.9434 32.1453 52.3632 31.8236 51.4604 31.8263L51.4589 31.8249Z" fill="black"/>
<path d="M78.6713 58.4445C78.2899 58.398 77.9541 58.3761 77.6257 58.3158C76.5241 58.1091 75.7598 57.3725 75.5875 56.3744C75.4034 55.3051 75.885 54.3276 76.9277 53.8512C78.1412 53.2967 79.4312 53.2008 80.7184 53.5965C81.9039 53.9621 82.465 54.8602 82.3972 56.1225C82.3442 57.1151 81.5121 57.9626 80.2751 58.2268C79.7375 58.3418 79.1809 58.3774 78.6713 58.4445ZM78.77 57.7148C79.3782 57.5669 80.144 57.4492 80.8494 57.1918C81.4871 56.959 81.7581 56.41 81.7286 55.7665C81.6992 55.1231 81.3752 54.6261 80.7301 54.4002C79.4577 53.9552 78.1956 54.0634 77.0131 54.6671C76.4137 54.9738 76.1751 55.5256 76.2532 56.1622C76.3312 56.7988 76.7009 57.2575 77.3591 57.4547C77.7553 57.5738 78.1809 57.6107 78.77 57.7148Z" fill="black"/>
<path d="M75.6803 48.2994C75.751 48.4651 75.8526 48.6129 75.8673 48.7663C75.8776 48.8827 75.8143 49.0538 75.7186 49.1209C74.8305 49.7438 74.941 51.3046 75.9218 51.8125C76.5477 52.1357 77.3312 51.755 77.4136 51.0472C77.4858 50.427 77.4725 49.7986 77.5123 49.1756C77.5712 48.2488 78.0616 47.6669 78.9659 47.5409C79.2766 47.4985 79.6477 47.5628 79.9334 47.6915C81.0689 48.2022 81.6226 49.8588 80.9835 50.872C80.767 51.2142 80.3914 51.4703 80.0704 51.7838C79.6315 51.1828 79.6462 51.1116 80.1308 50.7337C80.5593 50.3996 80.6477 49.9684 80.5151 49.4782C80.3708 48.9415 80.1425 48.4623 79.5108 48.2939C79.0675 48.1762 78.5388 48.4404 78.3915 48.8744C78.3017 49.1414 78.2928 49.4344 78.2649 49.7164C78.203 50.3366 78.2015 50.9664 78.0808 51.5757C77.96 52.1795 77.4696 52.5286 76.8422 52.6614C76.1869 52.7997 75.6155 52.6094 75.1958 52.1233C74.4609 51.2704 74.2076 50.3147 74.6052 49.2592C74.7819 48.7882 75.1398 48.4623 75.6832 48.3008L75.6803 48.2994Z" fill="black"/>
<path d="M35.2902 67.2753C36.2136 66.5948 36.3432 65.6953 35.6658 64.8027C35.3815 64.4275 34.9854 64.2673 34.5789 64.3632C34.0443 64.4891 33.7984 64.7205 33.7586 65.2408C33.7086 65.9034 33.741 66.5715 33.6776 67.2328C33.5937 68.1214 33.1372 68.6252 32.3714 68.7744C31.6439 68.9168 30.906 68.5965 30.4466 67.9023C29.9473 67.1466 29.7529 66.3456 30.1726 65.4968C30.3759 65.0847 30.7116 64.8013 31.2182 64.6247C31.2904 64.804 31.3817 64.9492 31.3964 65.1011C31.4082 65.2148 31.3582 65.3859 31.2683 65.4461C30.4142 66.0266 30.4848 67.4081 31.4068 67.9078C32.0606 68.2624 32.8441 67.8777 32.9089 67.1411C32.9531 66.6414 32.8986 66.1334 32.928 65.6323C32.9501 65.2832 32.9884 64.9204 33.1107 64.5932C33.5098 63.528 34.9824 63.2104 35.8366 64.0086C36.6893 64.804 36.9544 65.7802 36.654 66.8632C36.5126 67.3738 36.1488 67.7421 35.5421 67.9502C35.4522 67.712 35.3698 67.4902 35.2888 67.2766L35.2902 67.2753Z" fill="black"/>
<path d="M36.3565 46.3813C36.6922 45.6844 36.6878 45.705 37.2946 45.7926C37.5243 45.8254 37.7982 45.7871 38.0118 45.6967C38.6391 45.4325 38.997 44.9396 39.1649 44.3331C39.2768 43.932 39.1678 43.5719 38.7908 43.3172C38.4079 43.0585 37.9985 43.0338 37.6009 43.2748C37.2578 43.4815 36.9455 43.7321 36.6054 43.9429C36.2048 44.1907 35.8145 44.4769 35.3742 44.6398C34.2756 45.0464 33.2005 44.3372 33.1799 43.2365C33.1563 41.9426 34.3919 40.72 35.6834 40.7871C35.9765 40.8022 36.2637 40.9186 36.6024 40.9993C36.4728 41.1951 36.3844 41.3183 36.3064 41.447C36.2048 41.6127 36.0973 41.662 35.8823 41.5716C35.3933 41.3662 34.9294 41.4566 34.5451 41.7975C34.1077 42.185 33.7778 42.6464 33.8809 43.2365C33.9898 43.8526 34.682 44.1702 35.302 43.8881C35.6525 43.728 35.9544 43.4788 36.2843 43.2789C36.735 43.0051 37.1679 42.6902 37.6539 42.4862C38.2813 42.2219 38.891 42.3657 39.399 42.8011C39.888 43.22 40.0294 43.7485 39.8526 44.329C39.5169 45.4366 38.8453 46.2745 37.5552 46.4881C37.1944 46.5483 36.7997 46.4251 36.355 46.3799L36.3565 46.3813Z" fill="black"/>
<path d="M71.4537 41.9823C71.6024 42.1768 71.7364 42.352 71.8645 42.5204C70.9029 43.5226 71.5847 44.559 72.2931 45.0806C72.6569 45.349 73.1252 45.3627 73.483 45.145C73.8792 44.904 74.05 44.559 73.9528 44.1277C73.7849 43.3857 73.539 42.6546 73.433 41.9043C73.3122 41.0472 73.8512 40.4147 74.754 40.2573C74.9999 40.2148 75.2812 40.2491 75.5257 40.3134C76.6758 40.6173 77.5742 42.0179 77.2693 43.0927C77.1677 43.4514 76.8879 43.7663 76.6346 44.1962C76.396 43.8881 76.2502 43.6992 76.1103 43.5171C76.8805 42.6299 76.745 41.7291 75.7878 41.1267C75.4255 40.8994 75.0632 40.872 74.6759 41.0678C74.2901 41.2636 74.1502 41.5812 74.1988 41.9563C74.2444 42.3041 74.3608 42.6436 74.4344 42.9886C74.5419 43.4925 74.7245 43.9963 74.726 44.5015C74.7319 45.6338 73.4433 46.3375 72.3402 45.8514C71.2814 45.3846 70.5406 44.0798 70.7217 43.001C70.7939 42.5724 71.003 42.2685 71.4522 41.981L71.4537 41.9823Z" fill="black"/>
<path d="M56.0125 36.9919C56.201 34.8917 56.3836 32.8764 56.5677 30.8269C57.9638 30.935 59.3025 31.0391 60.6956 31.1472C60.6868 31.3375 60.678 31.5196 60.6662 31.7606C60.0933 31.725 59.544 31.6962 58.9947 31.6579C58.5573 31.6264 58.1184 31.5963 57.684 31.5429C57.438 31.5128 57.3394 31.5716 57.3232 31.8112C57.2893 32.3 57.2319 32.7874 57.1715 33.2734C57.142 33.5089 57.2466 33.5788 57.4896 33.5925C58.22 33.6349 58.949 33.6979 59.678 33.754C59.865 33.7691 60.0771 33.7472 60.0536 34.0278C60.0315 34.2907 59.9328 34.418 59.6162 34.3865C58.9623 34.3208 58.3025 34.2921 57.6472 34.2305C57.117 34.1798 57.0993 34.1894 57.0655 34.6658C57.0331 35.1135 57.0007 35.5626 56.9329 36.0062C56.8873 36.306 56.9211 36.4416 57.3099 36.4607C58.2716 36.5087 59.2288 36.6127 60.2111 36.6962V37.3164C58.8297 37.2096 57.4587 37.1028 56.0125 36.9906V36.9919Z" fill="black"/>
<path d="M32.47 71.9138C32.3242 71.703 32.1917 71.5113 32.0356 71.2868C32.5231 71.0006 32.9914 70.7268 33.4597 70.4502C34.1651 70.0354 34.8897 69.6452 35.5701 69.1975C37.2975 68.0598 38.7319 69.0264 39.3063 70.3489C39.7171 71.295 39.4359 72.1698 38.5066 72.738C37.2342 73.5143 35.9382 74.2577 34.6084 75.0395C34.4596 74.8286 34.3212 74.6329 34.1666 74.4152C35.439 73.6649 36.676 72.9393 37.9102 72.2082C38.8689 71.64 39.0265 70.8829 38.3711 70.0285C37.866 69.37 37.1385 69.2153 36.3712 69.6493C35.2092 70.3092 34.065 70.9965 32.9118 71.6715C32.7778 71.7495 32.6409 71.8207 32.47 71.9138Z" fill="black"/>
<path d="M46.3678 32.3069C47.0379 33.6034 47.7139 34.8685 48.3471 36.1513C48.783 37.0358 48.5297 37.9147 47.7109 38.524C47.1336 38.9525 46.4709 39.2154 45.7272 39.1675C44.9923 39.1209 44.4195 38.7622 44.0896 38.1447C43.4121 36.8797 42.7612 35.6023 42.1014 34.3277C42.0838 34.2934 42.0897 34.2483 42.0823 34.1866C42.287 34.0935 42.4946 34.0004 42.7553 33.8827C42.9924 34.3345 43.2207 34.7671 43.4475 35.2025C43.8863 36.0473 44.3105 36.8975 44.7655 37.7354C45.0954 38.3419 45.5961 38.576 46.2692 38.4911C46.9702 38.4035 47.6491 37.938 47.7153 37.363C47.758 36.9974 47.6476 36.5798 47.4841 36.2362C46.9878 35.1929 46.4282 34.1757 45.8995 33.1448C45.5873 32.5369 45.5932 32.5355 46.3708 32.3055L46.3678 32.3069Z" fill="black"/>
<path d="M73.86 66.9576C75.8261 67.9475 77.7509 68.9168 79.7081 69.9012C79.0483 71.0376 78.4107 72.1342 77.7479 73.2761C77.558 73.1912 77.3812 73.1131 77.1618 73.0159C77.6861 72.1068 78.1956 71.2238 78.7391 70.2832C78.0911 69.9546 77.4593 69.6342 76.7789 69.2892C76.3062 70.0929 75.8541 70.8623 75.3872 71.6564C75.1928 71.5578 75.019 71.4716 74.8173 71.3703C75.2738 70.5803 75.7171 69.8177 76.1913 68.9976C75.5198 68.6581 74.8747 68.3226 74.215 68.0159C74.1516 67.9858 73.9396 68.1145 73.8792 68.2145C73.4256 68.9606 72.9941 69.7178 72.5552 70.4694C72.5214 70.5283 72.4801 70.583 72.4212 70.672C72.2415 70.5734 72.0737 70.4817 71.8734 70.3708C72.5405 69.2249 73.1929 68.1063 73.8615 66.9576H73.86Z" fill="black"/>
<path d="M79.6551 63.947C79.7567 63.9374 79.8274 63.9264 79.8981 63.9251C80.5564 63.9086 81.0689 63.6731 81.2971 63.0666C81.5401 62.4163 81.4827 61.8084 80.9128 61.306C80.1249 60.6118 77.8392 60.2778 76.8746 60.7213C76.2222 61.0225 75.9837 61.5428 75.9748 62.1931C75.966 62.7969 76.2708 63.1953 76.8481 63.439C76.9659 63.4883 77.0793 63.5472 77.2075 63.6074C77.1677 63.832 77.1294 64.0428 77.0793 64.3207C76.4829 64.2057 76.019 63.9429 75.6832 63.4924C74.6141 62.059 75.6449 59.9451 77.5197 59.7643C78.5196 59.6685 79.5107 59.7972 80.4459 60.1477C82.0276 60.7405 82.6005 62.3122 81.7669 63.6937C81.3295 64.4166 80.4857 64.7917 79.5432 64.6575C79.5785 64.4371 79.6153 64.2139 79.6595 63.9483L79.6551 63.947Z" fill="black"/>
<path d="M71.8704 79.4083C71.4512 79.7634 71.0246 79.8318 70.5907 79.6137C69.8057 79.218 69.0222 78.8223 68.2358 78.428C68.1239 78.3719 68.0076 78.3253 67.8014 78.2336C67.8809 78.8922 67.9472 79.4754 68.0208 80.0586C68.0841 80.557 68.224 81.0608 68.1872 81.5523C68.1696 81.7823 67.8132 81.9904 67.6099 82.2095C67.5643 82.189 67.5186 82.1684 67.473 82.1479C67.4229 81.7372 67.3655 81.3264 67.3213 80.9157C67.227 80.0093 67.1534 79.1003 67.04 78.1953C67.0091 77.9516 66.9104 77.6969 66.772 77.4874C66.4274 76.9672 66.043 76.4716 65.6498 75.9321C65.8677 75.787 66.0636 75.6556 66.3095 75.4913C66.6939 76.0198 67.04 76.5359 67.4347 77.0192C67.6202 77.2479 67.8662 77.4642 68.1357 77.5984C69.2446 78.1515 70.3712 78.6717 71.492 79.2057C71.6186 79.2659 71.7379 79.3371 71.869 79.4083H71.8704Z" fill="black"/>
<path d="M74.24 38.1393C74.0957 38.2885 73.972 38.4172 73.8203 38.576C73.2813 38.1324 72.7599 37.7053 72.2077 37.2507C70.8499 38.639 69.5259 39.9944 68.1666 41.3854C67.9501 41.2006 67.7734 41.0486 67.5731 40.8788C68.9236 39.4906 70.2549 38.1201 71.6053 36.7318C71.0604 36.2691 70.5553 35.8392 70.0251 35.3887C70.1592 35.245 70.2799 35.1135 70.4404 34.9424C71.7099 36.0103 72.9617 37.0645 74.24 38.1406V38.1393Z" fill="black"/>
<path d="M74.1634 76.4524C72.6716 75.1997 71.2166 73.9798 69.7232 72.7257C69.9 72.5326 70.062 72.3547 70.246 72.1548C71.7482 73.4116 73.2135 74.6383 74.7083 75.8883C75.1958 75.3927 75.6567 74.9231 76.1486 74.4234C76.2988 74.5425 76.4402 74.6534 76.6316 74.8054C75.4903 75.9814 74.3607 77.1452 73.2032 78.339C73.0324 78.1925 72.8984 78.0775 72.7393 77.9406C73.2135 77.445 73.6686 76.9699 74.1634 76.4524Z" fill="black"/>
<path d="M38.8306 37.2754C40.1943 38.6527 41.53 40.0026 42.8967 41.384C42.7023 41.5497 42.5226 41.7017 42.3017 41.8892C40.9454 40.5256 39.6008 39.1716 38.2297 37.7929C37.6951 38.2447 37.1885 38.6732 36.6216 39.1524C36.4934 39.0155 36.3727 38.8882 36.2033 38.7074C37.461 37.6245 38.6995 36.5593 39.969 35.4681C40.1221 35.6256 40.2458 35.7529 40.399 35.9117C39.8762 36.3676 39.3681 36.8085 38.8306 37.2754Z" fill="black"/>
<path d="M35.0767 58.6211C35.2564 59.8629 35.4287 61.0581 35.6113 62.3287C33.4081 62.6025 31.2212 62.8749 29.0077 63.1515C28.9665 62.8941 28.9312 62.6696 28.8855 62.3807C30.856 62.1329 32.8102 61.8878 34.8116 61.6373C34.6732 60.6406 34.5436 59.7027 34.4081 58.732C34.6231 58.6978 34.819 58.6649 35.0767 58.6239V58.6211Z" fill="black"/>
<path d="M74.3166 65.7063C74.4152 65.4352 74.4933 65.2216 74.5875 64.9628C76.695 65.631 78.7715 66.2909 80.8936 66.9645C80.8052 67.2054 80.7287 67.4176 80.6241 67.7038C78.5226 67.0384 76.449 66.3812 74.3166 65.7063Z" fill="black"/>
<path d="M35.1459 56.9837V57.7066H28.5453V56.9837H35.1459Z" fill="black"/>
</svg>
